G04 ================== begin FILE IDENTIFICATION RECORD ==================*
G04 Layout Name:  C:/Users/Andreaa/ESE/Launchpad/allegro/LAUNCHPAD.brd*
G04 Film Name:    BOTTOM*
G04 File Format:  Gerber RS274X*
G04 File Origin:  Cadence Allegro 17.2-S071*
G04 Origin Date:  Mon Dec 21 22:32:40 2020*
G04 *
G04 Layer:  VIA CLASS/BOTTOM*
G04 Layer:  PIN/BOTTOM*
G04 Layer:  ETCH/BOTTOM*
G04 Layer:  BOARD GEOMETRY/DESIGN_OUTLINE*
G04 *
G04 Offset:    (0.0000 0.0000)*
G04 Mirror:    No*
G04 Mode:      Positive*
G04 Rotation:  0*
G04 FullContactRelief:  No*
G04 UndefLineWidth:     0.0000*
G04 ================== end FILE IDENTIFICATION RECORD ====================*
%FSLAX25Y25*MOMM*%
%IR0*IPPOS*OFA0.00000B0.00000*MIA0B0*SFA1.00000B1.00000*%
%ADD12C,.4*%
%ADD10C,.6*%
%ADD13C,.9002*%
%ADD11O,1.208X2.416*%
%ADD14C,1.016*%
%ADD15R,1.016X1.016*%
%ADD16C,.25*%
%ADD17C,.127*%
%ADD19C,1.1546*%
%ADD18O,1.4624X2.6704*%
G75*
%LPD*%
G75*
G36*
G01X4400000Y-6005000D02*
X-5000000D01*
Y5040000D01*
X4400000D01*
Y-6005000D01*
G37*
%LPC*%
G75*
G36*
G01X-4794070Y-3645000D02*
Y-3358230D01*
G02X-4817720Y-3320000I19074J38230D01*
G02X-4732280I42720J0D01*
G02X-4755930Y-3358230I-42724J0D01*
G01Y-3637100D01*
X-4747100Y-3645930D01*
X-3019070D01*
Y-3351590D01*
G02X-3032720Y-3325000I19073J26590D01*
G02X-2967280I32720J0D01*
G02X-2980930Y-3351590I-32723J0D01*
G01Y-3642100D01*
X-2977100Y-3645930D01*
X-1019070D01*
Y-3351590D01*
G02X-1032720Y-3325000I19073J26590D01*
G02X-967280I32720J0D01*
G02X-980930Y-3351590I-32723J0D01*
G01Y-3644400D01*
X-979400Y-3645930D01*
X980930D01*
Y-3351590D01*
G02X967280Y-3325000I19073J26590D01*
G02X1032720I32720J0D01*
G02X1019070Y-3351590I-32723J0D01*
G01Y-3644400D01*
X1020600Y-3645930D01*
X2979400D01*
X2980930Y-3644400D01*
Y-3351590D01*
G02X2967280Y-3325000I19073J26590D01*
G02X3032720I32720J0D01*
G02X3019070Y-3351590I-32723J0D01*
G01Y-3652300D01*
G02X3013480Y-3665780I-19067J8D01*
G01X3000780Y-3678480D01*
G02X2987300Y-3684070I-13488J13477D01*
G01X-4755000D01*
G02X-4768480Y-3678480I8J19067D01*
G01X-4788480Y-3658480D01*
G02X-4794070Y-3645000I13477J13488D01*
G37*
G36*
G01X-4694070Y337700D02*
Y641770D01*
G02X-4717720Y680000I19074J38230D01*
G02X-4632280I42720J0D01*
G02X-4655930Y641770I-42724J0D01*
G01Y345600D01*
X-4654400Y344070D01*
X-3019070D01*
Y648410D01*
G02X-3032720Y675000I19073J26590D01*
G02X-2967280I32720J0D01*
G02X-2980930Y648410I-32723J0D01*
G01Y345600D01*
X-2979400Y344070D01*
X-1019070D01*
Y648410D01*
G02X-1032720Y675000I19073J26590D01*
G02X-967280I32720J0D01*
G02X-980930Y648410I-32723J0D01*
G01Y345600D01*
X-979400Y344070D01*
X990930D01*
Y648410D01*
G02X977280Y675000I19073J26590D01*
G02X1042720I32720J0D01*
G02X1029070Y648410I-32723J0D01*
G01Y345600D01*
X1030600Y344070D01*
X2979400D01*
X2980930Y345600D01*
Y648410D01*
G02X2967280Y675000I19073J26590D01*
G02X3032720I32720J0D01*
G02X3019070Y648410I-32723J0D01*
G01Y337700D01*
G02X3013480Y324220I-19067J8D01*
G01X3000780Y311520D01*
G02X2987300Y305930I-13488J13477D01*
G01X-4662300D01*
G02X-4675780Y311520I8J19067D01*
G01X-4688480Y324220D01*
G02X-4694070Y337700I13477J13488D01*
G37*
G36*
G01X-1967270Y4436610D02*
X-2063390Y4532730D01*
X-2065790Y4532490D01*
G02X-2070000Y4532280I-4231J42509D01*
G02X-2027280Y4575000I0J42720D01*
G02X-2027490Y4570790I-42719J21D01*
G01X-2027730Y4568390D01*
X-1931610Y4472270D01*
X-1929210Y4472510D01*
G02X-1925000Y4472720I4231J-42509D01*
G02X-1967720Y4430000I0J-42720D01*
G02X-1967510Y4434210I42719J-21D01*
G01X-1967270Y4436610D01*
G37*
G36*
G01X2323550Y2925780D02*
X1972980D01*
G02X1938500Y2908280I-34480J25218D01*
G02Y2993720I0J42720D01*
G02X1972980Y2976220I0J-42718D01*
G01X2334000D01*
G02X2351830Y2968830I-6J-25218D01*
G01X2418390Y2902270D01*
X2420790Y2902510D01*
G02X2425000Y2902720I4231J-42509D01*
G02X2382280Y2860000I0J-42720D01*
G02X2382490Y2864210I42719J-21D01*
G01X2382730Y2866610D01*
X2323550Y2925780D01*
G37*
G36*
G01X1554110Y2909770D02*
X1660230Y3015890D01*
X1659990Y3018290D01*
G02X1659780Y3022500I42509J4231D01*
G02X1702500Y2979780I42720J0D01*
G02X1698290Y2979990I21J42719D01*
G01X1695890Y2980230D01*
X1589770Y2874110D01*
X1590010Y2871710D01*
G02X1590220Y2867500I-42509J-4231D01*
G02X1547500Y2910220I-42720J0D01*
G02X1551710Y2910010I-21J-42719D01*
G01X1554110Y2909770D01*
G37*
G36*
G01X-792270Y4571610D02*
X-878460Y4657790D01*
X-880880Y4657530D01*
G02X-885500Y4657280I-4615J42470D01*
G02X-842780Y4700000I0J42720D01*
G02X-842950Y4696190I-42720J-3D01*
G01X-843160Y4693830D01*
X-756610Y4607270D01*
X-754210Y4607510D01*
G02X-750000Y4607720I4231J-42509D01*
G02X-792720Y4565000I0J-42720D01*
G02X-792510Y4569210I42719J-21D01*
G01X-792270Y4571610D01*
G37*
G36*
G01X155520Y4347720D02*
G02X224480I34480J-25218D01*
G01X350520D01*
G02X385000Y4365220I34480J-25218D01*
G02Y4279780I0J-42720D01*
G02X350520Y4297280I0J42718D01*
G01X224480D01*
G02X155520I-34480J25218D01*
G01X29480D01*
G02X-39480I-34480J25218D01*
G01X-97050D01*
X-132730Y4261610D01*
X-132490Y4259210D01*
G02X-132280Y4255000I-42509J-4231D01*
G02X-175000Y4297720I-42720J0D01*
G02X-170790Y4297510I-21J-42719D01*
G01X-168390Y4297270D01*
X-125330Y4340330D01*
G02X-107500Y4347720I17836J-17828D01*
G01X-39480D01*
G02X29480I34480J-25218D01*
G01X155520D01*
G37*
G36*
G01X1635480Y4209410D02*
Y4229300D01*
G02X1648200Y4242020I12720J0D01*
G01X1749800D01*
G02X1762520Y4229300I0J-12720D01*
G01Y4127700D01*
G02X1749800Y4114980I-12720J0D01*
G01X1729910D01*
Y4107060D01*
X1732330Y4105580D01*
G02X1762520Y4051500I-33342J-54080D01*
G02X1699000Y3987980I-63520J0D01*
G02X1644260Y4019280I0J63517D01*
G03X1626740I-8760J-5149D01*
G02X1517260I-54740J32217D01*
G03X1499740I-8760J-5149D01*
G02X1390260I-54740J32217D01*
G03X1372740I-8760J-5149D01*
G02X1318000Y3987980I-54740J32217D01*
G02X1263260Y4019280I0J63517D01*
G03X1245740I-8760J-5149D01*
G02X1191000Y3987980I-54740J32217D01*
G02X1127480Y4051500I0J63520D01*
G02X1158780Y4106240I63517J0D01*
G03Y4123760I-5149J8760D01*
G02X1127480Y4178500I32217J54740D01*
G02X1191000Y4242020I63520J0D01*
G02X1245740Y4210720I0J-63517D01*
G03X1263260I8760J5149D01*
G02X1318000Y4242020I54740J-32217D01*
G02X1372740Y4210720I0J-63517D01*
G03X1390260I8760J5149D01*
G02X1499740I54740J-32217D01*
G03X1517260I8760J5149D01*
G02X1572000Y4242020I54740J-32217D01*
G02X1626080Y4211830I0J-63532D01*
G01X1627560Y4209410D01*
X1635480D01*
G37*
G36*
G01X2214780Y3695450D02*
Y3770520D01*
G02X2197280Y3805000I25218J34480D01*
G02X2282720I42720J0D01*
G02X2265220Y3770520I-42718J0D01*
G01Y3685000D01*
G02X2257830Y3667170I-25218J6D01*
G01X2232830Y3642170D01*
G02X2215000Y3634780I-17836J17828D01*
G01X2110450D01*
X2100220Y3624550D01*
Y3161000D01*
G02X2092830Y3143170I-25218J6D01*
G01X2067830Y3118170D01*
G02X2050000Y3110780I-17836J17828D01*
G01X1972980D01*
G02X1938500Y3093280I-34480J25218D01*
G02Y3178720I0J42720D01*
G02X1972980Y3161220I0J-42718D01*
G01X2039550D01*
X2049780Y3171450D01*
Y3635000D01*
G02X2057170Y3652830I25218J-6D01*
G01X2082170Y3677830D01*
G02X2100000Y3685220I17836J-17828D01*
G01X2204550D01*
X2214780Y3695450D01*
G37*
G36*
G01X514780Y3364480D02*
Y3515520D01*
G02X497280Y3550000I25218J34480D01*
G02X582720I42720J0D01*
G02X565220Y3515520I-42718J0D01*
G01Y3364480D01*
G02X582720Y3330000I-25218J-34480D01*
G02X497280I-42720J0D01*
G02X514780Y3364480I42718J0D01*
G37*
G36*
G01X30930Y3172700D02*
Y3256770D01*
G02X7280Y3295000I19074J38230D01*
G02X92720I42720J0D01*
G02X69070Y3256770I-42724J0D01*
G01Y3180600D01*
X70600Y3179070D01*
X472300D01*
G02X485780Y3173480I-8J-19067D01*
G01X498480Y3160780D01*
G02X504070Y3147300I-13477J-13488D01*
G01Y3085600D01*
X505600Y3084070D01*
X626770D01*
G02X665000Y3107720I38230J-19074D01*
G02Y3022280I0J-42720D01*
G02X626770Y3045930I0J42724D01*
G01X497700D01*
G02X484220Y3051520I8J19067D01*
G01X471520Y3064220D01*
G02X465930Y3077700I13477J13488D01*
G01Y3139400D01*
X464400Y3140930D01*
X62700D01*
G02X49220Y3146520I8J19067D01*
G01X36520Y3159220D01*
G02X30930Y3172700I13477J13488D01*
G37*
G36*
G01X-123930Y3153260D02*
X-178390Y3207730D01*
X-180790Y3207490D01*
G02X-185000Y3207280I-4231J42509D01*
G02X-142280Y3250000I0J42720D01*
G02X-142490Y3245790I-42719J21D01*
G01X-142730Y3243390D01*
X-84560Y3185220D01*
X-82450D01*
G02X-39780Y3142500I-50J-42720D01*
G02X-125220I-42720J0D01*
G02X-124440Y3150610I42718J-16D01*
G01X-123930Y3153260D01*
G37*
G36*
G01X218230Y3220930D02*
G02X180000Y3197280I-38230J19074D01*
G02Y3282720I0J42720D01*
G02X218230Y3259070I0J-42724D01*
G01X656770D01*
G02X695000Y3282720I38230J-19074D01*
G02Y3197280I0J-42720D01*
G02X656770Y3220930I0J42724D01*
G01X218230D01*
G37*
G36*
G01X54550Y2969780D02*
X-50520D01*
G02X-85000Y2952280I-34480J25218D01*
G02Y3037720I0J42720D01*
G02X-50520Y3020220I0J-42718D01*
G01X65000D01*
G02X82830Y3012830I-6J-25218D01*
G01X107830Y2987830D01*
G02X115220Y2970000I-17828J-17836D01*
G01Y2780450D01*
X125450Y2770220D01*
X520520D01*
G02X555000Y2787720I34480J-25218D01*
G02Y2702280I0J-42720D01*
G02X520520Y2719780I0J42718D01*
G01X115000D01*
G02X97170Y2727170I6J25218D01*
G01X72170Y2752170D01*
G02X64780Y2770000I17828J17836D01*
G01Y2959550D01*
X54550Y2969780D01*
G37*
G36*
G01X223230Y2615930D02*
G02X185000Y2592280I-38230J19074D01*
G02Y2677720I0J42720D01*
G02X223230Y2654070I0J-42724D01*
G01X596770D01*
G02X635000Y2677720I38230J-19074D01*
G02Y2592280I0J-42720D01*
G02X596770Y2615930I0J42724D01*
G01X223230D01*
G37*
G36*
G01X-4009070Y-1652300D02*
Y-1348230D01*
G02X-4032720Y-1310000I19074J38230D01*
G02X-3947280I42720J0D01*
G02X-3970930Y-1348230I-42724J0D01*
G01Y-1644400D01*
X-3969400Y-1645930D01*
X-3019070D01*
Y-1351590D01*
G02X-3032720Y-1325000I19073J26590D01*
G02X-2967280I32720J0D01*
G02X-2980930Y-1351590I-32723J0D01*
G01Y-1644400D01*
X-2979400Y-1645930D01*
X-1019070D01*
Y-1351590D01*
G02X-1032720Y-1325000I19073J26590D01*
G02X-967280I32720J0D01*
G02X-980930Y-1351590I-32723J0D01*
G01Y-1644400D01*
X-979400Y-1645930D01*
X980930D01*
Y-1351590D01*
G02X967280Y-1325000I19073J26590D01*
G02X1032720I32720J0D01*
G02X1019070Y-1351590I-32723J0D01*
G01Y-1644400D01*
X1020600Y-1645930D01*
X2979400D01*
X2980930Y-1644400D01*
Y-1351590D01*
G02X2967280Y-1325000I19073J26590D01*
G02X3032720I32720J0D01*
G02X3019070Y-1351590I-32723J0D01*
G01Y-1652300D01*
G02X3013480Y-1665780I-19067J8D01*
G01X3000780Y-1678480D01*
G02X2987300Y-1684070I-13488J13477D01*
G01X-3977300D01*
G02X-3990780Y-1678480I8J19067D01*
G01X-4003480Y-1665780D01*
G02X-4009070Y-1652300I13477J13488D01*
G37*
G36*
G01X-4019070Y-5647300D02*
Y-5363230D01*
G02X-4042720Y-5325000I19074J38230D01*
G02X-3957280I42720J0D01*
G02X-3980930Y-5363230I-42724J0D01*
G01Y-5639400D01*
X-3979400Y-5640930D01*
X-3019070D01*
Y-5351590D01*
G02X-3032720Y-5325000I19073J26590D01*
G02X-2967280I32720J0D01*
G02X-2980930Y-5351590I-32723J0D01*
G01Y-5639400D01*
X-2979400Y-5640930D01*
X-1019070D01*
Y-5351590D01*
G02X-1032720Y-5325000I19073J26590D01*
G02X-967280I32720J0D01*
G02X-980930Y-5351590I-32723J0D01*
G01Y-5639400D01*
X-979400Y-5640930D01*
X980930D01*
Y-5351590D01*
G02X967280Y-5325000I19073J26590D01*
G02X1032720I32720J0D01*
G02X1019070Y-5351590I-32723J0D01*
G01Y-5639400D01*
X1020600Y-5640930D01*
X2979400D01*
X2980930Y-5639400D01*
Y-5351590D01*
G02X2967280Y-5325000I19073J26590D01*
G02X3032720I32720J0D01*
G02X3019070Y-5351590I-32723J0D01*
G01Y-5647300D01*
G02X3013480Y-5660780I-19067J8D01*
G01X3000780Y-5673480D01*
G02X2987300Y-5679070I-13488J13477D01*
G01X-3987300D01*
G02X-4000780Y-5673480I8J19067D01*
G01X-4013480Y-5660780D01*
G02X-4019070Y-5647300I13477J13488D01*
G37*
G54D19*
X-1945000Y4895000D03*
X-2245000D03*
G54D18*
X-4710000Y4800000D03*
X-3920000D03*
%LPD*%
G75*
G54D10*
X-4775000Y-3320000D03*
X-4675000Y680000D03*
X-4935000Y4565000D03*
X-4842500Y4662500D03*
X-4444000Y4146000D03*
X-4345500Y4220500D03*
X-4000000Y-5325000D03*
X-3990000Y-1310000D03*
X-4205000Y4650000D03*
X-3595000Y4230000D03*
X-3695000Y4575000D03*
X-3582500Y4662500D03*
X-3171500Y4166500D03*
X-2983500D03*
X-2985000Y4670000D03*
X-2633000Y4167000D03*
X-2515000Y4165000D03*
X-2752500Y4662500D03*
X-2655000Y4580000D03*
X-2070000Y4575000D03*
X-1787000Y4088000D03*
X-1894500Y4159500D03*
X-1925000Y4430000D03*
X-1435000Y4145000D03*
X-1465000Y5000000D03*
X-1567500Y4932500D03*
X-1225000Y4345000D03*
Y4145000D03*
X-841000Y3934000D03*
X-753500Y4011500D03*
X-655000Y4580000D03*
X-550000Y4465000D03*
X-885500Y4700000D03*
X-750000Y4565000D03*
X-290000Y2955000D03*
X-185000Y3250000D03*
X-175000Y4255000D03*
X-475000Y4570000D03*
X-369970Y4476500D03*
Y4406500D03*
X185000Y2635000D03*
X70000Y2650000D03*
X204980Y2864950D03*
X180000Y3240000D03*
X204980Y3034950D03*
Y2949950D03*
X-85000Y2995000D03*
X-82500Y3142500D03*
X50000Y3295000D03*
X-5000Y4322500D03*
X190000D03*
X374980Y2864950D03*
X289980D03*
X555000Y2745000D03*
X615000Y2920000D03*
X374980Y3034950D03*
X289980D03*
X374980Y2949950D03*
X289980D03*
X540000Y3330000D03*
Y3550000D03*
X385000Y4322500D03*
X635000Y2635000D03*
X665000Y3065000D03*
X695000Y3240000D03*
X953000Y3702000D03*
X1073500Y3796500D03*
X1547500Y2867500D03*
X1702500Y3022500D03*
X1656000Y3147500D03*
X1938500Y2951000D03*
Y3136000D03*
X1803500D03*
Y2951000D03*
X1943500Y3961500D03*
X2059000Y4069000D03*
X2425000Y2860000D03*
X2420000Y2655000D03*
X2482720Y3235140D03*
X2337720D03*
X2192720D03*
X2482720Y3080140D03*
X2337720D03*
X2192720D03*
X2482720Y3545140D03*
X2337720D03*
X2192720D03*
X2482720Y3390140D03*
X2337720D03*
X2192720D03*
X2240000Y3805000D03*
X2333500Y3933500D03*
X2235000Y4040000D03*
X2534000Y2651000D03*
X2665000Y2655000D03*
X2627720Y3235140D03*
Y3080140D03*
Y3545140D03*
Y3390140D03*
X2685000Y3882500D03*
X3090000Y2780000D03*
X3150000Y2955000D03*
X3429000Y2821000D03*
X3520500Y2899500D03*
X3520000Y3535000D03*
X3429500Y3624500D03*
X3524000Y3386000D03*
X3429500Y3300500D03*
X3982000Y2828000D03*
X4350000Y2825000D03*
X4079500Y2899500D03*
G54D11*
X-4710000Y4800000D03*
X-3920000D03*
G54D12*
X-3000000Y-5325000D03*
Y-3325000D03*
Y-1325000D03*
Y675000D03*
X-1000000Y-5325000D03*
Y-3325000D03*
Y-1325000D03*
Y675000D03*
X1000000Y-5325000D03*
Y-3325000D03*
Y-1325000D03*
X1010000Y675000D03*
X3000000Y-5325000D03*
Y-3325000D03*
Y-1325000D03*
Y675000D03*
G54D13*
X-2245000Y4895000D03*
X-1945000D03*
G54D14*
X1191000Y4178500D03*
X1318000Y4051500D03*
Y4178500D03*
X1191000Y4051500D03*
X1445000D03*
Y4178500D03*
X1572000Y4051500D03*
Y4178500D03*
X1699000Y4051500D03*
G54D15*
Y4178500D03*
G54D16*
G01X-1925000Y4430000D02*
X-2070000Y4575000D01*
G01X-885500Y4700000D02*
X-885000D01*
X-750000Y4565000D01*
G01X-82500Y3142500D02*
Y3147500D01*
X-185000Y3250000D01*
G01X-5000Y4322500D02*
X-107500D01*
X-175000Y4255000D01*
G01X-85000Y2995000D02*
X65000D01*
X90000Y2970000D01*
Y2770000D01*
X115000Y2745000D01*
X555000D01*
G01X385000Y4322500D02*
X190000D01*
G01D02*
X-5000D01*
G01X540000Y3330000D02*
Y3550000D01*
G01X1547500Y2867500D02*
X1702500Y3022500D01*
G01X1938500Y2951000D02*
X2334000D01*
X2425000Y2860000D01*
G01X2240000Y3805000D02*
Y3685000D01*
X2215000Y3660000D01*
X2100000D01*
X2075000Y3635000D01*
Y3161000D01*
X2050000Y3136000D01*
X1938500D01*
G54D17*
G01X-4775000Y-3320000D02*
Y-3645000D01*
X-4755000Y-3665000D01*
X-2985000D01*
G01X-2987300Y325000D02*
X-4662300D01*
X-4675000Y337700D01*
Y680000D01*
G01X-2987300Y-5660000D02*
X-3987300D01*
X-4000000Y-5647300D01*
Y-5325000D01*
G01X-2987300Y-1665000D02*
X-3977300D01*
X-3990000Y-1652300D01*
Y-1310000D01*
G01X-987300Y-5660000D02*
X-2987300D01*
G01D02*
X-3000000Y-5647300D01*
Y-5325000D01*
G01Y-3325000D02*
Y-3650000D01*
X-2985000Y-3665000D01*
G01D02*
X-987300D01*
G01Y-1665000D02*
X-2987300D01*
G01D02*
X-3000000Y-1652300D01*
Y-1325000D01*
G01X-987300Y325000D02*
X-2987300D01*
G01D02*
X-3000000Y337700D01*
Y675000D01*
G01X1012700Y-5660000D02*
X-987300D01*
G01D02*
X-1000000Y-5647300D01*
Y-5325000D01*
G01X1012700Y-3665000D02*
X-987300D01*
G01D02*
X-1000000Y-3652300D01*
Y-3325000D01*
G01X1012700Y-1665000D02*
X-987300D01*
G01D02*
X-1000000Y-1652300D01*
Y-1325000D01*
G01X1022700Y325000D02*
X-987300D01*
G01D02*
X-1000000Y337700D01*
Y675000D01*
G01X635000Y2635000D02*
X185000D01*
G01X50000Y3295000D02*
Y3172700D01*
X62700Y3160000D01*
X472300D01*
X485000Y3147300D01*
Y3077700D01*
X497700Y3065000D01*
X665000D01*
G01X695000Y3240000D02*
X180000D01*
G01X1000000Y-5325000D02*
Y-5647300D01*
X1012700Y-5660000D01*
G01D02*
X2987300D01*
X3000000Y-5647300D01*
Y-5325000D01*
G01X1000000Y-3325000D02*
Y-3652300D01*
X1012700Y-3665000D01*
G01D02*
X2987300D01*
X3000000Y-3652300D01*
Y-3325000D01*
G01X1000000Y-1325000D02*
Y-1652300D01*
X1012700Y-1665000D01*
G01D02*
X2987300D01*
X3000000Y-1652300D01*
Y-1325000D01*
G01Y675000D02*
Y337700D01*
X2987300Y325000D01*
X1022700D01*
G01D02*
X1010000Y337700D01*
Y675000D01*
G01X1191000Y4178500D02*
Y4247100D01*
G01X1122400Y4178500D02*
X1191000D01*
G01X1445000D02*
Y4247100D01*
G01X1572000Y4178500D02*
Y4247100D01*
M02*
