G04 ================== begin FILE IDENTIFICATION RECORD ==================*
G04 Layout Name:  C:/Users/Andreaa/ESE/Launchpad/allegro/LAUNCHPAD.brd*
G04 Film Name:    BOTTOM*
G04 File Format:  Gerber RS274X*
G04 File Origin:  Cadence Allegro 17.2-S071*
G04 Origin Date:  Tue Jan 19 23:24:07 2021*
G04 *
G04 Layer:  VIA CLASS/BOTTOM*
G04 Layer:  PIN/BOTTOM*
G04 Layer:  ETCH/BOTTOM*
G04 Layer:  BOARD GEOMETRY/DESIGN_OUTLINE*
G04 *
G04 Offset:    (0.0000 0.0000)*
G04 Mirror:    No*
G04 Mode:      Positive*
G04 Rotation:  0*
G04 FullContactRelief:  No*
G04 UndefLineWidth:     0.1500*
G04 ================== end FILE IDENTIFICATION RECORD ====================*
%FSLAX25Y25*MOMM*%
%IR0*IPPOS*OFA0.00000B0.00000*MIA0B0*SFA1.00000B1.00000*%
%ADD13C,.4*%
%ADD11C,.6*%
%ADD14C,.9002*%
%ADD12O,1.208X2.416*%
%ADD15C,1.016*%
%ADD10C,3.302*%
%ADD16R,1.016X1.016*%
%ADD17C,.25*%
%ADD18C,.127*%
%ADD19C,.15*%
%ADD21C,1.1546*%
%ADD20O,1.4624X2.6704*%
G75*
%LPD*%
G75*
G36*
G01X-5000000Y5040000D02*
X4400000D01*
Y-6005000D01*
X-5000000D01*
Y5040000D01*
G37*
%LPC*%
G75*
G36*
G01X-4019070Y-5647300D02*
Y-5363230D01*
G02X-4042720Y-5325000I19074J38230D01*
G02X-3957280I42720J0D01*
G02X-3980930Y-5363230I-42724J0D01*
G01Y-5639400D01*
X-3979400Y-5640930D01*
X-3019070D01*
Y-5351590D01*
G02X-3032720Y-5325000I19073J26590D01*
G02X-2967280I32720J0D01*
G02X-2980930Y-5351590I-32723J0D01*
G01Y-5639400D01*
X-2979400Y-5640930D01*
X-1019070D01*
Y-5351590D01*
G02X-1032720Y-5325000I19073J26590D01*
G02X-967280I32720J0D01*
G02X-980930Y-5351590I-32723J0D01*
G01Y-5639400D01*
X-979400Y-5640930D01*
X980930D01*
Y-5351590D01*
G02X967280Y-5325000I19073J26590D01*
G02X1032720I32720J0D01*
G02X1019070Y-5351590I-32723J0D01*
G01Y-5639400D01*
X1020600Y-5640930D01*
X2979400D01*
X2980930Y-5639400D01*
Y-5351590D01*
G02X2967280Y-5325000I19073J26590D01*
G02X3032720I32720J0D01*
G02X3019070Y-5351590I-32723J0D01*
G01Y-5647300D01*
G02X3013480Y-5660780I-19067J8D01*
G01X3000780Y-5673480D01*
G02X2987300Y-5679070I-13488J13477D01*
G01X-3987300D01*
G02X-4000780Y-5673480I8J19067D01*
G01X-4013480Y-5660780D01*
G02X-4019070Y-5647300I13477J13488D01*
G37*
G36*
G01X-4794070Y-3645000D02*
Y-3358230D01*
G02X-4817720Y-3320000I19074J38230D01*
G02X-4732280I42720J0D01*
G02X-4755930Y-3358230I-42724J0D01*
G01Y-3637100D01*
X-4747100Y-3645930D01*
X-3019070D01*
Y-3351590D01*
G02X-3032720Y-3325000I19073J26590D01*
G02X-2967280I32720J0D01*
G02X-2980930Y-3351590I-32723J0D01*
G01Y-3642100D01*
X-2977100Y-3645930D01*
X-1019070D01*
Y-3351590D01*
G02X-1032720Y-3325000I19073J26590D01*
G02X-967280I32720J0D01*
G02X-980930Y-3351590I-32723J0D01*
G01Y-3644400D01*
X-979400Y-3645930D01*
X980930D01*
Y-3351590D01*
G02X967280Y-3325000I19073J26590D01*
G02X1032720I32720J0D01*
G02X1019070Y-3351590I-32723J0D01*
G01Y-3644400D01*
X1020600Y-3645930D01*
X2979400D01*
X2980930Y-3644400D01*
Y-3351590D01*
G02X2967280Y-3325000I19073J26590D01*
G02X3032720I32720J0D01*
G02X3019070Y-3351590I-32723J0D01*
G01Y-3652300D01*
G02X3013480Y-3665780I-19067J8D01*
G01X3000780Y-3678480D01*
G02X2987300Y-3684070I-13488J13477D01*
G01X-4755000D01*
G02X-4768480Y-3678480I8J19067D01*
G01X-4788480Y-3658480D01*
G02X-4794070Y-3645000I13477J13488D01*
G37*
G36*
G01X-4009070Y-1652300D02*
Y-1348230D01*
G02X-4032720Y-1310000I19074J38230D01*
G02X-3947280I42720J0D01*
G02X-3970930Y-1348230I-42724J0D01*
G01Y-1644400D01*
X-3969400Y-1645930D01*
X-3019070D01*
Y-1351590D01*
G02X-3032720Y-1325000I19073J26590D01*
G02X-2967280I32720J0D01*
G02X-2980930Y-1351590I-32723J0D01*
G01Y-1644400D01*
X-2979400Y-1645930D01*
X-1019070D01*
Y-1351590D01*
G02X-1032720Y-1325000I19073J26590D01*
G02X-967280I32720J0D01*
G02X-980930Y-1351590I-32723J0D01*
G01Y-1644400D01*
X-979400Y-1645930D01*
X980930D01*
Y-1351590D01*
G02X967280Y-1325000I19073J26590D01*
G02X1032720I32720J0D01*
G02X1019070Y-1351590I-32723J0D01*
G01Y-1644400D01*
X1020600Y-1645930D01*
X2979400D01*
X2980930Y-1644400D01*
Y-1351590D01*
G02X2967280Y-1325000I19073J26590D01*
G02X3032720I32720J0D01*
G02X3019070Y-1351590I-32723J0D01*
G01Y-1652300D01*
G02X3013480Y-1665780I-19067J8D01*
G01X3000780Y-1678480D01*
G02X2987300Y-1684070I-13488J13477D01*
G01X-3977300D01*
G02X-3990780Y-1678480I8J19067D01*
G01X-4003480Y-1665780D01*
G02X-4009070Y-1652300I13477J13488D01*
G37*
G36*
G01X-4694070Y337700D02*
Y641770D01*
G02X-4717720Y680000I19074J38230D01*
G02X-4632280I42720J0D01*
G02X-4655930Y641770I-42724J0D01*
G01Y345600D01*
X-4654400Y344070D01*
X-3019070D01*
Y648410D01*
G02X-3032720Y675000I19073J26590D01*
G02X-2967280I32720J0D01*
G02X-2980930Y648410I-32723J0D01*
G01Y345600D01*
X-2979400Y344070D01*
X-1019070D01*
Y648410D01*
G02X-1032720Y675000I19073J26590D01*
G02X-967280I32720J0D01*
G02X-980930Y648410I-32723J0D01*
G01Y345600D01*
X-979400Y344070D01*
X990930D01*
Y648410D01*
G02X977280Y675000I19073J26590D01*
G02X1042720I32720J0D01*
G02X1029070Y648410I-32723J0D01*
G01Y345600D01*
X1030600Y344070D01*
X2979400D01*
X2980930Y345600D01*
Y648410D01*
G02X2967280Y675000I19073J26590D01*
G02X3032720I32720J0D01*
G02X3019070Y648410I-32723J0D01*
G01Y337700D01*
G02X3013480Y324220I-19067J8D01*
G01X3000780Y311520D01*
G02X2987300Y305930I-13488J13477D01*
G01X-4662300D01*
G02X-4675780Y311520I8J19067D01*
G01X-4688480Y324220D01*
G02X-4694070Y337700I13477J13488D01*
G37*
G36*
G01X239180Y2581880D02*
G02X200950Y2558230I-38230J19074D01*
G02Y2643670I0J42720D01*
G02X239180Y2620020I0J-42724D01*
G01X441770D01*
G02X480000Y2643670I38230J-19074D01*
G02Y2558230I0J-42720D01*
G02X441770Y2581880I0J42724D01*
G01X239180D01*
G37*
G36*
G01X-65590Y2723620D02*
X-113880Y2771910D01*
X-116690Y2771170D01*
G02X-127500Y2769780I-10810J41340D01*
G02X-84780Y2812500I0J42720D01*
G02X-86170Y2801690I-42730J0D01*
G01X-86910Y2798880D01*
X-38620Y2750590D01*
X-35810Y2751330D01*
G02X-25000Y2752720I10810J-41340D01*
G02X-67720Y2710000I0J-42720D01*
G02X-66330Y2720810I42730J0D01*
G01X-65590Y2723620D01*
G37*
G36*
G01X1596610Y2867270D02*
X1702730Y2973390D01*
X1702490Y2975790D01*
G02X1702280Y2980000I42509J4231D01*
G02X1745000Y2937280I42720J0D01*
G02X1740790Y2937490I21J42719D01*
G01X1738390Y2937730D01*
X1632270Y2831610D01*
X1632510Y2829210D01*
G02X1632720Y2825000I-42509J-4231D01*
G02X1590000Y2867720I-42720J0D01*
G02X1594210Y2867510I-21J-42719D01*
G01X1596610Y2867270D01*
G37*
G36*
G01X628230Y3020930D02*
G02X590000Y2997280I-38230J19074D01*
G02Y3082720I0J42720D01*
G02X628230Y3059070I0J-42724D01*
G01X701770D01*
G02X740000Y3082720I38230J-19074D01*
G02Y2997280I0J-42720D01*
G02X701770Y3020930I0J42724D01*
G01X628230D01*
G37*
G36*
G01X-984070Y2978230D02*
Y3086770D01*
G02X-1007720Y3125000I19074J38230D01*
G02X-922280I42720J0D01*
G02X-945930Y3086770I-42724J0D01*
G01Y2978230D01*
G02X-922280Y2940000I-19074J-38230D01*
G02X-1007720I-42720J0D01*
G02X-984070Y2978230I42724J0D01*
G37*
G36*
G01X-437270Y3051610D02*
X-518390Y3132730D01*
X-520790Y3132490D01*
G02X-525000Y3132280I-4231J42509D01*
G02X-482280Y3175000I0J42720D01*
G02X-482490Y3170790I-42719J21D01*
G01X-482730Y3168390D01*
X-401610Y3087270D01*
X-399210Y3087510D01*
G02X-395000Y3087720I4231J-42509D01*
G02X-437720Y3045000I0J-42720D01*
G02X-437510Y3049210I42719J-21D01*
G01X-437270Y3051610D01*
G37*
G36*
G01X1341610Y3122270D02*
X1475980Y3256640D01*
X1475260Y3259450D01*
G02X1473940Y3270000I41402J10538D01*
G02X1559380I42720J0D01*
G02X1519810Y3227400I-42716J0D01*
G01X1517920Y3227260D01*
X1377270Y3086610D01*
X1377510Y3084210D01*
G02X1377720Y3080000I-42509J-4231D01*
G02X1335000Y3122720I-42720J0D01*
G02X1339210Y3122510I-21J-42719D01*
G01X1341610Y3122270D01*
G37*
G36*
G01X343230Y3325930D02*
G02X305000Y3302280I-38230J19074D01*
G02Y3387720I0J42720D01*
G02X343230Y3364070I0J-42724D01*
G01X481770D01*
G02X520000Y3387720I38230J-19074D01*
G02Y3302280I0J-42720D01*
G02X481770Y3325930I0J42724D01*
G01X343230D01*
G37*
G36*
G01X934780Y3419480D02*
Y3530520D01*
G02X917280Y3565000I25218J34480D01*
G02X1002720I42720J0D01*
G02X985220Y3530520I-42718J0D01*
G01Y3419480D01*
G02X1002720Y3385000I-25218J-34480D01*
G02X917280I-42720J0D01*
G02X934780Y3419480I42718J0D01*
G37*
G36*
G01X259480Y3607280D02*
G02X225000Y3589780I-34480J25218D01*
G02Y3675220I0J42720D01*
G02X259480Y3657720I0J-42718D01*
G01X358020D01*
G02X392500Y3675220I34480J-25218D01*
G02Y3589780I0J-42720D01*
G02X358020Y3607280I0J42718D01*
G01X259480D01*
G37*
G36*
G01X1944480Y3872280D02*
G02X1910000Y3854780I-34480J25218D01*
G02Y3940220I0J42720D01*
G02X1944480Y3922720I0J-42718D01*
G01X2108020D01*
G02X2142500Y3940220I34480J-25218D01*
G02Y3854780I0J-42720D01*
G02X2108020Y3872280I0J42718D01*
G01X1944480D01*
G37*
G36*
G01X1452280Y3921980D02*
Y3958020D01*
G02X1434780Y3992500I25218J34480D01*
G02X1520220I42720J0D01*
G02X1502720Y3958020I-42718J0D01*
G01Y3921980D01*
G02X1520220Y3887500I-25218J-34480D01*
G02X1434780I-42720J0D01*
G02X1452280Y3921980I42718J0D01*
G37*
G36*
G01X1659740Y4275720D02*
G03X1677260I8760J5149D01*
G02X1786740I54740J-32217D01*
G03X1804260I8760J5149D01*
G02X1859000Y4307020I54740J-32217D01*
G02X1922520Y4243500I0J-63520D01*
G02X1891220Y4188760I-63517J0D01*
G03Y4171240I5149J-8760D01*
G02X1922520Y4116500I-32217J-54740D01*
G02X1859000Y4052980I-63520J0D01*
G02X1804260Y4084280I0J63517D01*
G03X1786740I-8760J-5149D01*
G02X1677260I-54740J32217D01*
G03X1659740I-8760J-5149D01*
G02X1550260I-54740J32217D01*
G03X1532740I-8760J-5149D01*
G02X1478000Y4052980I-54740J32217D01*
G02X1423920Y4083170I0J63532D01*
G01X1422440Y4085590D01*
X1414520D01*
Y4065700D01*
G02X1401800Y4052980I-12720J0D01*
G01X1300200D01*
G02X1287480Y4065700I0J12720D01*
G01Y4167300D01*
G02X1300200Y4180020I12720J0D01*
G01X1320090D01*
Y4187940D01*
X1317670Y4189420D01*
G02X1287480Y4243500I33342J54080D01*
G02X1351000Y4307020I63520J0D01*
G02X1405740Y4275720I0J-63517D01*
G03X1423260I8760J5149D01*
G02X1532740I54740J-32217D01*
G03X1550260I8760J5149D01*
G02X1659740I54740J-32217D01*
G37*
G36*
G01X155520Y4347720D02*
G02X224480I34480J-25218D01*
G01X350520D01*
G02X385000Y4365220I34480J-25218D01*
G02Y4279780I0J-42720D01*
G02X350520Y4297280I0J42718D01*
G01X224480D01*
G02X155520I-34480J25218D01*
G01X29480D01*
G02X-39480I-34480J25218D01*
G01X-97050D01*
X-132730Y4261610D01*
X-132490Y4259210D01*
G02X-132280Y4255000I-42509J-4231D01*
G02X-175000Y4297720I-42720J0D01*
G02X-170790Y4297510I-21J-42719D01*
G01X-168390Y4297270D01*
X-125330Y4340330D01*
G02X-107500Y4347720I17836J-17828D01*
G01X-39480D01*
G02X29480I34480J-25218D01*
G01X155520D01*
G37*
G36*
G01X-1967270Y4436610D02*
X-2063390Y4532730D01*
X-2065790Y4532490D01*
G02X-2070000Y4532280I-4231J42509D01*
G02X-2027280Y4575000I0J42720D01*
G02X-2027490Y4570790I-42719J21D01*
G01X-2027730Y4568390D01*
X-1931610Y4472270D01*
X-1929210Y4472510D01*
G02X-1925000Y4472720I4231J-42509D01*
G02X-1967720Y4430000I0J-42720D01*
G02X-1967510Y4434210I42719J-21D01*
G01X-1967270Y4436610D01*
G37*
G36*
G01X-792270Y4571610D02*
X-878460Y4657790D01*
X-880880Y4657530D01*
G02X-885500Y4657280I-4615J42470D01*
G02X-842780Y4700000I0J42720D01*
G02X-842950Y4696190I-42720J-3D01*
G01X-843160Y4693830D01*
X-756610Y4607270D01*
X-754210Y4607510D01*
G02X-750000Y4607720I4231J-42509D01*
G02X-792720Y4565000I0J-42720D01*
G02X-792510Y4569210I42719J-21D01*
G01X-792270Y4571610D01*
G37*
G54D21*
X-2245000Y4895000D03*
X-1945000D03*
G54D20*
X-3920000Y4800000D03*
X-4710000D03*
%LPD*%
G75*
G54D10*
X-5295000Y-5610000D03*
Y4685000D03*
X4705000Y-5610000D03*
X4695000Y4685000D03*
G54D11*
X-4775000Y-3320000D03*
X-4935000Y4565000D03*
X-4842500Y4662500D03*
X-4675000Y680000D03*
X-4444000Y4146000D03*
X-4345500Y4220500D03*
X-4000000Y-5325000D03*
X-3990000Y-1310000D03*
X-4205000Y4650000D03*
X-3595000Y4230000D03*
X-3695000Y4575000D03*
X-3582500Y4662500D03*
X-2983500Y4166500D03*
X-3171500D03*
X-2985000Y4670000D03*
X-2633000Y4167000D03*
X-2515000Y4165000D03*
X-2752500Y4662500D03*
X-2655000Y4580000D03*
X-2070000Y4575000D03*
X-1787000Y4088000D03*
X-1894500Y4159500D03*
X-1925000Y4430000D03*
X-1435000Y4145000D03*
X-1465000Y5000000D03*
X-1567500Y4932500D03*
X-965000Y2940000D03*
Y3125000D03*
X-1225000Y4145000D03*
Y4345000D03*
X-841000Y3934000D03*
X-753500Y4011500D03*
X-655000Y4580000D03*
X-885500Y4700000D03*
X-750000Y4565000D03*
X-295000Y3055000D03*
X-217500Y3137500D03*
X-395000Y3045000D03*
X-525000Y3175000D03*
X-475000Y4570000D03*
X-550000Y4465000D03*
X-369970Y4476500D03*
Y4406500D03*
X70000Y2650000D03*
X-127500Y2812500D03*
X-25000Y2710000D03*
X-5000Y4322500D03*
X-175000Y4255000D03*
X190000Y4322500D03*
X200950Y2600950D03*
X480000D03*
X374980Y3034950D03*
X289980D03*
X204980D03*
X374980Y2949950D03*
X289980D03*
X204980D03*
X374980Y2864950D03*
X289980D03*
X204980D03*
X305000Y3345000D03*
X520000D03*
X225000Y3632500D03*
X392500D03*
X385000Y4322500D03*
X615000Y2920000D03*
X740000Y3040000D03*
X590000D03*
X960000Y3385000D03*
Y3565000D03*
X1073500Y3796500D03*
X953000Y3702000D03*
X1590000Y2825000D03*
X1335000Y3080000D03*
X1655000Y3185000D03*
X1516660Y3270000D03*
X1605000Y3505000D03*
X1667500Y3355000D03*
X1595000Y3270000D03*
X1477500Y3887500D03*
Y3992500D03*
X1745000Y2980000D03*
X1803500Y3136000D03*
X1910000Y3897500D03*
X2420000Y2655000D03*
X2337720Y3080140D03*
X2192720D03*
X2337720Y3545140D03*
X2192720D03*
X2337720Y3390140D03*
X2192720D03*
X2337720Y3235140D03*
X2192720D03*
X2142500Y3897500D03*
X2333500Y3933500D03*
X2235000Y4040000D03*
X2337500Y4317500D03*
X2235000Y4390000D03*
X2534000Y2651000D03*
X2665000Y2655000D03*
X2627720Y3080140D03*
X2482720D03*
X2627720Y3545140D03*
X2482720D03*
X2627720Y3390140D03*
X2482720D03*
X2627720Y3235140D03*
X2482720D03*
X2787500Y3882500D03*
X2685000Y3970000D03*
X3090000Y2780000D03*
X3150000Y2955000D03*
X3429000Y2821000D03*
X3520500Y2899500D03*
X3520000Y3535000D03*
X3524000Y3386000D03*
X3429500Y3300500D03*
Y3624500D03*
X3982000Y2828000D03*
X4079500Y2899500D03*
X4350000Y2825000D03*
G54D12*
X-4710000Y4800000D03*
X-3920000D03*
G54D13*
X-3000000Y-5325000D03*
Y-3325000D03*
Y-1325000D03*
Y675000D03*
X-1000000Y-5325000D03*
Y-3325000D03*
Y-1325000D03*
Y675000D03*
X1000000Y-5325000D03*
Y-3325000D03*
Y-1325000D03*
X1010000Y675000D03*
X3000000Y-5325000D03*
Y-3325000D03*
Y-1325000D03*
Y675000D03*
G54D14*
X-2245000Y4895000D03*
X-1945000D03*
G54D15*
X1605000Y4243500D03*
Y4116500D03*
X1478000Y4243500D03*
Y4116500D03*
X1351000Y4243500D03*
X1859000Y4116500D03*
X1732000Y4243500D03*
Y4116500D03*
X1859000Y4243500D03*
G54D16*
X1351000Y4116500D03*
G54D17*
G01X-1925000Y4430000D02*
X-2070000Y4575000D01*
G01X-885500Y4700000D02*
X-885000D01*
X-750000Y4565000D01*
G01X-395000Y3045000D02*
X-525000Y3175000D01*
G01X-5000Y4322500D02*
X-107500D01*
X-175000Y4255000D01*
G01X190000Y4322500D02*
X-5000D01*
G01X225000Y3632500D02*
X392500D01*
G01X385000Y4322500D02*
X190000D01*
G01X960000Y3385000D02*
Y3565000D01*
G01X1745000Y2980000D02*
X1590000Y2825000D01*
G01X1516660Y3270000D02*
Y3261660D01*
X1335000Y3080000D01*
G01X1477500Y3992500D02*
Y3887500D01*
G01X1910000Y3897500D02*
X2142500D01*
G54D18*
G01X-4775000Y-3320000D02*
Y-3645000D01*
X-4755000Y-3665000D01*
X-2985000D01*
G01X-2987300Y325000D02*
X-4662300D01*
X-4675000Y337700D01*
Y680000D01*
G01X-2987300Y-5660000D02*
X-3987300D01*
X-4000000Y-5647300D01*
Y-5325000D01*
G01X-2987300Y-1665000D02*
X-3977300D01*
X-3990000Y-1652300D01*
Y-1310000D01*
G01X-987300Y-5660000D02*
X-2987300D01*
G01X-3000000Y-5325000D02*
Y-5647300D01*
X-2987300Y-5660000D01*
G01X-3000000Y-3325000D02*
Y-3650000D01*
X-2985000Y-3665000D01*
G01D02*
X-987300D01*
G01Y-1665000D02*
X-2987300D01*
G01X-3000000Y-1325000D02*
Y-1652300D01*
X-2987300Y-1665000D01*
G01X-987300Y325000D02*
X-2987300D01*
G01X-3000000Y675000D02*
Y337700D01*
X-2987300Y325000D01*
G01X1012700Y-5660000D02*
X-987300D01*
G01X-1000000Y-5325000D02*
Y-5647300D01*
X-987300Y-5660000D01*
G01X1012700Y-3665000D02*
X-987300D01*
G01X-1000000Y-3325000D02*
Y-3652300D01*
X-987300Y-3665000D01*
G01X1012700Y-1665000D02*
X-987300D01*
G01X-1000000Y-1325000D02*
Y-1652300D01*
X-987300Y-1665000D01*
G01X1022700Y325000D02*
X-987300D01*
G01X-1000000Y675000D02*
Y337700D01*
X-987300Y325000D01*
G01X-965000Y2940000D02*
Y3125000D01*
G01X-127500Y2812500D02*
X-25000Y2710000D01*
G01X200950Y2600950D02*
X480000D01*
G01X305000Y3345000D02*
X520000D01*
G01X740000Y3040000D02*
X590000D01*
G01X1000000Y-5325000D02*
Y-5647300D01*
X1012700Y-5660000D01*
G01X3000000Y-5325000D02*
Y-5647300D01*
X2987300Y-5660000D01*
X1012700D01*
G01X1000000Y-3325000D02*
Y-3652300D01*
X1012700Y-3665000D01*
G01X3000000Y-3325000D02*
Y-3652300D01*
X2987300Y-3665000D01*
X1012700D01*
G01X1000000Y-1325000D02*
Y-1652300D01*
X1012700Y-1665000D01*
G01X3000000Y-1325000D02*
Y-1652300D01*
X2987300Y-1665000D01*
X1012700D01*
G01X3000000Y675000D02*
Y337700D01*
X2987300Y325000D01*
X1022700D01*
G01X1010000Y675000D02*
Y337700D01*
X1022700Y325000D01*
G01X1478000Y4047900D02*
Y4116500D01*
G01X1605000Y4047900D02*
Y4116500D01*
G01X1859000Y4047900D02*
Y4116500D01*
G01D02*
X1927600D01*
G54D19*
G01X5000000Y-6005000D02*
Y5040000D01*
X-5600000D01*
Y-6005000D01*
X5000000D01*
M02*
