M48
METRIC,TZ
T01C.3
T02C.7
T03C.7112
T04C.8999
;LEADER: 12 
;HEADER: 
;CODE  : ASCII 
;FILE  : LAUNCHPAD-1-2.drl for  ... layers TOP and BOTTOM
;DESIGN: LAUNCHPAD.brd
;T01 Holesize 1. = 0.300000 Tolerance = +0.000000/-0.000000 PLATED MM Quantity = 127
;T02 Holesize 2. = 0.700000 Tolerance = +0.000000/-0.000000 PLATED MM Quantity = 2
;T03 Holesize 3. = 0.711200 Tolerance = +0.000000/-0.000000 PLATED MM Quantity = 10
%
G90
T01
X-30000Y-53250
X-30000Y-33250
X-40000Y-53250
X-47750Y-33200
X-30000Y-13250
X-30000Y6750
X-20700Y45750
X-19250Y44300
X-39900Y-13100
X-26550Y45800
X-27525Y46625
X-15675Y49325
X-35950Y42300
X-29850Y46700
X-42050Y46500
X-18945Y41595
X-17870Y40880
X-25150Y41650
X-26330Y41670
X-31715Y41665
X-29835Y41665
X-35825Y46625
X-36950Y45750
X-43455Y42205
X-44440Y41460
X-48425Y46625
X-49350Y45650
X-46750Y6800
X30000Y-13250
X10000Y-13250
X-10000Y-13250
X30000Y6750
X10100Y6750
X-10000Y6750
X-7500Y45650
X-8855Y47000
X1900Y43225
X-1750Y42550
X-50Y43225
X3850Y43225
X5400Y35500
X5400Y33300
X-1850Y32500
X-825Y31425
X5550Y27450
X-850Y29950
X-14650Y50000
X31500Y29550
X-12250Y41450
X-14350Y41450
X-12250Y43450
X26650Y26550
X30900Y27800
X-2900Y29550
X-3700Y44065
X-3700Y44765
X-7535Y40115
X-8410Y39340
X43500Y28250
X21927Y30801
X23377Y30801
X24827Y30801
X26277Y30801
X21927Y32351
X23377Y32351
X24827Y32351
X26277Y32351
X21927Y33901
X23377Y33901
X24827Y33901
X26277Y33901
X21927Y35451
X23377Y35451
X24827Y35451
X26277Y35451
X2050Y28650
X2900Y28650
X3750Y28650
X2050Y29500
X2900Y29500
X3750Y29500
X2050Y30349
X2900Y30349
X3750Y30349
X6150Y29200
X700Y26500
X40795Y28995
X39820Y28280
X35205Y28995
X34290Y28210
X25340Y26510
X24200Y26550
X18035Y29510
X18035Y31360
X16560Y31475
X34295Y33005
X35240Y33860
X34295Y36245
X35200Y35350
X26850Y38825
X23335Y39335
X22350Y40400
X19435Y39615
X20590Y40690
X9530Y37020
X10735Y37965
X-5500Y44650
X-4750Y45700
X-6550Y45800
X1850Y26350
X6350Y26350
X1800Y32400
X6950Y32400
X500Y32950
X6650Y30650
X17025Y30225
X15475Y28675
X22400Y38050
X19385Y31360
X24250Y28600
X19385Y29510
X30000Y-53250
X10000Y-53250
X-10000Y-53250
X30000Y-33250
X10000Y-33250
X-10000Y-33250
T02
X-39200Y48000
X-47100Y48000
T03
X16990Y41785
X11910Y40515
X16990Y40515
X15720Y41785
X15720Y40515
X14450Y41785
X14450Y40515
X13180Y41785
X13180Y40515
X11910Y41785
M30
