M48
METRIC,TZ
T01C.0001
;EXTENTS: -100.000 -100.000 100.000 100.000 
;LEADER: 12 
;HEADER: 
;CODE  : ASCII 
;FILE  : C:/Users/Andreaa/ESE/Launchpad/allegro/LAUNCHPAD_1-2.rou for board C:/Users/Andreaa/ESE/Launchpad/allegro/#Taaaaar17616.tmp, layers TOP to BOTTOM
%
G90
F1
M16
T01
M16
G00X-39550Y48650
M15
G01X-39550Y47350
G01X-38850Y47350
G01X-38850Y48650
G01X-39550Y48650
M16
G00X-47450Y48650
M15
G01X-47450Y47350
G01X-46750Y47350
G01X-46750Y48650
G01X-47450Y48650
M16
G00X-38250Y49450
M15
G01X-39825Y49450
G01X-40325Y48950
G01X-40325Y48300
M16
G00X-41225Y48300
M15
G01X-41225Y48950
G01X-41725Y49450
G01X-44575Y49450
G01X-45075Y48950
G01X-45075Y48300
M16
G00X-48050Y49450
M15
G01X-46475Y49450
G01X-45975Y48950
G01X-45975Y48300
M16
G40
M30
