G04 ================== begin FILE IDENTIFICATION RECORD ==================*
G04 Layout Name:  C:/Users/Andreaa/ESE/Launchpad/allegro/LAUNCHPAD.brd*
G04 Film Name:    SILK_TOP*
G04 File Format:  Gerber RS274X*
G04 File Origin:  Cadence Allegro 17.2-S071*
G04 Origin Date:  Wed Jan 20 14:00:51 2021*
G04 *
G04 Layer:  USER PART NUMBER/SILKSCREEN_TOP*
G04 Layer:  TOLERANCE/SILKSCREEN_TOP*
G04 Layer:  REF DES/SILKSCREEN_TOP*
G04 Layer:  PACKAGE GEOMETRY/SILKSCREEN_TOP*
G04 Layer:  DEVICE TYPE/SILKSCREEN_TOP*
G04 Layer:  COMPONENT VALUE/SILKSCREEN_TOP*
G04 Layer:  BOARD GEOMETRY/SILKSCREEN_TOP*
G04 Layer:  BOARD GEOMETRY/DESIGN_OUTLINE*
G04 *
G04 Offset:    (0.0000 0.0000)*
G04 Mirror:    No*
G04 Mode:      Positive*
G04 Rotation:  0*
G04 FullContactRelief:  No*
G04 UndefLineWidth:     0.1250*
G04 ================== end FILE IDENTIFICATION RECORD ====================*
%FSLAX25Y25*MOMM*%
%IR0*IPPOS*OFA0.00000B0.00000*MIA0B0*SFA1.00000B1.00000*%
%ADD10C,.2*%
%ADD11C,.225*%
%ADD12C,.127*%
%ADD13C,.254*%
%ADD14C,.1524*%
%ADD15C,.125*%
G75*
%LPD*%
G75*
G36*
G01X-3560000Y4300000D02*
G03I-30000J0D01*
G37*
G36*
G01X-2702500Y4059000D02*
G03I-10000J0D01*
G37*
G36*
G01X-420000Y4365000D02*
G03I-20000J0D01*
G37*
G36*
G01X2715700Y3037200D02*
G03I-20000J0D01*
G37*
G36*
G01X2860000Y2825000D02*
G03I-10000J0D01*
G37*
G36*
G01X3094000Y3276000D02*
G03I-10000J0D01*
G37*
G54D10*
G01X-4435000Y4405000D02*
G03I-10000J0D01*
G01X-1440000Y4095000D02*
Y4395000D01*
G01X-1210000Y4095000D02*
X-1440000D01*
G01X-1615000Y4395000D02*
X-1475000D01*
G01X-1440000D02*
X-1210000D01*
G01D02*
Y4095000D01*
G54D11*
G01X63800Y3152500D02*
G02I-11250J0D01*
G54D12*
G01X-4725000Y4653000D02*
Y4500000D01*
X-4663000D01*
G01X-4655000Y4945000D02*
X-4725000D01*
G01X-4185000D02*
X-4445000D01*
G01X-3905000D02*
X-3975000D01*
G01X-3905000Y4653000D02*
Y4500000D01*
X-3967000D01*
G01X-2430000Y4865000D02*
Y4925000D01*
G01X-1805000Y5025000D02*
X-2385000D01*
G01X-1935000Y4765000D02*
X-2105000D01*
G01X-1760000Y4925000D02*
Y4865000D01*
G54D13*
G01X-3235000Y4789700D02*
Y4555000D01*
X-3145000D01*
G01X-2835000Y4776300D02*
Y4555000D01*
X-2920500D01*
G01X-2958300Y4980000D02*
X-3107200D01*
G54D14*
G01X1267500Y4030000D02*
Y4330000D01*
X1942500D01*
Y4030000D01*
X1267500D01*
G54D15*
G01X5000000Y-6005000D02*
Y5040000D01*
X-5600000D01*
Y-6005000D01*
X5000000D01*
G01X-5473070Y-2454480D02*
X-5483650Y-2467350D01*
X-5490000Y-2481830D01*
Y-2494690D01*
X-5483650Y-2507560D01*
X-5473070Y-2517220D01*
X-5458250Y-2522040D01*
X-5443440Y-2518830D01*
X-5430730Y-2510780D01*
X-5422270Y-2496300D01*
X-5418030Y-2477000D01*
X-5409570Y-2465740D01*
X-5394750Y-2460910D01*
X-5379930Y-2464130D01*
X-5369350Y-2472170D01*
X-5363000Y-2483430D01*
Y-2494690D01*
X-5367230Y-2505960D01*
X-5377820Y-2515610D01*
G01X-5384170Y-2587230D02*
X-5371470Y-2596890D01*
X-5365120Y-2608150D01*
X-5363000Y-2621020D01*
X-5367230Y-2637100D01*
X-5377820Y-2648370D01*
X-5390510Y-2651580D01*
X-5403220Y-2649970D01*
X-5413800Y-2643540D01*
X-5434970Y-2611370D01*
X-5449780Y-2596890D01*
X-5470950Y-2587230D01*
X-5490000Y-2584020D01*
Y-2651580D01*
G01X-5437090Y-2716770D02*
X-5422270Y-2728040D01*
X-5413800Y-2737690D01*
X-5409570Y-2750560D01*
X-5413800Y-2761820D01*
X-5422270Y-2769860D01*
X-5434970Y-2776300D01*
X-5449780Y-2777910D01*
X-5462490Y-2776300D01*
X-5475190Y-2769860D01*
X-5485770Y-2760210D01*
X-5490000Y-2748950D01*
X-5485770Y-2736080D01*
X-5473070Y-2724820D01*
X-5454020Y-2718380D01*
X-5432850Y-2716770D01*
X-5405340Y-2719990D01*
X-5390510Y-2724820D01*
X-5375700Y-2732860D01*
X-5365120Y-2744120D01*
X-5363000Y-2755380D01*
X-5367230Y-2766640D01*
X-5377820Y-2774690D01*
G01X-5490000Y-2873660D02*
X-5462490Y-2876880D01*
X-5439200Y-2881710D01*
X-5418030Y-2888140D01*
X-5394750Y-2896180D01*
X-5363000Y-2909050D01*
Y-2844710D01*
G01X-5470950Y-2971030D02*
X-5481540Y-2980680D01*
X-5487880Y-2991940D01*
X-5490000Y-3006420D01*
X-5485770Y-3020900D01*
X-5477300Y-3032160D01*
X-5462490Y-3040200D01*
X-5445550Y-3041810D01*
X-5428620Y-3038590D01*
X-5418030Y-3030550D01*
X-5409570Y-3019290D01*
X-5407450Y-3008030D01*
X-5409570Y-2996770D01*
X-5418030Y-2982290D01*
X-5363000Y-2987120D01*
Y-3030550D01*
G01X-5475190Y-3108610D02*
X-5485770Y-3119870D01*
X-5490000Y-3132740D01*
X-5485770Y-3145610D01*
X-5473070Y-3156870D01*
X-5454020Y-3164920D01*
X-5434970Y-3168130D01*
X-5411680D01*
X-5392630Y-3164920D01*
X-5375700Y-3156870D01*
X-5367230Y-3147220D01*
X-5363000Y-3135960D01*
X-5367230Y-3123090D01*
X-5375700Y-3113440D01*
X-5388400Y-3107000D01*
X-5405340Y-3103790D01*
X-5420150Y-3107000D01*
X-5434970Y-3115050D01*
X-5443440Y-3124700D01*
X-5445550Y-3135960D01*
X-5441320Y-3148830D01*
X-5430730Y-3158480D01*
X-5411680Y-3168130D01*
G01X-5490000Y-3262280D02*
X-5462490Y-3265500D01*
X-5439200Y-3270330D01*
X-5418030Y-3276760D01*
X-5394750Y-3284800D01*
X-5363000Y-3297670D01*
Y-3233330D01*
G01X-5483070Y-389480D02*
X-5493650Y-402350D01*
X-5500000Y-416830D01*
Y-429690D01*
X-5493650Y-442560D01*
X-5483070Y-452220D01*
X-5468250Y-457040D01*
X-5453440Y-453830D01*
X-5440730Y-445780D01*
X-5432270Y-431300D01*
X-5428030Y-412000D01*
X-5419570Y-400740D01*
X-5404750Y-395910D01*
X-5389930Y-399130D01*
X-5379350Y-407170D01*
X-5373000Y-418430D01*
Y-429690D01*
X-5377230Y-440960D01*
X-5387820Y-450610D01*
G01X-5394170Y-522230D02*
X-5381470Y-531890D01*
X-5375120Y-543150D01*
X-5373000Y-556020D01*
X-5377230Y-572100D01*
X-5387820Y-583370D01*
X-5400510Y-586580D01*
X-5413220Y-584970D01*
X-5423800Y-578540D01*
X-5444970Y-546370D01*
X-5459780Y-531890D01*
X-5480950Y-522230D01*
X-5500000Y-519020D01*
Y-586580D01*
G01Y-679120D02*
X-5472490Y-682340D01*
X-5449200Y-687170D01*
X-5428030Y-693600D01*
X-5404750Y-701640D01*
X-5373000Y-714510D01*
Y-650170D01*
G01X-5394170Y-781310D02*
X-5381470Y-790970D01*
X-5375120Y-802230D01*
X-5373000Y-815100D01*
X-5377230Y-831180D01*
X-5387820Y-842450D01*
X-5400510Y-845660D01*
X-5413220Y-844050D01*
X-5423800Y-837620D01*
X-5444970Y-805450D01*
X-5459780Y-790970D01*
X-5480950Y-781310D01*
X-5500000Y-778100D01*
Y-845660D01*
G01X-5480950Y-906030D02*
X-5491540Y-915680D01*
X-5497880Y-926940D01*
X-5500000Y-941420D01*
X-5495770Y-955900D01*
X-5487300Y-967160D01*
X-5472490Y-975200D01*
X-5455550Y-976810D01*
X-5438620Y-973590D01*
X-5428030Y-965550D01*
X-5419570Y-954290D01*
X-5417450Y-943030D01*
X-5419570Y-931770D01*
X-5428030Y-917290D01*
X-5373000Y-922120D01*
Y-965550D01*
G01X-5485190Y-1043610D02*
X-5495770Y-1054870D01*
X-5500000Y-1067740D01*
X-5495770Y-1080610D01*
X-5483070Y-1091870D01*
X-5464020Y-1099920D01*
X-5444970Y-1103130D01*
X-5421680D01*
X-5402630Y-1099920D01*
X-5385700Y-1091870D01*
X-5377230Y-1082220D01*
X-5373000Y-1070960D01*
X-5377230Y-1058090D01*
X-5385700Y-1048440D01*
X-5398400Y-1042000D01*
X-5415340Y-1038790D01*
X-5430150Y-1042000D01*
X-5444970Y-1050050D01*
X-5453440Y-1059700D01*
X-5455550Y-1070960D01*
X-5451320Y-1083830D01*
X-5440730Y-1093480D01*
X-5421680Y-1103130D01*
G01X-5500000Y-1197280D02*
X-5472490Y-1200500D01*
X-5449200Y-1205330D01*
X-5428030Y-1211760D01*
X-5404750Y-1219800D01*
X-5373000Y-1232670D01*
Y-1168330D01*
G01X-5473070Y1975520D02*
X-5483650Y1962650D01*
X-5490000Y1948170D01*
Y1935310D01*
X-5483650Y1922440D01*
X-5473070Y1912780D01*
X-5458250Y1907960D01*
X-5443440Y1911170D01*
X-5430730Y1919220D01*
X-5422270Y1933700D01*
X-5418030Y1953000D01*
X-5409570Y1964260D01*
X-5394750Y1969090D01*
X-5379930Y1965870D01*
X-5369350Y1957830D01*
X-5363000Y1946570D01*
Y1935310D01*
X-5367230Y1924040D01*
X-5377820Y1914390D01*
G01X-5384170Y1842770D02*
X-5371470Y1833110D01*
X-5365120Y1821850D01*
X-5363000Y1808980D01*
X-5367230Y1792900D01*
X-5377820Y1781630D01*
X-5390510Y1778420D01*
X-5403220Y1780030D01*
X-5413800Y1786460D01*
X-5434970Y1818630D01*
X-5449780Y1833110D01*
X-5470950Y1842770D01*
X-5490000Y1845980D01*
Y1778420D01*
G01Y1685880D02*
X-5462490Y1682660D01*
X-5439200Y1677830D01*
X-5418030Y1671400D01*
X-5394750Y1663360D01*
X-5363000Y1650490D01*
Y1714830D01*
G01X-5490000Y1556340D02*
X-5462490Y1553120D01*
X-5439200Y1548290D01*
X-5418030Y1541860D01*
X-5394750Y1533820D01*
X-5363000Y1520950D01*
Y1585290D01*
G01X-5475190Y1450930D02*
X-5485770Y1439670D01*
X-5490000Y1426800D01*
X-5485770Y1413930D01*
X-5473070Y1402670D01*
X-5454020Y1394620D01*
X-5434970Y1391410D01*
X-5411680D01*
X-5392630Y1394620D01*
X-5375700Y1402670D01*
X-5367230Y1412320D01*
X-5363000Y1423580D01*
X-5367230Y1436450D01*
X-5375700Y1446100D01*
X-5388400Y1452540D01*
X-5405340Y1455750D01*
X-5420150Y1452540D01*
X-5434970Y1444490D01*
X-5443440Y1434840D01*
X-5445550Y1423580D01*
X-5441320Y1410710D01*
X-5430730Y1401060D01*
X-5411680Y1391410D01*
G01X-5490000Y1274740D02*
X-5363000D01*
X-5454020Y1334260D01*
Y1253820D01*
G01X-5490000Y1164500D02*
X-5363000D01*
X-5388400Y1183800D01*
G01X-5490000D02*
Y1145200D01*
G01X-5143000Y4156740D02*
X-5270000D01*
G01X-5143000Y4193740D02*
Y4119740D01*
G01X-5270000Y4027200D02*
X-5267880Y4036850D01*
X-5259420Y4046500D01*
X-5244600Y4052940D01*
X-5227670Y4056160D01*
X-5210730Y4052940D01*
X-5195920Y4046500D01*
X-5187450Y4036850D01*
X-5185340Y4027200D01*
X-5187450Y4017550D01*
X-5195920Y4007900D01*
X-5210730Y4001460D01*
X-5227670Y3999850D01*
X-5244600Y4001460D01*
X-5259420Y4007900D01*
X-5267880Y4017550D01*
X-5270000Y4027200D01*
G01X-5185340Y3925010D02*
X-5244600D01*
X-5259420Y3918570D01*
X-5267880Y3908920D01*
X-5270000Y3897660D01*
X-5267880Y3886400D01*
X-5259420Y3876750D01*
X-5244600Y3870310D01*
G01X-5270000D02*
X-5185340D01*
G01X-5195920Y3742380D02*
X-5187450Y3753640D01*
X-5185340Y3763290D01*
X-5189570Y3776160D01*
X-5198030Y3785820D01*
X-5212850Y3792250D01*
X-5227670Y3793860D01*
X-5242490Y3792250D01*
X-5255190Y3785820D01*
X-5265770Y3776160D01*
X-5270000Y3763290D01*
X-5265770Y3752030D01*
X-5257300Y3742380D01*
G01X-5270000Y3665930D02*
X-5143000D01*
G01X-5204380D02*
X-5193800Y3657880D01*
X-5187450Y3649840D01*
X-5185340Y3636970D01*
X-5187450Y3627320D01*
X-5195920Y3616060D01*
X-5208620Y3611230D01*
X-5270000D01*
G01X-5312330Y3460780D02*
X-5185340Y3541210D01*
X-5164170D01*
X-5143000Y3525130D01*
Y3509040D01*
X-5164170Y3492950D01*
X-5185340D01*
X-5206500Y3509040D01*
X-5227670Y3541210D01*
X-5248830Y3557300D01*
X-5291170D01*
X-5312330Y3541210D01*
Y3492950D01*
X-5270000Y3460780D01*
G01Y3411670D02*
X-5143000D01*
Y3373070D01*
X-5149350Y3360200D01*
X-5164170Y3350540D01*
X-5181100Y3347330D01*
X-5198030Y3350540D01*
X-5210730Y3358590D01*
X-5217090Y3373070D01*
Y3411670D01*
G01X-5270000Y3249960D02*
X-5143000D01*
G01X-5270000Y3091460D02*
X-5185340D01*
G01X-5200150D02*
X-5191680Y3097900D01*
X-5187450Y3107550D01*
X-5185340Y3118810D01*
X-5189570Y3130070D01*
X-5198030Y3139720D01*
X-5210730Y3146160D01*
X-5227670Y3149380D01*
X-5244600Y3146160D01*
X-5257300Y3139720D01*
X-5265770Y3130070D01*
X-5270000Y3118810D01*
X-5267880Y3107550D01*
X-5261540Y3097900D01*
X-5253070Y3091460D01*
G01X-5308100Y3024660D02*
X-5312330Y3015010D01*
X-5308100Y3002140D01*
X-5299630Y2994100D01*
X-5289050Y2987660D01*
X-5255190Y2978010D01*
X-5185340Y2957100D01*
G01Y3008580D02*
X-5255190Y2978010D01*
G01X-5227670Y2752710D02*
Y2710890D01*
G01X-5270000Y2383400D02*
X-5143000Y2343180D01*
X-5270000Y2302960D01*
G01X-5225550Y2317440D02*
Y2368920D01*
G01X-5270000Y2240990D02*
X-5185340D01*
G01X-5206500D02*
X-5195920Y2234550D01*
X-5187450Y2224900D01*
X-5185340Y2212030D01*
X-5187450Y2200770D01*
X-5195920Y2191120D01*
X-5210730Y2186290D01*
X-5270000D01*
G01X-5143000Y2055140D02*
X-5270000D01*
G01X-5250950D02*
X-5261540Y2061580D01*
X-5267880Y2071230D01*
X-5270000Y2082490D01*
X-5265770Y2095360D01*
X-5255190Y2105010D01*
X-5242490Y2111450D01*
X-5227670Y2113060D01*
X-5212850Y2111450D01*
X-5200150Y2105010D01*
X-5189570Y2095360D01*
X-5185340Y2082490D01*
X-5187450Y2071230D01*
X-5191680Y2063190D01*
X-5200150Y2055140D01*
G01X-5270000Y1977080D02*
X-5185340D01*
G01X-5202270D02*
X-5193800Y1969040D01*
X-5187450Y1960990D01*
X-5185340Y1949730D01*
X-5187450Y1941690D01*
X-5193800Y1932040D01*
G01X-5212850Y1849150D02*
Y1797670D01*
X-5198030Y1802500D01*
X-5189570Y1810540D01*
X-5185340Y1821800D01*
X-5187450Y1833060D01*
X-5193800Y1842720D01*
X-5208620Y1849150D01*
X-5221320Y1852370D01*
X-5234020D01*
X-5246720Y1849150D01*
X-5259420Y1841110D01*
X-5267880Y1831450D01*
X-5270000Y1820190D01*
X-5265770Y1808930D01*
X-5253070Y1797670D01*
G01X-5270000Y1666520D02*
X-5185340D01*
G01X-5200150D02*
X-5191680Y1672960D01*
X-5187450Y1682610D01*
X-5185340Y1693870D01*
X-5189570Y1705130D01*
X-5198030Y1714780D01*
X-5210730Y1721220D01*
X-5227670Y1724440D01*
X-5244600Y1721220D01*
X-5257300Y1714780D01*
X-5265770Y1705130D01*
X-5270000Y1693870D01*
X-5267880Y1682610D01*
X-5261540Y1672960D01*
X-5253070Y1666520D01*
G01X-5270000Y1468570D02*
X-5143000D01*
Y1428360D01*
X-5149350Y1415490D01*
X-5157820Y1407440D01*
X-5174750Y1404230D01*
X-5191680Y1407440D01*
X-5202270Y1417100D01*
X-5208620Y1428360D01*
Y1468570D01*
G01Y1428360D02*
X-5270000Y1404230D01*
G01X-5185340Y1334210D02*
X-5244600D01*
X-5259420Y1327770D01*
X-5267880Y1318120D01*
X-5270000Y1306860D01*
X-5267880Y1295600D01*
X-5259420Y1285950D01*
X-5244600Y1279510D01*
G01X-5270000D02*
X-5185340D01*
G01X-5255190Y1201450D02*
X-5263650Y1193410D01*
X-5270000Y1182150D01*
Y1172490D01*
X-5265770Y1162840D01*
X-5259420Y1156410D01*
X-5250950Y1153190D01*
X-5238250Y1154800D01*
X-5231900Y1161230D01*
X-5219200Y1190190D01*
X-5204380Y1196620D01*
X-5193800Y1193410D01*
X-5187450Y1186970D01*
X-5185340Y1177320D01*
X-5187450Y1167670D01*
X-5193800Y1158020D01*
G01X-5255190Y1071910D02*
X-5263650Y1063870D01*
X-5270000Y1052610D01*
Y1042950D01*
X-5265770Y1033300D01*
X-5259420Y1026870D01*
X-5250950Y1023650D01*
X-5238250Y1025260D01*
X-5231900Y1031690D01*
X-5219200Y1060650D01*
X-5204380Y1067080D01*
X-5193800Y1063870D01*
X-5187450Y1057430D01*
X-5185340Y1047780D01*
X-5187450Y1038130D01*
X-5193800Y1028480D01*
G01X-5270000Y918240D02*
X-5267880Y927890D01*
X-5259420Y937540D01*
X-5244600Y943980D01*
X-5227670Y947200D01*
X-5210730Y943980D01*
X-5195920Y937540D01*
X-5187450Y927890D01*
X-5185340Y918240D01*
X-5187450Y908590D01*
X-5195920Y898940D01*
X-5210730Y892500D01*
X-5227670Y890890D01*
X-5244600Y892500D01*
X-5259420Y898940D01*
X-5267880Y908590D01*
X-5270000Y918240D01*
G01X-5293280Y791920D02*
X-5265770Y785480D01*
G01X-5206500Y519970D02*
Y487790D01*
X-5244600D01*
X-5257300Y497450D01*
X-5265770Y508710D01*
X-5270000Y524790D01*
X-5265770Y540880D01*
X-5257300Y552140D01*
X-5244600Y561790D01*
X-5229780Y568230D01*
X-5212850Y571450D01*
X-5198030D01*
X-5185340Y568230D01*
X-5170510Y561790D01*
X-5157820Y552140D01*
X-5149350Y542490D01*
X-5143000Y529620D01*
Y518360D01*
X-5147230Y505490D01*
X-5155700Y495840D01*
G01X-5185340Y400080D02*
X-5270000D01*
G01X-5151470D02*
X-5149350Y403300D01*
X-5145120D01*
X-5143000Y400080D01*
X-5145120Y396860D01*
X-5149350D01*
X-5151470Y400080D01*
G01X-5270000Y241580D02*
X-5185340D01*
G01X-5200150D02*
X-5191680Y248020D01*
X-5187450Y257670D01*
X-5185340Y268930D01*
X-5189570Y280190D01*
X-5198030Y289840D01*
X-5210730Y296280D01*
X-5227670Y299500D01*
X-5244600Y296280D01*
X-5257300Y289840D01*
X-5265770Y280190D01*
X-5270000Y268930D01*
X-5267880Y257670D01*
X-5261540Y248020D01*
X-5253070Y241580D01*
G01X-5270000Y168350D02*
X-5185340D01*
G01X-5206500D02*
X-5195920Y161910D01*
X-5187450Y152260D01*
X-5185340Y139390D01*
X-5187450Y128130D01*
X-5195920Y118480D01*
X-5210730Y113650D01*
X-5270000D01*
G01Y59720D02*
X-5185340D01*
G01X-5208620D02*
X-5198030Y54900D01*
X-5189570Y46850D01*
X-5185340Y35590D01*
X-5189570Y24330D01*
X-5198030Y16290D01*
X-5208620Y11460D01*
X-5270000D01*
G01X-5208620D02*
X-5198030Y6630D01*
X-5189570Y-1410D01*
X-5185340Y-12670D01*
X-5189570Y-23930D01*
X-5198030Y-31980D01*
X-5210730Y-36800D01*
X-5270000D01*
G01Y-147040D02*
X-5185340D01*
G01X-5200150D02*
X-5191680Y-140600D01*
X-5187450Y-130950D01*
X-5185340Y-119690D01*
X-5189570Y-108430D01*
X-5198030Y-98780D01*
X-5210730Y-92340D01*
X-5227670Y-89120D01*
X-5244600Y-92340D01*
X-5257300Y-98780D01*
X-5265770Y-108430D01*
X-5270000Y-119690D01*
X-5267880Y-130950D01*
X-5261540Y-140600D01*
X-5253070Y-147040D01*
G01X-5270000Y-225100D02*
X-5185340D01*
G01X-5202270D02*
X-5193800Y-233140D01*
X-5187450Y-241190D01*
X-5185340Y-252450D01*
X-5187450Y-260490D01*
X-5193800Y-270140D01*
G01X-5195920Y-402900D02*
X-5187450Y-391640D01*
X-5185340Y-381990D01*
X-5189570Y-369120D01*
X-5198030Y-359460D01*
X-5212850Y-353030D01*
X-5227670Y-351420D01*
X-5242490Y-353030D01*
X-5255190Y-359460D01*
X-5265770Y-369120D01*
X-5270000Y-381990D01*
X-5265770Y-393250D01*
X-5257300Y-402900D01*
G01X-5270000Y-506700D02*
X-5267880Y-497050D01*
X-5259420Y-487400D01*
X-5244600Y-480960D01*
X-5227670Y-477740D01*
X-5210730Y-480960D01*
X-5195920Y-487400D01*
X-5187450Y-497050D01*
X-5185340Y-506700D01*
X-5187450Y-516350D01*
X-5195920Y-526000D01*
X-5210730Y-532440D01*
X-5227670Y-534050D01*
X-5244600Y-532440D01*
X-5259420Y-526000D01*
X-5267880Y-516350D01*
X-5270000Y-506700D01*
G01Y-723950D02*
X-5143000D01*
X-5248830Y-765780D01*
X-5143000Y-807610D01*
X-5270000D01*
G01Y-895320D02*
X-5267880Y-885670D01*
X-5259420Y-876020D01*
X-5244600Y-869580D01*
X-5227670Y-866360D01*
X-5210730Y-869580D01*
X-5195920Y-876020D01*
X-5187450Y-885670D01*
X-5185340Y-895320D01*
X-5187450Y-904970D01*
X-5195920Y-914620D01*
X-5210730Y-921060D01*
X-5227670Y-922670D01*
X-5244600Y-921060D01*
X-5259420Y-914620D01*
X-5267880Y-904970D01*
X-5270000Y-895320D01*
G01Y-997510D02*
X-5185340D01*
G01X-5206500D02*
X-5195920Y-1003950D01*
X-5187450Y-1013600D01*
X-5185340Y-1026470D01*
X-5187450Y-1037730D01*
X-5195920Y-1047380D01*
X-5210730Y-1052210D01*
X-5270000D01*
G01X-5301750Y-1131880D02*
X-5310220Y-1143140D01*
X-5312330Y-1156010D01*
X-5310220Y-1167270D01*
X-5299630Y-1176920D01*
X-5284820Y-1183360D01*
X-5185340D01*
G01X-5202270D02*
X-5193800Y-1176920D01*
X-5187450Y-1167270D01*
X-5185340Y-1156010D01*
X-5189570Y-1143140D01*
X-5198030Y-1135100D01*
X-5212850Y-1128660D01*
X-5227670Y-1125440D01*
X-5240370Y-1127050D01*
X-5255190Y-1133490D01*
X-5265770Y-1143140D01*
X-5270000Y-1156010D01*
X-5267880Y-1165660D01*
X-5259420Y-1176920D01*
X-5250950Y-1183360D01*
G01X-5212850Y-1259810D02*
Y-1311290D01*
X-5198030Y-1306460D01*
X-5189570Y-1298420D01*
X-5185340Y-1287160D01*
X-5187450Y-1275900D01*
X-5193800Y-1266240D01*
X-5208620Y-1259810D01*
X-5221320Y-1256590D01*
X-5234020D01*
X-5246720Y-1259810D01*
X-5259420Y-1267850D01*
X-5267880Y-1277510D01*
X-5270000Y-1288770D01*
X-5265770Y-1300030D01*
X-5253070Y-1311290D01*
G01X-5270000Y-1413480D02*
X-5143000D01*
G01X-5270000Y-1543020D02*
X-5143000D01*
G01X-5185340Y-1672560D02*
X-5270000D01*
G01X-5151470D02*
X-5149350Y-1669340D01*
X-5145120D01*
X-5143000Y-1672560D01*
X-5145120Y-1675780D01*
X-5149350D01*
X-5151470Y-1672560D01*
G01X-5293280Y-1798880D02*
X-5265770Y-1805320D01*
G01X-5270000Y-2030610D02*
X-5143000D01*
Y-2091750D01*
G01X-5204380Y-2069220D02*
Y-2030610D01*
G01X-5270000Y-2168200D02*
X-5185340D01*
G01X-5202270D02*
X-5193800Y-2176240D01*
X-5187450Y-2184290D01*
X-5185340Y-2195550D01*
X-5187450Y-2203590D01*
X-5193800Y-2213240D01*
G01X-5270000Y-2349220D02*
X-5185340D01*
G01X-5200150D02*
X-5191680Y-2342780D01*
X-5187450Y-2333130D01*
X-5185340Y-2321870D01*
X-5189570Y-2310610D01*
X-5198030Y-2300960D01*
X-5210730Y-2294520D01*
X-5227670Y-2291300D01*
X-5244600Y-2294520D01*
X-5257300Y-2300960D01*
X-5265770Y-2310610D01*
X-5270000Y-2321870D01*
X-5267880Y-2333130D01*
X-5261540Y-2342780D01*
X-5253070Y-2349220D01*
G01X-5270000Y-2422450D02*
X-5185340D01*
G01X-5206500D02*
X-5195920Y-2428890D01*
X-5187450Y-2438540D01*
X-5185340Y-2451410D01*
X-5187450Y-2462670D01*
X-5195920Y-2472320D01*
X-5210730Y-2477150D01*
X-5270000D01*
G01X-5195920Y-2605080D02*
X-5187450Y-2593820D01*
X-5185340Y-2584170D01*
X-5189570Y-2571300D01*
X-5198030Y-2561640D01*
X-5212850Y-2555210D01*
X-5227670Y-2553600D01*
X-5242490Y-2555210D01*
X-5255190Y-2561640D01*
X-5265770Y-2571300D01*
X-5270000Y-2584170D01*
X-5265770Y-2595430D01*
X-5257300Y-2605080D01*
G01X-5212850Y-2684750D02*
Y-2736230D01*
X-5198030Y-2731400D01*
X-5189570Y-2723360D01*
X-5185340Y-2712100D01*
X-5187450Y-2700840D01*
X-5193800Y-2691180D01*
X-5208620Y-2684750D01*
X-5221320Y-2681530D01*
X-5234020D01*
X-5246720Y-2684750D01*
X-5259420Y-2692790D01*
X-5267880Y-2702450D01*
X-5270000Y-2713710D01*
X-5265770Y-2724970D01*
X-5253070Y-2736230D01*
G01X-5255190Y-2814290D02*
X-5263650Y-2822330D01*
X-5270000Y-2833590D01*
Y-2843250D01*
X-5265770Y-2852900D01*
X-5259420Y-2859330D01*
X-5250950Y-2862550D01*
X-5238250Y-2860940D01*
X-5231900Y-2854510D01*
X-5219200Y-2825550D01*
X-5204380Y-2819120D01*
X-5193800Y-2822330D01*
X-5187450Y-2828770D01*
X-5185340Y-2838420D01*
X-5187450Y-2848070D01*
X-5193800Y-2857720D01*
G01X-5195920Y-2993700D02*
X-5187450Y-2982440D01*
X-5185340Y-2972790D01*
X-5189570Y-2959920D01*
X-5198030Y-2950260D01*
X-5212850Y-2943830D01*
X-5227670Y-2942220D01*
X-5242490Y-2943830D01*
X-5255190Y-2950260D01*
X-5265770Y-2959920D01*
X-5270000Y-2972790D01*
X-5265770Y-2984050D01*
X-5257300Y-2993700D01*
G01X-5270000Y-3097500D02*
X-5267880Y-3087850D01*
X-5259420Y-3078200D01*
X-5244600Y-3071760D01*
X-5227670Y-3068540D01*
X-5210730Y-3071760D01*
X-5195920Y-3078200D01*
X-5187450Y-3087850D01*
X-5185340Y-3097500D01*
X-5187450Y-3107150D01*
X-5195920Y-3116800D01*
X-5210730Y-3123240D01*
X-5227670Y-3124850D01*
X-5244600Y-3123240D01*
X-5259420Y-3116800D01*
X-5267880Y-3107150D01*
X-5270000Y-3097500D01*
G01Y-3324410D02*
X-5143000D01*
Y-3364620D01*
X-5149350Y-3377490D01*
X-5157820Y-3385540D01*
X-5174750Y-3388750D01*
X-5191680Y-3385540D01*
X-5202270Y-3375880D01*
X-5208620Y-3364620D01*
Y-3324410D01*
G01Y-3364620D02*
X-5270000Y-3388750D01*
G01Y-3486120D02*
X-5267880Y-3476470D01*
X-5259420Y-3466820D01*
X-5244600Y-3460380D01*
X-5227670Y-3457160D01*
X-5210730Y-3460380D01*
X-5195920Y-3466820D01*
X-5187450Y-3476470D01*
X-5185340Y-3486120D01*
X-5187450Y-3495770D01*
X-5195920Y-3505420D01*
X-5210730Y-3511860D01*
X-5227670Y-3513470D01*
X-5244600Y-3511860D01*
X-5259420Y-3505420D01*
X-5267880Y-3495770D01*
X-5270000Y-3486120D01*
G01X-5143000Y-3615660D02*
X-5270000D01*
G01X-5185340Y-3593140D02*
Y-3638180D01*
G01X-5270000Y-3774160D02*
X-5185340D01*
G01X-5200150D02*
X-5191680Y-3767720D01*
X-5187450Y-3758070D01*
X-5185340Y-3746810D01*
X-5189570Y-3735550D01*
X-5198030Y-3725900D01*
X-5210730Y-3719460D01*
X-5227670Y-3716240D01*
X-5244600Y-3719460D01*
X-5257300Y-3725900D01*
X-5265770Y-3735550D01*
X-5270000Y-3746810D01*
X-5267880Y-3758070D01*
X-5261540Y-3767720D01*
X-5253070Y-3774160D01*
G01X-4880000Y4845000D02*
X-4990000D01*
Y4615000D01*
X-4880000D01*
Y4845000D01*
G01X-4965000Y5013230D02*
X-4901500D01*
Y4996290D01*
X-4904680Y4990870D01*
X-4908910Y4987490D01*
X-4917380Y4986130D01*
X-4925840Y4987490D01*
X-4931130Y4991550D01*
X-4934310Y4996290D01*
Y5013230D01*
G01Y4996290D02*
X-4965000Y4986130D01*
G01Y4943800D02*
X-4901500D01*
X-4914200Y4951930D01*
G01X-4965000D02*
Y4935670D01*
G01Y4887920D02*
X-4901500D01*
X-4914200Y4896050D01*
G01X-4965000D02*
Y4879790D01*
G01X-4608210Y4250220D02*
X-4611380Y4246160D01*
X-4613500Y4241420D01*
Y4236000D01*
X-4610320Y4229900D01*
X-4605030Y4225160D01*
X-4598680Y4221770D01*
X-4588100Y4219060D01*
X-4578570Y4218390D01*
X-4569050Y4219740D01*
X-4562700Y4221770D01*
X-4556350Y4225840D01*
X-4552120Y4230580D01*
X-4550000Y4235320D01*
Y4240060D01*
X-4552120Y4244800D01*
X-4555290Y4248870D01*
X-4559520Y4252250D01*
G01X-4602920Y4278330D02*
X-4609270Y4282390D01*
X-4612440Y4287140D01*
X-4613500Y4292550D01*
X-4611380Y4299330D01*
X-4606090Y4304070D01*
X-4599740Y4305420D01*
X-4593390Y4304750D01*
X-4588100Y4302040D01*
X-4577520Y4288490D01*
X-4570110Y4282390D01*
X-4559520Y4278330D01*
X-4550000Y4276980D01*
Y4305420D01*
G01Y4347080D02*
X-4613500D01*
X-4600800Y4338950D01*
G01X-4550000D02*
Y4355210D01*
G01X-4499000Y4173000D02*
X-4389000D01*
Y4403000D01*
X-4499000D01*
Y4173000D01*
G01X-4033840Y4370750D02*
X-4028970Y4362870D01*
X-4023130Y4357620D01*
X-4016320Y4355000D01*
X-4008530Y4357620D01*
X-4002690Y4362870D01*
X-3996840Y4370750D01*
X-3994900Y4381250D01*
Y4433740D01*
G01X-3954130Y4420620D02*
X-3948290Y4428490D01*
X-3941470Y4432430D01*
X-3933680Y4433740D01*
X-3923950Y4431120D01*
X-3917130Y4424550D01*
X-3915180Y4416680D01*
X-3916160Y4408800D01*
X-3920050Y4402240D01*
X-3939520Y4389120D01*
X-3948290Y4379930D01*
X-3954130Y4366810D01*
X-3956080Y4355000D01*
X-3915180D01*
G01X-3750000Y-4000000D02*
Y-5500000D01*
X-2250000D01*
Y-4000000D01*
X-3750000D01*
G01Y-2000000D02*
Y-3500000D01*
X-2250000D01*
Y-2000000D01*
X-3750000D01*
G01Y0D02*
Y-1500000D01*
X-2250000D01*
Y0D01*
X-3750000D01*
G01Y2000000D02*
Y500000D01*
X-2250000D01*
Y2000000D01*
X-3750000D01*
G01X-3470000Y4350000D02*
X-3630000D01*
Y4060000D01*
X-3470000D01*
Y4350000D01*
G01X-3607210Y4468740D02*
Y4412310D01*
X-3603320Y4400500D01*
X-3595530Y4392620D01*
X-3585790Y4390000D01*
X-3576050Y4392620D01*
X-3568260Y4400500D01*
X-3564370Y4412310D01*
Y4468740D01*
G01X-3495370Y4390000D02*
Y4468740D01*
X-3531390Y4412310D01*
X-3482710D01*
G01X-3640000Y4845000D02*
X-3750000D01*
Y4615000D01*
X-3640000D01*
Y4845000D01*
G01X-3725000Y4948230D02*
X-3661500D01*
Y4931290D01*
X-3664680Y4925870D01*
X-3668910Y4922490D01*
X-3677380Y4921130D01*
X-3685840Y4922490D01*
X-3691130Y4926550D01*
X-3694310Y4931290D01*
Y4948230D01*
G01Y4931290D02*
X-3725000Y4921130D01*
G01Y4878800D02*
X-3723940Y4874060D01*
X-3720770Y4868640D01*
X-3715480Y4865250D01*
X-3708070Y4863900D01*
X-3700660Y4865250D01*
X-3694310Y4869320D01*
X-3691130Y4875410D01*
Y4882190D01*
X-3689020Y4886250D01*
X-3683730Y4889640D01*
X-3676320Y4890990D01*
X-3668910Y4888960D01*
X-3663620Y4884220D01*
X-3661500Y4878800D01*
X-3663620Y4873380D01*
X-3668910Y4868640D01*
X-3676320Y4866610D01*
X-3683730Y4867960D01*
X-3689020Y4871350D01*
X-3691130Y4875410D01*
Y4882190D01*
X-3694310Y4888280D01*
X-3700660Y4892350D01*
X-3708070Y4893700D01*
X-3715480Y4892350D01*
X-3720770Y4888960D01*
X-3723940Y4883540D01*
X-3725000Y4878800D01*
G01X-3383230Y3775000D02*
Y3838500D01*
X-3366290D01*
X-3360870Y3835320D01*
X-3357490Y3831090D01*
X-3356130Y3822620D01*
X-3357490Y3814160D01*
X-3361550Y3808870D01*
X-3366290Y3805690D01*
X-3383230D01*
G01X-3366290D02*
X-3356130Y3775000D01*
G01X-3328700Y3784520D02*
X-3324640Y3779230D01*
X-3319900Y3776060D01*
X-3313800Y3775000D01*
X-3307700Y3777120D01*
X-3302960Y3781350D01*
X-3299580Y3788760D01*
X-3298900Y3797220D01*
X-3300250Y3805690D01*
X-3303640Y3810980D01*
X-3308380Y3815220D01*
X-3313120Y3816270D01*
X-3317860Y3815220D01*
X-3323960Y3810980D01*
X-3321930Y3838500D01*
X-3303640D01*
G01X-3224000Y3850000D02*
Y3960000D01*
X-3454000D01*
Y3850000D01*
X-3224000D01*
G01X-3496940Y4900400D02*
X-3488900Y4887700D01*
X-3479250Y4879230D01*
X-3467990Y4875000D01*
X-3455120Y4879230D01*
X-3445470Y4887700D01*
X-3435810Y4900400D01*
X-3432600Y4917330D01*
Y5002000D01*
G01X-3370620Y4900400D02*
X-3360970Y4885580D01*
X-3348100Y4877120D01*
X-3333620Y4875000D01*
X-3320750Y4877120D01*
X-3307880Y4887700D01*
X-3299840Y4900400D01*
X-3298230Y4913100D01*
X-3301450Y4927910D01*
X-3312710Y4938500D01*
X-3323970Y4942730D01*
X-3338450D01*
G01X-3323970D02*
X-3314320Y4949080D01*
X-3306270Y4959660D01*
X-3303060Y4972370D01*
X-3306270Y4985070D01*
X-3314320Y4995650D01*
X-3328800Y5002000D01*
X-3343270Y4999880D01*
X-3357750Y4991420D01*
G01X-3038870Y-3872270D02*
X-3032440Y-3865920D01*
X-3027610Y-3855340D01*
X-3024390Y-3840510D01*
X-3027610Y-3827820D01*
X-3034040Y-3819350D01*
X-3045310Y-3813000D01*
X-3088740D01*
Y-3940000D01*
X-3035650D01*
X-3024390Y-3931540D01*
X-3017960Y-3918830D01*
X-3014740Y-3904020D01*
X-3017960Y-3889200D01*
X-3027610Y-3876500D01*
X-3038870Y-3872270D01*
X-3088740D01*
G01X-2922200Y-3940000D02*
Y-3813000D01*
X-2941500Y-3838400D01*
G01Y-3940000D02*
X-2902900D01*
G01X-2823230Y-3887090D02*
X-2811960Y-3872270D01*
X-2802310Y-3863800D01*
X-2789440Y-3859570D01*
X-2778180Y-3863800D01*
X-2770140Y-3872270D01*
X-2763700Y-3884970D01*
X-2762090Y-3899780D01*
X-2763700Y-3912490D01*
X-2770140Y-3925190D01*
X-2779790Y-3935770D01*
X-2791050Y-3940000D01*
X-2803920Y-3935770D01*
X-2815180Y-3923070D01*
X-2821620Y-3904020D01*
X-2823230Y-3882850D01*
X-2820010Y-3855340D01*
X-2815180Y-3840510D01*
X-2807140Y-3825700D01*
X-2795880Y-3815120D01*
X-2784620Y-3813000D01*
X-2773360Y-3817230D01*
X-2765310Y-3827820D01*
G01X-3038870Y-1872270D02*
X-3032440Y-1865920D01*
X-3027610Y-1855340D01*
X-3024390Y-1840510D01*
X-3027610Y-1827820D01*
X-3034040Y-1819350D01*
X-3045310Y-1813000D01*
X-3088740D01*
Y-1940000D01*
X-3035650D01*
X-3024390Y-1931540D01*
X-3017960Y-1918830D01*
X-3014740Y-1904020D01*
X-3017960Y-1889200D01*
X-3027610Y-1876500D01*
X-3038870Y-1872270D01*
X-3088740D01*
G01X-2922200Y-1940000D02*
X-2910940Y-1937880D01*
X-2898070Y-1931540D01*
X-2890030Y-1920950D01*
X-2886810Y-1906130D01*
X-2890030Y-1891320D01*
X-2899680Y-1878620D01*
X-2914160Y-1872270D01*
X-2930240D01*
X-2939900Y-1868030D01*
X-2947940Y-1857450D01*
X-2951160Y-1842630D01*
X-2946330Y-1827820D01*
X-2935070Y-1817230D01*
X-2922200Y-1813000D01*
X-2909330Y-1817230D01*
X-2898070Y-1827820D01*
X-2893240Y-1842630D01*
X-2896460Y-1857450D01*
X-2904500Y-1868030D01*
X-2914160Y-1872270D01*
X-2930240D01*
X-2944720Y-1878620D01*
X-2954370Y-1891320D01*
X-2957590Y-1906130D01*
X-2954370Y-1920950D01*
X-2946330Y-1931540D01*
X-2933460Y-1937880D01*
X-2922200Y-1940000D01*
G01X-3038870Y127730D02*
X-3032440Y134080D01*
X-3027610Y144660D01*
X-3024390Y159490D01*
X-3027610Y172180D01*
X-3034040Y180650D01*
X-3045310Y187000D01*
X-3088740D01*
Y60000D01*
X-3035650D01*
X-3024390Y68460D01*
X-3017960Y81170D01*
X-3014740Y95980D01*
X-3017960Y110800D01*
X-3027610Y123500D01*
X-3038870Y127730D01*
X-3088740D01*
G01X-2922200Y60000D02*
Y187000D01*
X-2941500Y161600D01*
G01Y60000D02*
X-2902900D01*
G01X-2828050Y79050D02*
X-2818400Y68460D01*
X-2807140Y62120D01*
X-2792660Y60000D01*
X-2778180Y64230D01*
X-2766920Y72700D01*
X-2758880Y87510D01*
X-2757270Y104450D01*
X-2760490Y121380D01*
X-2768530Y131970D01*
X-2779790Y140430D01*
X-2791050Y142550D01*
X-2802310Y140430D01*
X-2816790Y131970D01*
X-2811960Y187000D01*
X-2768530D01*
G01X-3038870Y2127730D02*
X-3032440Y2134080D01*
X-3027610Y2144660D01*
X-3024390Y2159490D01*
X-3027610Y2172180D01*
X-3034040Y2180650D01*
X-3045310Y2187000D01*
X-3088740D01*
Y2060000D01*
X-3035650D01*
X-3024390Y2068460D01*
X-3017960Y2081170D01*
X-3014740Y2095980D01*
X-3017960Y2110800D01*
X-3027610Y2123500D01*
X-3038870Y2127730D01*
X-3088740D01*
G01X-2925420Y2060000D02*
X-2922200Y2087510D01*
X-2917370Y2110800D01*
X-2910940Y2131970D01*
X-2902900Y2155250D01*
X-2890030Y2187000D01*
X-2954370D01*
G01X-3212210Y4224220D02*
X-3215380Y4220160D01*
X-3217500Y4215420D01*
Y4210000D01*
X-3214320Y4203900D01*
X-3209030Y4199160D01*
X-3202680Y4195770D01*
X-3192100Y4193060D01*
X-3182570Y4192390D01*
X-3173050Y4193740D01*
X-3166700Y4195770D01*
X-3160350Y4199840D01*
X-3156120Y4204580D01*
X-3154000Y4209320D01*
Y4214060D01*
X-3156120Y4218800D01*
X-3159290Y4222870D01*
X-3163520Y4226250D01*
G01X-3206920Y4252330D02*
X-3213270Y4256390D01*
X-3216440Y4261140D01*
X-3217500Y4266550D01*
X-3215380Y4273330D01*
X-3210090Y4278070D01*
X-3203740Y4279420D01*
X-3197390Y4278750D01*
X-3192100Y4276040D01*
X-3181520Y4262490D01*
X-3174110Y4256390D01*
X-3163520Y4252330D01*
X-3154000Y4250980D01*
Y4279420D01*
G01X-3217500Y4321080D02*
X-3215380Y4315660D01*
X-3210090Y4311600D01*
X-3203740Y4308890D01*
X-3195270Y4306860D01*
X-3185750Y4306180D01*
X-3176220Y4306860D01*
X-3167760Y4308890D01*
X-3161410Y4311600D01*
X-3156120Y4315660D01*
X-3154000Y4321080D01*
X-3156120Y4326500D01*
X-3161410Y4330560D01*
X-3167760Y4333270D01*
X-3176220Y4335300D01*
X-3185750Y4335980D01*
X-3195270Y4335300D01*
X-3203740Y4333270D01*
X-3210090Y4330560D01*
X-3215380Y4326500D01*
X-3217500Y4321080D01*
G01X-3139000Y4119000D02*
X-3029000D01*
Y4349000D01*
X-3139000D01*
Y4119000D01*
G01X-2517000Y3716000D02*
X-2407000D01*
Y3946000D01*
X-2517000D01*
Y3716000D01*
G01X-2750000Y3661770D02*
X-2813500D01*
Y3678710D01*
X-2810320Y3684130D01*
X-2806090Y3687510D01*
X-2797620Y3688870D01*
X-2789160Y3687510D01*
X-2783870Y3683450D01*
X-2780690Y3678710D01*
Y3661770D01*
G01Y3678710D02*
X-2750000Y3688870D01*
G01X-2757410Y3719680D02*
X-2752120Y3724430D01*
X-2750000Y3729850D01*
X-2752120Y3735260D01*
X-2758460Y3740010D01*
X-2767990Y3743390D01*
X-2777520Y3744750D01*
X-2789160D01*
X-2798680Y3743390D01*
X-2807150Y3740010D01*
X-2811380Y3735940D01*
X-2813500Y3731200D01*
X-2811380Y3725780D01*
X-2807150Y3721720D01*
X-2800800Y3719010D01*
X-2792330Y3717650D01*
X-2784930Y3719010D01*
X-2777520Y3722390D01*
X-2773280Y3726460D01*
X-2772220Y3731200D01*
X-2774340Y3736620D01*
X-2779630Y3740680D01*
X-2789160Y3744750D01*
G01X-2686000Y3583000D02*
X-2576000D01*
Y3813000D01*
X-2686000D01*
Y3583000D01*
G01X-2813500Y3986770D02*
X-2750000D01*
Y4013870D01*
G01Y4069750D02*
Y4042650D01*
X-2813500D01*
Y4069750D01*
G01X-2782810Y4058910D02*
Y4042650D01*
G01X-2750000Y4097180D02*
X-2813500D01*
Y4110730D01*
X-2810320Y4116140D01*
X-2806090Y4120210D01*
X-2799740Y4123600D01*
X-2792330Y4126300D01*
X-2781750Y4126980D01*
X-2771170Y4126300D01*
X-2763760Y4123600D01*
X-2757410Y4120210D01*
X-2753170Y4116140D01*
X-2750000Y4110730D01*
Y4097180D01*
G01Y4167960D02*
X-2813500D01*
X-2800800Y4159830D01*
G01X-2750000D02*
Y4176090D01*
G01X-2543000Y4004000D02*
Y4134000D01*
X-2723000D01*
Y4004000D01*
X-2543000D01*
G01X-2518320Y4496930D02*
X-2505450Y4486350D01*
X-2490970Y4480000D01*
X-2478110D01*
X-2465240Y4486350D01*
X-2455580Y4496930D01*
X-2450760Y4511750D01*
X-2453970Y4526560D01*
X-2462020Y4539270D01*
X-2476500Y4547730D01*
X-2495800Y4551970D01*
X-2507060Y4560430D01*
X-2511890Y4575250D01*
X-2508670Y4590070D01*
X-2500630Y4600650D01*
X-2489370Y4607000D01*
X-2478110D01*
X-2466840Y4602770D01*
X-2457190Y4592180D01*
G01X-2403260Y4607000D02*
X-2380740Y4480000D01*
X-2355000Y4607000D01*
X-2329260Y4480000D01*
X-2306740Y4607000D01*
G01X-2225460Y4480000D02*
Y4607000D01*
X-2244760Y4581600D01*
G01Y4480000D02*
X-2206160D01*
G01X-2710000Y4615000D02*
X-2600000D01*
Y4845000D01*
X-2710000D01*
Y4615000D01*
G01X-2625000Y4866770D02*
X-2688500D01*
Y4883710D01*
X-2685320Y4889130D01*
X-2681090Y4892510D01*
X-2672620Y4893870D01*
X-2664160Y4892510D01*
X-2658870Y4888450D01*
X-2655690Y4883710D01*
Y4866770D01*
G01Y4883710D02*
X-2625000Y4893870D01*
G01X-2651460Y4923330D02*
X-2658870Y4928070D01*
X-2663100Y4932140D01*
X-2665220Y4937550D01*
X-2663100Y4942300D01*
X-2658870Y4945680D01*
X-2652520Y4948390D01*
X-2645110Y4949070D01*
X-2638760Y4948390D01*
X-2632410Y4945680D01*
X-2627120Y4941620D01*
X-2625000Y4936880D01*
X-2627120Y4931460D01*
X-2633460Y4926720D01*
X-2642990Y4924010D01*
X-2653570Y4923330D01*
X-2667330Y4924680D01*
X-2674740Y4926720D01*
X-2682150Y4930100D01*
X-2687440Y4934850D01*
X-2688500Y4939590D01*
X-2686380Y4944330D01*
X-2681090Y4947720D01*
G01X-2355000Y3913230D02*
X-2291500D01*
Y3896290D01*
X-2294680Y3890870D01*
X-2298910Y3887490D01*
X-2307380Y3886130D01*
X-2315840Y3887490D01*
X-2321130Y3891550D01*
X-2324310Y3896290D01*
Y3913230D01*
G01Y3896290D02*
X-2355000Y3886130D01*
G01Y3843800D02*
X-2291500D01*
X-2304200Y3851930D01*
G01X-2355000D02*
Y3835670D01*
G01X-2291500Y3787920D02*
X-2293620Y3793340D01*
X-2298910Y3797400D01*
X-2305260Y3800110D01*
X-2313730Y3802140D01*
X-2323250Y3802820D01*
X-2332780Y3802140D01*
X-2341240Y3800110D01*
X-2347590Y3797400D01*
X-2352880Y3793340D01*
X-2355000Y3787920D01*
X-2352880Y3782500D01*
X-2347590Y3778440D01*
X-2341240Y3775730D01*
X-2332780Y3773700D01*
X-2323250Y3773020D01*
X-2313730Y3773700D01*
X-2305260Y3775730D01*
X-2298910Y3778440D01*
X-2293620Y3782500D01*
X-2291500Y3787920D01*
G01X-1750000Y-4000000D02*
Y-5500000D01*
X-250000D01*
Y-4000000D01*
X-1750000D01*
G01Y-2000000D02*
Y-3500000D01*
X-250000D01*
Y-2000000D01*
X-1750000D01*
G01Y0D02*
Y-1500000D01*
X-250000D01*
Y0D01*
X-1750000D01*
G01Y2000000D02*
Y500000D01*
X-250000D01*
Y2000000D01*
X-1750000D01*
G01X-1948210Y4215220D02*
X-1951380Y4211160D01*
X-1953500Y4206420D01*
Y4201000D01*
X-1950320Y4194900D01*
X-1945030Y4190160D01*
X-1938680Y4186770D01*
X-1928100Y4184060D01*
X-1918570Y4183390D01*
X-1909050Y4184740D01*
X-1902700Y4186770D01*
X-1896350Y4190840D01*
X-1892120Y4195580D01*
X-1890000Y4200320D01*
Y4205060D01*
X-1892120Y4209800D01*
X-1895290Y4213870D01*
X-1899520Y4217250D01*
G01X-1890000Y4256200D02*
X-1953500D01*
X-1940800Y4248070D01*
G01X-1890000D02*
Y4264330D01*
G01Y4312080D02*
X-1891060Y4316820D01*
X-1894230Y4322240D01*
X-1899520Y4325630D01*
X-1906930Y4326980D01*
X-1914340Y4325630D01*
X-1920690Y4321560D01*
X-1923870Y4315470D01*
Y4308690D01*
X-1925980Y4304630D01*
X-1931270Y4301240D01*
X-1938680Y4299890D01*
X-1946090Y4301920D01*
X-1951380Y4306660D01*
X-1953500Y4312080D01*
X-1951380Y4317500D01*
X-1946090Y4322240D01*
X-1938680Y4324270D01*
X-1931270Y4322920D01*
X-1925980Y4319530D01*
X-1923870Y4315470D01*
Y4308690D01*
X-1920690Y4302600D01*
X-1914340Y4298530D01*
X-1906930Y4297180D01*
X-1899520Y4298530D01*
X-1894230Y4301920D01*
X-1891060Y4307340D01*
X-1890000Y4312080D01*
G01X-1842000Y4112000D02*
X-1732000D01*
Y4342000D01*
X-1842000D01*
Y4112000D01*
G01X-1377210Y4518740D02*
Y4462310D01*
X-1373320Y4450500D01*
X-1365530Y4442620D01*
X-1355790Y4440000D01*
X-1346050Y4442620D01*
X-1338260Y4450500D01*
X-1334370Y4462310D01*
Y4518740D01*
G01X-1295550Y4505620D02*
X-1289710Y4513490D01*
X-1282890Y4517430D01*
X-1275100Y4518740D01*
X-1265370Y4516120D01*
X-1258550Y4509550D01*
X-1256600Y4501680D01*
X-1257580Y4493800D01*
X-1261470Y4487240D01*
X-1280940Y4474120D01*
X-1289710Y4464930D01*
X-1295550Y4451810D01*
X-1297500Y4440000D01*
X-1256600D01*
G01X-1395000Y4903230D02*
X-1331500D01*
Y4886290D01*
X-1334680Y4880870D01*
X-1338910Y4877490D01*
X-1347380Y4876130D01*
X-1355840Y4877490D01*
X-1361130Y4881550D01*
X-1364310Y4886290D01*
Y4903230D01*
G01Y4886290D02*
X-1395000Y4876130D01*
G01Y4835150D02*
X-1381240Y4833800D01*
X-1369600Y4831770D01*
X-1359020Y4829060D01*
X-1347380Y4825670D01*
X-1331500Y4820250D01*
Y4847350D01*
G01X-1410000Y4980000D02*
X-1520000D01*
Y4750000D01*
X-1410000D01*
Y4980000D01*
G01X-1038870Y-3872270D02*
X-1032440Y-3865920D01*
X-1027610Y-3855340D01*
X-1024390Y-3840510D01*
X-1027610Y-3827820D01*
X-1034040Y-3819350D01*
X-1045310Y-3813000D01*
X-1088740D01*
Y-3940000D01*
X-1035650D01*
X-1024390Y-3931540D01*
X-1017960Y-3918830D01*
X-1014740Y-3904020D01*
X-1017960Y-3889200D01*
X-1027610Y-3876500D01*
X-1038870Y-3872270D01*
X-1088740D01*
G01X-922200Y-3940000D02*
Y-3813000D01*
X-941500Y-3838400D01*
G01Y-3940000D02*
X-902900D01*
G01X-792660Y-3813000D02*
X-805530Y-3817230D01*
X-815180Y-3827820D01*
X-821620Y-3840510D01*
X-826440Y-3857450D01*
X-828050Y-3876500D01*
X-826440Y-3895550D01*
X-821620Y-3912490D01*
X-815180Y-3925190D01*
X-805530Y-3935770D01*
X-792660Y-3940000D01*
X-779790Y-3935770D01*
X-770140Y-3925190D01*
X-763700Y-3912490D01*
X-758880Y-3895550D01*
X-757270Y-3876500D01*
X-758880Y-3857450D01*
X-763700Y-3840510D01*
X-770140Y-3827820D01*
X-779790Y-3817230D01*
X-792660Y-3813000D01*
G01X-1038870Y-1872270D02*
X-1032440Y-1865920D01*
X-1027610Y-1855340D01*
X-1024390Y-1840510D01*
X-1027610Y-1827820D01*
X-1034040Y-1819350D01*
X-1045310Y-1813000D01*
X-1088740D01*
Y-1940000D01*
X-1035650D01*
X-1024390Y-1931540D01*
X-1017960Y-1918830D01*
X-1014740Y-1904020D01*
X-1017960Y-1889200D01*
X-1027610Y-1876500D01*
X-1038870Y-1872270D01*
X-1088740D01*
G01X-952770Y-1834170D02*
X-943110Y-1821470D01*
X-931850Y-1815120D01*
X-918980Y-1813000D01*
X-902900Y-1817230D01*
X-891630Y-1827820D01*
X-888420Y-1840510D01*
X-890030Y-1853220D01*
X-896460Y-1863800D01*
X-928630Y-1884970D01*
X-943110Y-1899780D01*
X-952770Y-1920950D01*
X-955980Y-1940000D01*
X-888420D01*
G01X-1038870Y127730D02*
X-1032440Y134080D01*
X-1027610Y144660D01*
X-1024390Y159490D01*
X-1027610Y172180D01*
X-1034040Y180650D01*
X-1045310Y187000D01*
X-1088740D01*
Y60000D01*
X-1035650D01*
X-1024390Y68460D01*
X-1017960Y81170D01*
X-1014740Y95980D01*
X-1017960Y110800D01*
X-1027610Y123500D01*
X-1038870Y127730D01*
X-1088740D01*
G01X-949550Y74810D02*
X-938290Y64230D01*
X-925420Y60000D01*
X-912550Y64230D01*
X-901290Y76930D01*
X-893240Y95980D01*
X-890030Y115030D01*
Y138320D01*
X-893240Y157370D01*
X-901290Y174300D01*
X-910940Y182770D01*
X-922200Y187000D01*
X-935070Y182770D01*
X-944720Y174300D01*
X-951160Y161600D01*
X-954370Y144660D01*
X-951160Y129850D01*
X-943110Y115030D01*
X-933460Y106560D01*
X-922200Y104450D01*
X-909330Y108680D01*
X-899680Y119270D01*
X-890030Y138320D01*
G01X-1038870Y2127730D02*
X-1032440Y2134080D01*
X-1027610Y2144660D01*
X-1024390Y2159490D01*
X-1027610Y2172180D01*
X-1034040Y2180650D01*
X-1045310Y2187000D01*
X-1088740D01*
Y2060000D01*
X-1035650D01*
X-1024390Y2068460D01*
X-1017960Y2081170D01*
X-1014740Y2095980D01*
X-1017960Y2110800D01*
X-1027610Y2123500D01*
X-1038870Y2127730D01*
X-1088740D01*
G01X-922200Y2060000D02*
Y2187000D01*
X-941500Y2161600D01*
G01Y2060000D02*
X-902900D01*
G01X-983210Y4300220D02*
X-986380Y4296160D01*
X-988500Y4291420D01*
Y4286000D01*
X-985320Y4279900D01*
X-980030Y4275160D01*
X-973680Y4271770D01*
X-963100Y4269060D01*
X-953570Y4268390D01*
X-944050Y4269740D01*
X-937700Y4271770D01*
X-931350Y4275840D01*
X-927120Y4280580D01*
X-925000Y4285320D01*
Y4290060D01*
X-927120Y4294800D01*
X-930290Y4298870D01*
X-934520Y4302250D01*
G01X-925000Y4341200D02*
X-988500D01*
X-975800Y4333070D01*
G01X-925000D02*
Y4349330D01*
G01X-951460Y4384210D02*
X-958870Y4388950D01*
X-963100Y4393020D01*
X-965220Y4398430D01*
X-963100Y4403180D01*
X-958870Y4406560D01*
X-952520Y4409270D01*
X-945110Y4409950D01*
X-938760Y4409270D01*
X-932410Y4406560D01*
X-927120Y4402500D01*
X-925000Y4397760D01*
X-927120Y4392340D01*
X-933460Y4387600D01*
X-942990Y4384890D01*
X-953570Y4384210D01*
X-967330Y4385560D01*
X-974740Y4387600D01*
X-982150Y4390980D01*
X-987440Y4395730D01*
X-988500Y4400470D01*
X-986380Y4405210D01*
X-981090Y4408600D01*
G01X-983210Y4035220D02*
X-986380Y4031160D01*
X-988500Y4026420D01*
Y4021000D01*
X-985320Y4014900D01*
X-980030Y4010160D01*
X-973680Y4006770D01*
X-963100Y4004060D01*
X-953570Y4003390D01*
X-944050Y4004740D01*
X-937700Y4006770D01*
X-931350Y4010840D01*
X-927120Y4015580D01*
X-925000Y4020320D01*
Y4025060D01*
X-927120Y4029800D01*
X-930290Y4033870D01*
X-934520Y4037250D01*
G01X-925000Y4076200D02*
X-988500D01*
X-975800Y4068070D01*
G01X-925000D02*
Y4084330D01*
G01X-932410Y4120560D02*
X-927120Y4125310D01*
X-925000Y4130730D01*
X-927120Y4136140D01*
X-933460Y4140890D01*
X-942990Y4144270D01*
X-952520Y4145630D01*
X-964160D01*
X-973680Y4144270D01*
X-982150Y4140890D01*
X-986380Y4136820D01*
X-988500Y4132080D01*
X-986380Y4126660D01*
X-982150Y4122600D01*
X-975800Y4119890D01*
X-967330Y4118530D01*
X-959930Y4119890D01*
X-952520Y4123270D01*
X-948280Y4127340D01*
X-947220Y4132080D01*
X-949340Y4137500D01*
X-954630Y4141560D01*
X-964160Y4145630D01*
G01X-608230Y2380000D02*
Y2443500D01*
X-591290D01*
X-585870Y2440320D01*
X-582490Y2436090D01*
X-581130Y2427620D01*
X-582490Y2419160D01*
X-586550Y2413870D01*
X-591290Y2410690D01*
X-608230D01*
G01X-591290D02*
X-581130Y2380000D01*
G01X-551670Y2432920D02*
X-547610Y2439270D01*
X-542860Y2442440D01*
X-537450Y2443500D01*
X-530670Y2441380D01*
X-525930Y2436090D01*
X-524580Y2429740D01*
X-525250Y2423390D01*
X-527960Y2418100D01*
X-541510Y2407520D01*
X-547610Y2400110D01*
X-551670Y2389520D01*
X-553020Y2380000D01*
X-524580D01*
G01X-497820Y2389520D02*
X-493760Y2384230D01*
X-489020Y2381060D01*
X-482920Y2380000D01*
X-476820Y2382120D01*
X-472080Y2386350D01*
X-468700Y2393760D01*
X-468020Y2402220D01*
X-469370Y2410690D01*
X-472760Y2415980D01*
X-477500Y2420220D01*
X-482240Y2421270D01*
X-486980Y2420220D01*
X-493080Y2415980D01*
X-491050Y2443500D01*
X-472760D01*
G01X-598230Y2690000D02*
Y2753500D01*
X-581290D01*
X-575870Y2750320D01*
X-572490Y2746090D01*
X-571130Y2737620D01*
X-572490Y2729160D01*
X-576550Y2723870D01*
X-581290Y2720690D01*
X-598230D01*
G01X-581290D02*
X-571130Y2690000D01*
G01X-528800D02*
Y2753500D01*
X-536930Y2740800D01*
G01Y2690000D02*
X-520670D01*
G01X-485790Y2716460D02*
X-481050Y2723870D01*
X-476980Y2728100D01*
X-471570Y2730220D01*
X-466820Y2728100D01*
X-463440Y2723870D01*
X-460730Y2717520D01*
X-460050Y2710110D01*
X-460730Y2703760D01*
X-463440Y2697410D01*
X-467500Y2692120D01*
X-472240Y2690000D01*
X-477660Y2692120D01*
X-482400Y2698460D01*
X-485110Y2707990D01*
X-485790Y2718570D01*
X-484440Y2732330D01*
X-482400Y2739740D01*
X-479020Y2747150D01*
X-474270Y2752440D01*
X-469530Y2753500D01*
X-464790Y2751380D01*
X-461400Y2746090D01*
G01X-603230Y2535000D02*
Y2598500D01*
X-586290D01*
X-580870Y2595320D01*
X-577490Y2591090D01*
X-576130Y2582620D01*
X-577490Y2574160D01*
X-581550Y2568870D01*
X-586290Y2565690D01*
X-603230D01*
G01X-586290D02*
X-576130Y2535000D01*
G01X-533800D02*
Y2598500D01*
X-541930Y2585800D01*
G01Y2535000D02*
X-525670D01*
G01X-492820Y2544520D02*
X-488760Y2539230D01*
X-484020Y2536060D01*
X-477920Y2535000D01*
X-471820Y2537120D01*
X-467080Y2541350D01*
X-463700Y2548760D01*
X-463020Y2557220D01*
X-464370Y2565690D01*
X-467760Y2570980D01*
X-472500Y2575220D01*
X-477240Y2576270D01*
X-481980Y2575220D01*
X-488080Y2570980D01*
X-486050Y2598500D01*
X-467760D01*
G01X-559780Y2898210D02*
X-563840Y2901380D01*
X-568580Y2903500D01*
X-574000D01*
X-580100Y2900320D01*
X-584840Y2895030D01*
X-588230Y2888680D01*
X-590940Y2878100D01*
X-591610Y2868570D01*
X-590260Y2859050D01*
X-588230Y2852700D01*
X-584160Y2846350D01*
X-579420Y2842120D01*
X-574680Y2840000D01*
X-569940D01*
X-565200Y2842120D01*
X-561130Y2845290D01*
X-557750Y2849520D01*
G01X-531670Y2892920D02*
X-527610Y2899270D01*
X-522860Y2902440D01*
X-517450Y2903500D01*
X-510670Y2901380D01*
X-505930Y2896090D01*
X-504580Y2889740D01*
X-505250Y2883390D01*
X-507960Y2878100D01*
X-521510Y2867520D01*
X-527610Y2860110D01*
X-531670Y2849520D01*
X-533020Y2840000D01*
X-504580D01*
G01X-454790D02*
Y2903500D01*
X-479850Y2857990D01*
X-445990D01*
G01X-588230Y3560000D02*
Y3623500D01*
X-571290D01*
X-565870Y3620320D01*
X-562490Y3616090D01*
X-561130Y3607620D01*
X-562490Y3599160D01*
X-566550Y3593870D01*
X-571290Y3590690D01*
X-588230D01*
G01X-571290D02*
X-561130Y3560000D01*
G01X-531670Y3612920D02*
X-527610Y3619270D01*
X-522860Y3622440D01*
X-517450Y3623500D01*
X-510670Y3621380D01*
X-505930Y3616090D01*
X-504580Y3609740D01*
X-505250Y3603390D01*
X-507960Y3598100D01*
X-521510Y3587520D01*
X-527610Y3580110D01*
X-531670Y3569520D01*
X-533020Y3560000D01*
X-504580D01*
G01X-475790Y3586460D02*
X-471050Y3593870D01*
X-466980Y3598100D01*
X-461570Y3600220D01*
X-456820Y3598100D01*
X-453440Y3593870D01*
X-450730Y3587520D01*
X-450050Y3580110D01*
X-450730Y3573760D01*
X-453440Y3567410D01*
X-457500Y3562120D01*
X-462240Y3560000D01*
X-467660Y3562120D01*
X-472400Y3568460D01*
X-475110Y3577990D01*
X-475790Y3588570D01*
X-474440Y3602330D01*
X-472400Y3609740D01*
X-469020Y3617150D01*
X-464270Y3622440D01*
X-459530Y3623500D01*
X-454790Y3621380D01*
X-451400Y3616090D01*
G01X-583230Y3255000D02*
Y3318500D01*
X-566290D01*
X-560870Y3315320D01*
X-557490Y3311090D01*
X-556130Y3302620D01*
X-557490Y3294160D01*
X-561550Y3288870D01*
X-566290Y3285690D01*
X-583230D01*
G01X-566290D02*
X-556130Y3255000D01*
G01X-526670Y3307920D02*
X-522610Y3314270D01*
X-517860Y3317440D01*
X-512450Y3318500D01*
X-505670Y3316380D01*
X-500930Y3311090D01*
X-499580Y3304740D01*
X-500250Y3298390D01*
X-502960Y3293100D01*
X-516510Y3282520D01*
X-522610Y3275110D01*
X-526670Y3264520D01*
X-528020Y3255000D01*
X-499580D01*
G01X-449790D02*
Y3318500D01*
X-474850Y3272990D01*
X-440990D01*
G01X-583230Y3400000D02*
Y3463500D01*
X-566290D01*
X-560870Y3460320D01*
X-557490Y3456090D01*
X-556130Y3447620D01*
X-557490Y3439160D01*
X-561550Y3433870D01*
X-566290Y3430690D01*
X-583230D01*
G01X-566290D02*
X-556130Y3400000D01*
G01X-526670Y3452920D02*
X-522610Y3459270D01*
X-517860Y3462440D01*
X-512450Y3463500D01*
X-505670Y3461380D01*
X-500930Y3456090D01*
X-499580Y3449740D01*
X-500250Y3443390D01*
X-502960Y3438100D01*
X-516510Y3427520D01*
X-522610Y3420110D01*
X-526670Y3409520D01*
X-528020Y3400000D01*
X-499580D01*
G01X-472820Y3412700D02*
X-468760Y3405290D01*
X-463340Y3401060D01*
X-457240Y3400000D01*
X-451820Y3401060D01*
X-446400Y3406350D01*
X-443020Y3412700D01*
X-442340Y3419050D01*
X-443700Y3426460D01*
X-448440Y3431750D01*
X-453180Y3433870D01*
X-459270D01*
G01X-453180D02*
X-449110Y3437040D01*
X-445730Y3442330D01*
X-444370Y3448680D01*
X-445730Y3455030D01*
X-449110Y3460320D01*
X-455210Y3463500D01*
X-461310Y3462440D01*
X-467400Y3458210D01*
G01X-896000Y4197000D02*
X-786000D01*
Y4427000D01*
X-896000D01*
Y4197000D01*
G01Y3964000D02*
X-786000D01*
Y4194000D01*
X-896000D01*
Y3964000D01*
G01X-689780Y4288210D02*
X-693840Y4291380D01*
X-698580Y4293500D01*
X-704000D01*
X-710100Y4290320D01*
X-714840Y4285030D01*
X-718230Y4278680D01*
X-720940Y4268100D01*
X-721610Y4258570D01*
X-720260Y4249050D01*
X-718230Y4242700D01*
X-714160Y4236350D01*
X-709420Y4232120D01*
X-704680Y4230000D01*
X-699940D01*
X-695200Y4232120D01*
X-691130Y4235290D01*
X-687750Y4239520D01*
G01X-648800Y4230000D02*
Y4293500D01*
X-656930Y4280800D01*
G01Y4230000D02*
X-640670D01*
G01X-594270D02*
X-592920Y4243760D01*
X-590890Y4255400D01*
X-588180Y4265980D01*
X-584790Y4277620D01*
X-579370Y4293500D01*
X-606470D01*
G01X-600000Y4548000D02*
X-710000D01*
Y4318000D01*
X-600000D01*
Y4548000D01*
G01X-200000Y2350000D02*
Y2460000D01*
X-430000D01*
Y2350000D01*
X-200000D01*
G01Y2660000D02*
Y2770000D01*
X-430000D01*
Y2660000D01*
X-200000D01*
G01Y2505000D02*
Y2615000D01*
X-430000D01*
Y2505000D01*
X-200000D01*
G01Y2815000D02*
Y2925000D01*
X-430000D01*
Y2815000D01*
X-200000D01*
G01X-394780Y3083210D02*
X-398840Y3086380D01*
X-403580Y3088500D01*
X-409000D01*
X-415100Y3085320D01*
X-419840Y3080030D01*
X-423230Y3073680D01*
X-425940Y3063100D01*
X-426610Y3053570D01*
X-425260Y3044050D01*
X-423230Y3037700D01*
X-419160Y3031350D01*
X-414420Y3027120D01*
X-409680Y3025000D01*
X-404940D01*
X-400200Y3027120D01*
X-396130Y3030290D01*
X-392750Y3034520D01*
G01X-366670Y3077920D02*
X-362610Y3084270D01*
X-357860Y3087440D01*
X-352450Y3088500D01*
X-345670Y3086380D01*
X-340930Y3081090D01*
X-339580Y3074740D01*
X-340250Y3068390D01*
X-342960Y3063100D01*
X-356510Y3052520D01*
X-362610Y3045110D01*
X-366670Y3034520D01*
X-368020Y3025000D01*
X-339580D01*
G01X-310790Y3077920D02*
X-306730Y3084270D01*
X-301980Y3087440D01*
X-296570Y3088500D01*
X-289790Y3086380D01*
X-285050Y3081090D01*
X-283700Y3074740D01*
X-284370Y3068390D01*
X-287080Y3063100D01*
X-300630Y3052520D01*
X-306730Y3045110D01*
X-310790Y3034520D01*
X-312140Y3025000D01*
X-283700D01*
G01X-35000Y3000000D02*
Y3110000D01*
X-265000D01*
Y3000000D01*
X-35000D01*
G01X-415000Y3640000D02*
Y3530000D01*
X-185000D01*
Y3640000D01*
X-415000D01*
G01X-185000Y3220000D02*
Y3330000D01*
X-415000D01*
Y3220000D01*
X-185000D01*
G01Y3375000D02*
Y3485000D01*
X-415000D01*
Y3375000D01*
X-185000D01*
G01X-412210Y4638740D02*
Y4582310D01*
X-408320Y4570500D01*
X-400530Y4562620D01*
X-390790Y4560000D01*
X-381050Y4562620D01*
X-373260Y4570500D01*
X-369370Y4582310D01*
Y4638740D01*
G01X-333470Y4575750D02*
X-327630Y4566560D01*
X-319840Y4561310D01*
X-311080Y4560000D01*
X-303290Y4561310D01*
X-295500Y4567870D01*
X-290630Y4575750D01*
X-289660Y4583620D01*
X-291600Y4592810D01*
X-298420Y4599370D01*
X-305230Y4602000D01*
X-314000D01*
G01X-305230D02*
X-299390Y4605930D01*
X-294520Y4612490D01*
X-292580Y4620370D01*
X-294520Y4628240D01*
X-299390Y4634800D01*
X-308160Y4638740D01*
X-316920Y4637430D01*
X-325680Y4632180D01*
G01X-270000Y4540000D02*
X-470000D01*
Y4340000D01*
X-270000D01*
Y4540000D01*
G01X55000Y2243230D02*
X118500D01*
Y2226290D01*
X115320Y2220870D01*
X111090Y2217490D01*
X102620Y2216130D01*
X94160Y2217490D01*
X88870Y2221550D01*
X85690Y2226290D01*
Y2243230D01*
G01Y2226290D02*
X55000Y2216130D01*
G01X107920Y2186670D02*
X114270Y2182610D01*
X117440Y2177860D01*
X118500Y2172450D01*
X116380Y2165670D01*
X111090Y2160930D01*
X104740Y2159580D01*
X98390Y2160250D01*
X93100Y2162960D01*
X82520Y2176510D01*
X75110Y2182610D01*
X64520Y2186670D01*
X55000Y2188020D01*
Y2159580D01*
G01X107920Y2130790D02*
X114270Y2126730D01*
X117440Y2121980D01*
X118500Y2116570D01*
X116380Y2109790D01*
X111090Y2105050D01*
X104740Y2103700D01*
X98390Y2104370D01*
X93100Y2107080D01*
X82520Y2120630D01*
X75110Y2126730D01*
X64520Y2130790D01*
X55000Y2132140D01*
Y2103700D01*
G01X150050Y2505000D02*
X40050D01*
Y2275000D01*
X150050D01*
Y2505000D01*
G01X275040D02*
X165040D01*
Y2275000D01*
X275040D01*
Y2505000D01*
G01X555000Y2685000D02*
Y3215000D01*
X25000D01*
Y2685000D01*
X555000D01*
G01X25000Y3680000D02*
X-85000D01*
Y3450000D01*
X25000D01*
Y3680000D01*
G01X-48210Y3755220D02*
X-51380Y3751160D01*
X-53500Y3746420D01*
Y3741000D01*
X-50320Y3734900D01*
X-45030Y3730160D01*
X-38680Y3726770D01*
X-28100Y3724060D01*
X-18570Y3723390D01*
X-9050Y3724740D01*
X-2700Y3726770D01*
X3650Y3730840D01*
X7880Y3735580D01*
X10000Y3740320D01*
Y3745060D01*
X7880Y3749800D01*
X4710Y3753870D01*
X480Y3757250D01*
G01X-42920Y3783330D02*
X-49270Y3787390D01*
X-52440Y3792140D01*
X-53500Y3797550D01*
X-51380Y3804330D01*
X-46090Y3809070D01*
X-39740Y3810420D01*
X-33390Y3809750D01*
X-28100Y3807040D01*
X-17520Y3793490D01*
X-10110Y3787390D01*
X480Y3783330D01*
X10000Y3781980D01*
Y3810420D01*
G01X-2700Y3837180D02*
X4710Y3841240D01*
X8940Y3846660D01*
X10000Y3852760D01*
X8940Y3858180D01*
X3650Y3863600D01*
X-2700Y3866980D01*
X-9050Y3867660D01*
X-16460Y3866300D01*
X-21750Y3861560D01*
X-23870Y3856820D01*
Y3850730D01*
G01Y3856820D02*
X-27040Y3860890D01*
X-32330Y3864270D01*
X-38680Y3865630D01*
X-45030Y3864270D01*
X-50320Y3860890D01*
X-53500Y3854790D01*
X-52440Y3848690D01*
X-48210Y3842600D01*
G01X50000Y4505000D02*
X-60000D01*
Y4275000D01*
X50000D01*
Y4505000D01*
G01X245000D02*
X135000D01*
Y4275000D01*
X245000D01*
Y4505000D01*
G01X-25000Y4623230D02*
X38500D01*
Y4606290D01*
X35320Y4600870D01*
X31090Y4597490D01*
X22620Y4596130D01*
X14160Y4597490D01*
X8870Y4601550D01*
X5690Y4606290D01*
Y4623230D01*
G01Y4606290D02*
X-25000Y4596130D01*
G01Y4545670D02*
X38500D01*
X-7010Y4570730D01*
Y4536870D01*
G01X155000Y4623230D02*
X218500D01*
Y4606290D01*
X215320Y4600870D01*
X211090Y4597490D01*
X202620Y4596130D01*
X194160Y4597490D01*
X188870Y4601550D01*
X185690Y4606290D01*
Y4623230D01*
G01Y4606290D02*
X155000Y4596130D01*
G01X167700Y4568700D02*
X160290Y4564640D01*
X156060Y4559220D01*
X155000Y4553120D01*
X156060Y4547700D01*
X161350Y4542280D01*
X167700Y4538900D01*
X174050Y4538220D01*
X181460Y4539580D01*
X186750Y4544320D01*
X188870Y4549060D01*
Y4555150D01*
G01Y4549060D02*
X192040Y4544990D01*
X197330Y4541610D01*
X203680Y4540250D01*
X210030Y4541610D01*
X215320Y4544990D01*
X218500Y4551090D01*
X217440Y4557190D01*
X213210Y4563280D01*
G01X250000Y-4000000D02*
Y-5500000D01*
X1750000D01*
Y-4000000D01*
X250000D01*
G01Y-2000000D02*
Y-3500000D01*
X1750000D01*
Y-2000000D01*
X250000D01*
G01Y0D02*
Y-1500000D01*
X1750000D01*
Y0D01*
X250000D01*
G01X260000Y2000000D02*
Y500000D01*
X1760000D01*
Y2000000D01*
X260000D01*
G01X200000Y2238230D02*
X263500D01*
Y2221290D01*
X260320Y2215870D01*
X256090Y2212490D01*
X247620Y2211130D01*
X239160Y2212490D01*
X233870Y2216550D01*
X230690Y2221290D01*
Y2238230D01*
G01Y2221290D02*
X200000Y2211130D01*
G01X252920Y2181670D02*
X259270Y2177610D01*
X262440Y2172860D01*
X263500Y2167450D01*
X261380Y2160670D01*
X256090Y2155930D01*
X249740Y2154580D01*
X243390Y2155250D01*
X238100Y2157960D01*
X227520Y2171510D01*
X220110Y2177610D01*
X209520Y2181670D01*
X200000Y2183020D01*
Y2154580D01*
G01Y2112920D02*
X263500D01*
X250800Y2121050D01*
G01X200000D02*
Y2104790D01*
G01X310000Y2248230D02*
X373500D01*
Y2231290D01*
X370320Y2225870D01*
X366090Y2222490D01*
X357620Y2221130D01*
X349160Y2222490D01*
X343870Y2226550D01*
X340690Y2231290D01*
Y2248230D01*
G01Y2231290D02*
X310000Y2221130D01*
G01X362920Y2191670D02*
X369270Y2187610D01*
X372440Y2182860D01*
X373500Y2177450D01*
X371380Y2170670D01*
X366090Y2165930D01*
X359740Y2164580D01*
X353390Y2165250D01*
X348100Y2167960D01*
X337520Y2181510D01*
X330110Y2187610D01*
X319520Y2191670D01*
X310000Y2193020D01*
Y2164580D01*
G01X373500Y2122920D02*
X371380Y2128340D01*
X366090Y2132400D01*
X359740Y2135110D01*
X351270Y2137140D01*
X341750Y2137820D01*
X332220Y2137140D01*
X323760Y2135110D01*
X317410Y2132400D01*
X312120Y2128340D01*
X310000Y2122920D01*
X312120Y2117500D01*
X317410Y2113440D01*
X323760Y2110730D01*
X332220Y2108700D01*
X341750Y2108020D01*
X351270Y2108700D01*
X359740Y2110730D01*
X366090Y2113440D01*
X371380Y2117500D01*
X373500Y2122920D01*
G01X400030Y2505000D02*
X290030D01*
Y2275000D01*
X400030D01*
Y2505000D01*
G01X445000Y2248230D02*
X508500D01*
Y2231290D01*
X505320Y2225870D01*
X501090Y2222490D01*
X492620Y2221130D01*
X484160Y2222490D01*
X478870Y2226550D01*
X475690Y2231290D01*
Y2248230D01*
G01Y2231290D02*
X445000Y2221130D01*
G01Y2178800D02*
X508500D01*
X495800Y2186930D01*
G01X445000D02*
Y2170670D01*
G01X452410Y2134440D02*
X447120Y2129690D01*
X445000Y2124270D01*
X447120Y2118860D01*
X453460Y2114110D01*
X462990Y2110730D01*
X472520Y2109370D01*
X484160D01*
X493680Y2110730D01*
X502150Y2114110D01*
X506380Y2118180D01*
X508500Y2122920D01*
X506380Y2128340D01*
X502150Y2132400D01*
X495800Y2135110D01*
X487330Y2136470D01*
X479930Y2135110D01*
X472520Y2131730D01*
X468280Y2127660D01*
X467220Y2122920D01*
X469340Y2117500D01*
X474630Y2113440D01*
X484160Y2109370D01*
G01X525020Y2505000D02*
X415020D01*
Y2275000D01*
X525020D01*
Y2505000D01*
G01X650010D02*
X540010D01*
Y2275000D01*
X650010D01*
Y2505000D01*
G01X250420Y3288500D02*
Y3242990D01*
X253130Y3233460D01*
X258550Y3227120D01*
X265320Y3225000D01*
X272090Y3227120D01*
X277510Y3233460D01*
X280220Y3242990D01*
Y3288500D01*
G01X306300Y3234520D02*
X310360Y3229230D01*
X315100Y3226060D01*
X321200Y3225000D01*
X327300Y3227120D01*
X332040Y3231350D01*
X335420Y3238760D01*
X336100Y3247220D01*
X334750Y3255690D01*
X331360Y3260980D01*
X326620Y3265220D01*
X321880Y3266270D01*
X317140Y3265220D01*
X311040Y3260980D01*
X313070Y3288500D01*
X331360D01*
G01X170000Y3450000D02*
X280000D01*
Y3680000D01*
X170000D01*
Y3450000D01*
G01X330000D02*
X440000D01*
Y3680000D01*
X330000D01*
Y3450000D01*
G01X250000Y3726770D02*
X186500D01*
Y3743710D01*
X189680Y3749130D01*
X193910Y3752510D01*
X202380Y3753870D01*
X210840Y3752510D01*
X216130Y3748450D01*
X219310Y3743710D01*
Y3726770D01*
G01Y3743710D02*
X250000Y3753870D01*
G01Y3796200D02*
X186500D01*
X199200Y3788070D01*
G01X250000D02*
Y3804330D01*
G01X237300Y3837180D02*
X244710Y3841240D01*
X248940Y3846660D01*
X250000Y3852760D01*
X248940Y3858180D01*
X243650Y3863600D01*
X237300Y3866980D01*
X230950Y3867660D01*
X223540Y3866300D01*
X218250Y3861560D01*
X216130Y3856820D01*
Y3850730D01*
G01Y3856820D02*
X212960Y3860890D01*
X207670Y3864270D01*
X201320Y3865630D01*
X194970Y3864270D01*
X189680Y3860890D01*
X186500Y3854790D01*
X187560Y3848690D01*
X191790Y3842600D01*
G01X415000Y3721770D02*
X351500D01*
Y3738710D01*
X354680Y3744130D01*
X358910Y3747510D01*
X367380Y3748870D01*
X375840Y3747510D01*
X381130Y3743450D01*
X384310Y3738710D01*
Y3721770D01*
G01Y3738710D02*
X415000Y3748870D01*
G01Y3791200D02*
X351500D01*
X364200Y3783070D01*
G01X415000D02*
Y3799330D01*
G01Y3855210D02*
X351500D01*
X397010Y3830150D01*
Y3864010D01*
G01X440000Y4505000D02*
X330000D01*
Y4275000D01*
X440000D01*
Y4505000D01*
G01X360000Y4618230D02*
X423500D01*
Y4601290D01*
X420320Y4595870D01*
X416090Y4592490D01*
X407620Y4591130D01*
X399160Y4592490D01*
X393870Y4596550D01*
X390690Y4601290D01*
Y4618230D01*
G01Y4601290D02*
X360000Y4591130D01*
G01X412920Y4561670D02*
X419270Y4557610D01*
X422440Y4552860D01*
X423500Y4547450D01*
X421380Y4540670D01*
X416090Y4535930D01*
X409740Y4534580D01*
X403390Y4535250D01*
X398100Y4537960D01*
X387520Y4551510D01*
X380110Y4557610D01*
X369520Y4561670D01*
X360000Y4563020D01*
Y4534580D01*
G01X961130Y-3872270D02*
X967560Y-3865920D01*
X972390Y-3855340D01*
X975610Y-3840510D01*
X972390Y-3827820D01*
X965960Y-3819350D01*
X954690Y-3813000D01*
X911260D01*
Y-3940000D01*
X964350D01*
X975610Y-3931540D01*
X982040Y-3918830D01*
X985260Y-3904020D01*
X982040Y-3889200D01*
X972390Y-3876500D01*
X961130Y-3872270D01*
X911260D01*
G01X1077800Y-3940000D02*
Y-3813000D01*
X1058500Y-3838400D01*
G01Y-3940000D02*
X1097100D01*
G01X1176770Y-3834170D02*
X1186430Y-3821470D01*
X1197690Y-3815120D01*
X1210560Y-3813000D01*
X1226640Y-3817230D01*
X1237910Y-3827820D01*
X1241120Y-3840510D01*
X1239510Y-3853220D01*
X1233080Y-3863800D01*
X1200910Y-3884970D01*
X1186430Y-3899780D01*
X1176770Y-3920950D01*
X1173560Y-3940000D01*
X1241120D01*
G01X961130Y-1872270D02*
X967560Y-1865920D01*
X972390Y-1855340D01*
X975610Y-1840510D01*
X972390Y-1827820D01*
X965960Y-1819350D01*
X954690Y-1813000D01*
X911260D01*
Y-1940000D01*
X964350D01*
X975610Y-1931540D01*
X982040Y-1918830D01*
X985260Y-1904020D01*
X982040Y-1889200D01*
X972390Y-1876500D01*
X961130Y-1872270D01*
X911260D01*
G01X1097100Y-1940000D02*
Y-1813000D01*
X1037580Y-1904020D01*
X1118020D01*
G01X961130Y127730D02*
X967560Y134080D01*
X972390Y144660D01*
X975610Y159490D01*
X972390Y172180D01*
X965960Y180650D01*
X954690Y187000D01*
X911260D01*
Y60000D01*
X964350D01*
X975610Y68460D01*
X982040Y81170D01*
X985260Y95980D01*
X982040Y110800D01*
X972390Y123500D01*
X961130Y127730D01*
X911260D01*
G01X1077800Y60000D02*
Y187000D01*
X1058500Y161600D01*
G01Y60000D02*
X1097100D01*
G01X1207340D02*
Y187000D01*
X1188040Y161600D01*
G01Y60000D02*
X1226640D01*
G01X971130Y2127730D02*
X977560Y2134080D01*
X982390Y2144660D01*
X985610Y2159490D01*
X982390Y2172180D01*
X975960Y2180650D01*
X964690Y2187000D01*
X921260D01*
Y2060000D01*
X974350D01*
X985610Y2068460D01*
X992040Y2081170D01*
X995260Y2095980D01*
X992040Y2110800D01*
X982390Y2123500D01*
X971130Y2127730D01*
X921260D01*
G01X1052410Y2085400D02*
X1062060Y2070580D01*
X1074930Y2062120D01*
X1089410Y2060000D01*
X1102280Y2062120D01*
X1115150Y2072700D01*
X1123190Y2085400D01*
X1124800Y2098100D01*
X1121580Y2112910D01*
X1110320Y2123500D01*
X1099060Y2127730D01*
X1084580D01*
G01X1099060D02*
X1108710Y2134080D01*
X1116760Y2144660D01*
X1119970Y2157370D01*
X1116760Y2170070D01*
X1108710Y2180650D01*
X1094230Y2187000D01*
X1079760Y2184880D01*
X1065280Y2176420D01*
G01X575000Y2253230D02*
X638500D01*
Y2236290D01*
X635320Y2230870D01*
X631090Y2227490D01*
X622620Y2226130D01*
X614160Y2227490D01*
X608870Y2231550D01*
X605690Y2236290D01*
Y2253230D01*
G01Y2236290D02*
X575000Y2226130D01*
G01Y2183800D02*
X638500D01*
X625800Y2191930D01*
G01X575000D02*
Y2175670D01*
G01Y2127920D02*
X576060Y2123180D01*
X579230Y2117760D01*
X584520Y2114370D01*
X591930Y2113020D01*
X599340Y2114370D01*
X605690Y2118440D01*
X608870Y2124530D01*
Y2131310D01*
X610980Y2135370D01*
X616270Y2138760D01*
X623680Y2140110D01*
X631090Y2138080D01*
X636380Y2133340D01*
X638500Y2127920D01*
X636380Y2122500D01*
X631090Y2117760D01*
X623680Y2115730D01*
X616270Y2117080D01*
X610980Y2120470D01*
X608870Y2124530D01*
Y2131310D01*
X605690Y2137400D01*
X599340Y2141470D01*
X591930Y2142820D01*
X584520Y2141470D01*
X579230Y2138080D01*
X576060Y2132660D01*
X575000Y2127920D01*
G01X705000Y2253230D02*
X768500D01*
Y2236290D01*
X765320Y2230870D01*
X761090Y2227490D01*
X752620Y2226130D01*
X744160Y2227490D01*
X738870Y2231550D01*
X735690Y2236290D01*
Y2253230D01*
G01Y2236290D02*
X705000Y2226130D01*
G01Y2183800D02*
X768500D01*
X755800Y2191930D01*
G01X705000D02*
Y2175670D01*
G01Y2129270D02*
X718760Y2127920D01*
X730400Y2125890D01*
X740980Y2123180D01*
X752620Y2119790D01*
X768500Y2114370D01*
Y2141470D01*
G01X775000Y2505000D02*
X665000D01*
Y2275000D01*
X775000D01*
Y2505000D01*
G01X821790Y3825220D02*
X818620Y3821160D01*
X816500Y3816420D01*
Y3811000D01*
X819680Y3804900D01*
X824970Y3800160D01*
X831320Y3796770D01*
X841900Y3794060D01*
X851430Y3793390D01*
X860950Y3794740D01*
X867300Y3796770D01*
X873650Y3800840D01*
X877880Y3805580D01*
X880000Y3810320D01*
Y3815060D01*
X877880Y3819800D01*
X874710Y3823870D01*
X870480Y3827250D01*
G01X880000Y3866200D02*
X816500D01*
X829200Y3858070D01*
G01X880000D02*
Y3874330D01*
G01X870480Y3907180D02*
X875770Y3911240D01*
X878940Y3915980D01*
X880000Y3922080D01*
X877880Y3928180D01*
X873650Y3932920D01*
X866240Y3936300D01*
X857780Y3936980D01*
X849310Y3935630D01*
X844020Y3932240D01*
X839780Y3927500D01*
X838730Y3922760D01*
X839780Y3918020D01*
X844020Y3911920D01*
X816500Y3913950D01*
Y3932240D01*
G01X898000Y3749000D02*
X1008000D01*
Y3979000D01*
X898000D01*
Y3749000D01*
G01X883000Y4080770D02*
X819500D01*
Y4097710D01*
X822680Y4103130D01*
X826910Y4106510D01*
X835380Y4107870D01*
X843840Y4106510D01*
X849130Y4102450D01*
X852310Y4097710D01*
Y4080770D01*
G01Y4097710D02*
X883000Y4107870D01*
G01Y4150200D02*
X819500D01*
X832200Y4142070D01*
G01X883000D02*
Y4158330D01*
G01X898000Y4004000D02*
X1008000D01*
Y4234000D01*
X898000D01*
Y4004000D01*
G01X1590220Y3158210D02*
X1586160Y3161380D01*
X1581420Y3163500D01*
X1576000D01*
X1569900Y3160320D01*
X1565160Y3155030D01*
X1561770Y3148680D01*
X1559060Y3138100D01*
X1558390Y3128570D01*
X1559740Y3119050D01*
X1561770Y3112700D01*
X1565840Y3106350D01*
X1570580Y3102120D01*
X1575320Y3100000D01*
X1580060D01*
X1584800Y3102120D01*
X1588870Y3105290D01*
X1592250Y3109520D01*
G01X1631200Y3100000D02*
Y3163500D01*
X1623070Y3150800D01*
G01Y3100000D02*
X1639330D01*
G01X1687080Y3163500D02*
X1681660Y3161380D01*
X1677600Y3156090D01*
X1674890Y3149740D01*
X1672860Y3141270D01*
X1672180Y3131750D01*
X1672860Y3122220D01*
X1674890Y3113760D01*
X1677600Y3107410D01*
X1681660Y3102120D01*
X1687080Y3100000D01*
X1692500Y3102120D01*
X1696560Y3107410D01*
X1699270Y3113760D01*
X1701300Y3122220D01*
X1701980Y3131750D01*
X1701300Y3141270D01*
X1699270Y3149740D01*
X1696560Y3156090D01*
X1692500Y3161380D01*
X1687080Y3163500D01*
G01X1475220Y3298210D02*
X1471160Y3301380D01*
X1466420Y3303500D01*
X1461000D01*
X1454900Y3300320D01*
X1450160Y3295030D01*
X1446770Y3288680D01*
X1444060Y3278100D01*
X1443390Y3268570D01*
X1444740Y3259050D01*
X1446770Y3252700D01*
X1450840Y3246350D01*
X1455580Y3242120D01*
X1460320Y3240000D01*
X1465060D01*
X1469800Y3242120D01*
X1473870Y3245290D01*
X1477250Y3249520D01*
G01X1516200Y3240000D02*
Y3303500D01*
X1508070Y3290800D01*
G01Y3240000D02*
X1524330D01*
G01X1572080D02*
Y3303500D01*
X1563950Y3290800D01*
G01Y3240000D02*
X1580210D01*
G01X1620000Y3320020D02*
Y3210020D01*
X1850000D01*
Y3320020D01*
X1620000D01*
G01X1525220Y3468210D02*
X1521160Y3471380D01*
X1516420Y3473500D01*
X1511000D01*
X1504900Y3470320D01*
X1500160Y3465030D01*
X1496770Y3458680D01*
X1494060Y3448100D01*
X1493390Y3438570D01*
X1494740Y3429050D01*
X1496770Y3422700D01*
X1500840Y3416350D01*
X1505580Y3412120D01*
X1510320Y3410000D01*
X1515060D01*
X1519800Y3412120D01*
X1523870Y3415290D01*
X1527250Y3419520D01*
G01X1553330Y3436460D02*
X1558070Y3443870D01*
X1562140Y3448100D01*
X1567550Y3450220D01*
X1572300Y3448100D01*
X1575680Y3443870D01*
X1578390Y3437520D01*
X1579070Y3430110D01*
X1578390Y3423760D01*
X1575680Y3417410D01*
X1571620Y3412120D01*
X1566880Y3410000D01*
X1561460Y3412120D01*
X1556720Y3418460D01*
X1554010Y3427990D01*
X1553330Y3438570D01*
X1554680Y3452330D01*
X1556720Y3459740D01*
X1560100Y3467150D01*
X1564850Y3472440D01*
X1569590Y3473500D01*
X1574330Y3471380D01*
X1577720Y3466090D01*
G01X1620000Y3491680D02*
Y3381680D01*
X1850000D01*
Y3491680D01*
X1620000D01*
G01X1850000Y3553340D02*
Y3663340D01*
X1620000D01*
Y3553340D01*
X1850000D01*
G01X1496770Y3813500D02*
Y3750000D01*
X1523870D01*
G01X1553330Y3802920D02*
X1557390Y3809270D01*
X1562140Y3812440D01*
X1567550Y3813500D01*
X1574330Y3811380D01*
X1579070Y3806090D01*
X1580420Y3799740D01*
X1579750Y3793390D01*
X1577040Y3788100D01*
X1563490Y3777520D01*
X1557390Y3770110D01*
X1553330Y3759520D01*
X1551980Y3750000D01*
X1580420D01*
G01X1837500Y3560840D02*
Y3655840D01*
X1632500D01*
Y3560840D01*
X1837500D01*
G01X1496770Y3643500D02*
Y3580000D01*
X1523870D01*
G01X1566200D02*
Y3643500D01*
X1558070Y3630800D01*
G01Y3580000D02*
X1574330D01*
G01X1620000Y3835000D02*
Y3725000D01*
X1850000D01*
Y3835000D01*
X1620000D01*
G01X1632500Y3827500D02*
Y3732500D01*
X1837500D01*
Y3827500D01*
X1632500D01*
G01X1508060Y4385400D02*
X1516100Y4372700D01*
X1525750Y4364230D01*
X1537010Y4360000D01*
X1549880Y4364230D01*
X1559530Y4372700D01*
X1569190Y4385400D01*
X1572400Y4402330D01*
Y4487000D01*
G01X1669770Y4360000D02*
Y4487000D01*
X1650470Y4461600D01*
G01Y4360000D02*
X1689070D01*
G01X1756000Y3191000D02*
Y3081000D01*
X1986000D01*
Y3191000D01*
X1756000D01*
G01X2250000Y-4000000D02*
Y-5500000D01*
X3750000D01*
Y-4000000D01*
X2250000D01*
G01Y-2000000D02*
Y-3500000D01*
X3750000D01*
Y-2000000D01*
X2250000D01*
G01Y0D02*
Y-1500000D01*
X3750000D01*
Y0D01*
X2250000D01*
G01Y2000000D02*
Y500000D01*
X3750000D01*
Y2000000D01*
X2250000D01*
G01X2391790Y2550220D02*
X2388620Y2546160D01*
X2386500Y2541420D01*
Y2536000D01*
X2389680Y2529900D01*
X2394970Y2525160D01*
X2401320Y2521770D01*
X2411900Y2519060D01*
X2421430Y2518390D01*
X2430950Y2519740D01*
X2437300Y2521770D01*
X2443650Y2525840D01*
X2447880Y2530580D01*
X2450000Y2535320D01*
Y2540060D01*
X2447880Y2544800D01*
X2444710Y2548870D01*
X2440480Y2552250D01*
G01Y2576300D02*
X2445770Y2580360D01*
X2448940Y2585100D01*
X2450000Y2591200D01*
X2447880Y2597300D01*
X2443650Y2602040D01*
X2436240Y2605420D01*
X2427780Y2606100D01*
X2419310Y2604750D01*
X2414020Y2601360D01*
X2409780Y2596620D01*
X2408730Y2591880D01*
X2409780Y2587140D01*
X2414020Y2581040D01*
X2386500Y2583070D01*
Y2601360D01*
G01X2365000Y2675000D02*
X2475000D01*
Y2905000D01*
X2365000D01*
Y2675000D01*
G01X2100000Y3620000D02*
Y3000000D01*
X2720000D01*
Y3620000D01*
X2100000D01*
G01X2373210Y3874780D02*
X2376380Y3878840D01*
X2378500Y3883580D01*
Y3889000D01*
X2375320Y3895100D01*
X2370030Y3899840D01*
X2363680Y3903230D01*
X2353100Y3905940D01*
X2343570Y3906610D01*
X2334050Y3905260D01*
X2327700Y3903230D01*
X2321350Y3899160D01*
X2317120Y3894420D01*
X2315000Y3889680D01*
Y3884940D01*
X2317120Y3880200D01*
X2320290Y3876130D01*
X2324520Y3872750D01*
G01X2322410Y3845320D02*
X2317120Y3840570D01*
X2315000Y3835150D01*
X2317120Y3829740D01*
X2323460Y3824990D01*
X2332990Y3821610D01*
X2342520Y3820250D01*
X2354160D01*
X2363680Y3821610D01*
X2372150Y3824990D01*
X2376380Y3829060D01*
X2378500Y3833800D01*
X2376380Y3839220D01*
X2372150Y3843280D01*
X2365800Y3845990D01*
X2357330Y3847350D01*
X2349930Y3845990D01*
X2342520Y3842610D01*
X2338280Y3838540D01*
X2337220Y3833800D01*
X2339340Y3828380D01*
X2344630Y3824320D01*
X2354160Y3820250D01*
G01X2290000Y3981000D02*
X2180000D01*
Y3751000D01*
X2290000D01*
Y3981000D01*
G01X2342790Y3773740D02*
Y3717310D01*
X2346680Y3705500D01*
X2354470Y3697620D01*
X2364210Y3695000D01*
X2373950Y3697620D01*
X2381740Y3705500D01*
X2385630Y3717310D01*
Y3773740D01*
G01X2442950Y3695000D02*
Y3773740D01*
X2431270Y3757990D01*
G01Y3695000D02*
X2454630D01*
G01X2393210Y4259780D02*
X2396380Y4263840D01*
X2398500Y4268580D01*
Y4274000D01*
X2395320Y4280100D01*
X2390030Y4284840D01*
X2383680Y4288230D01*
X2373100Y4290940D01*
X2363570Y4291610D01*
X2354050Y4290260D01*
X2347700Y4288230D01*
X2341350Y4284160D01*
X2337120Y4279420D01*
X2335000Y4274680D01*
Y4269940D01*
X2337120Y4265200D01*
X2340290Y4261130D01*
X2344520Y4257750D01*
G01X2347700Y4233700D02*
X2340290Y4229640D01*
X2336060Y4224220D01*
X2335000Y4218120D01*
X2336060Y4212700D01*
X2341350Y4207280D01*
X2347700Y4203900D01*
X2354050Y4203220D01*
X2361460Y4204580D01*
X2366750Y4209320D01*
X2368870Y4214060D01*
Y4220150D01*
G01Y4214060D02*
X2372040Y4209990D01*
X2377330Y4206610D01*
X2383680Y4205250D01*
X2390030Y4206610D01*
X2395320Y4209990D01*
X2398500Y4216090D01*
X2397440Y4222190D01*
X2393210Y4228280D01*
G01X2290000Y4365000D02*
X2180000D01*
Y4135000D01*
X2290000D01*
Y4365000D01*
G01X2700000Y2837500D02*
Y2562500D01*
X3060000D01*
Y2837500D01*
X2700000D01*
G01X2506790Y2550220D02*
X2503620Y2546160D01*
X2501500Y2541420D01*
Y2536000D01*
X2504680Y2529900D01*
X2509970Y2525160D01*
X2516320Y2521770D01*
X2526900Y2519060D01*
X2536430Y2518390D01*
X2545950Y2519740D01*
X2552300Y2521770D01*
X2558650Y2525840D01*
X2562880Y2530580D01*
X2565000Y2535320D01*
Y2540060D01*
X2562880Y2544800D01*
X2559710Y2548870D01*
X2555480Y2552250D01*
G01X2565000Y2589850D02*
X2551240Y2591200D01*
X2539600Y2593230D01*
X2529020Y2595940D01*
X2517380Y2599330D01*
X2501500Y2604750D01*
Y2577650D01*
G01X2479000Y2678000D02*
X2589000D01*
Y2908000D01*
X2479000D01*
Y2678000D01*
G01X2833210Y3834780D02*
X2836380Y3838840D01*
X2838500Y3843580D01*
Y3849000D01*
X2835320Y3855100D01*
X2830030Y3859840D01*
X2823680Y3863230D01*
X2813100Y3865940D01*
X2803570Y3866610D01*
X2794050Y3865260D01*
X2787700Y3863230D01*
X2781350Y3859160D01*
X2777120Y3854420D01*
X2775000Y3849680D01*
Y3844940D01*
X2777120Y3840200D01*
X2780290Y3836130D01*
X2784520Y3832750D01*
G01X2775000Y3785670D02*
X2838500D01*
X2792990Y3810730D01*
Y3776870D01*
G01X2740000Y3930000D02*
X2630000D01*
Y3700000D01*
X2740000D01*
Y3930000D01*
G01X2961130Y-3872270D02*
X2967560Y-3865920D01*
X2972390Y-3855340D01*
X2975610Y-3840510D01*
X2972390Y-3827820D01*
X2965960Y-3819350D01*
X2954690Y-3813000D01*
X2911260D01*
Y-3940000D01*
X2964350D01*
X2975610Y-3931540D01*
X2982040Y-3918830D01*
X2985260Y-3904020D01*
X2982040Y-3889200D01*
X2972390Y-3876500D01*
X2961130Y-3872270D01*
X2911260D01*
G01X3077800Y-3940000D02*
Y-3813000D01*
X3058500Y-3838400D01*
G01Y-3940000D02*
X3097100D01*
G01X3226640D02*
Y-3813000D01*
X3167120Y-3904020D01*
X3247560D01*
G01X2961130Y-1872270D02*
X2967560Y-1865920D01*
X2972390Y-1855340D01*
X2975610Y-1840510D01*
X2972390Y-1827820D01*
X2965960Y-1819350D01*
X2954690Y-1813000D01*
X2911260D01*
Y-1940000D01*
X2964350D01*
X2975610Y-1931540D01*
X2982040Y-1918830D01*
X2985260Y-1904020D01*
X2982040Y-1889200D01*
X2972390Y-1876500D01*
X2961130Y-1872270D01*
X2911260D01*
G01X3047230Y-1887090D02*
X3058500Y-1872270D01*
X3068150Y-1863800D01*
X3081020Y-1859570D01*
X3092280Y-1863800D01*
X3100320Y-1872270D01*
X3106760Y-1884970D01*
X3108370Y-1899780D01*
X3106760Y-1912490D01*
X3100320Y-1925190D01*
X3090670Y-1935770D01*
X3079410Y-1940000D01*
X3066540Y-1935770D01*
X3055280Y-1923070D01*
X3048840Y-1904020D01*
X3047230Y-1882850D01*
X3050450Y-1855340D01*
X3055280Y-1840510D01*
X3063320Y-1825700D01*
X3074580Y-1815120D01*
X3085840Y-1813000D01*
X3097100Y-1817230D01*
X3105150Y-1827820D01*
G01X2961130Y127730D02*
X2967560Y134080D01*
X2972390Y144660D01*
X2975610Y159490D01*
X2972390Y172180D01*
X2965960Y180650D01*
X2954690Y187000D01*
X2911260D01*
Y60000D01*
X2964350D01*
X2975610Y68460D01*
X2982040Y81170D01*
X2985260Y95980D01*
X2982040Y110800D01*
X2972390Y123500D01*
X2961130Y127730D01*
X2911260D01*
G01X3077800Y60000D02*
Y187000D01*
X3058500Y161600D01*
G01Y60000D02*
X3097100D01*
G01X3171950Y85400D02*
X3181600Y70580D01*
X3194470Y62120D01*
X3208950Y60000D01*
X3221820Y62120D01*
X3234690Y72700D01*
X3242730Y85400D01*
X3244340Y98100D01*
X3241120Y112910D01*
X3229860Y123500D01*
X3218600Y127730D01*
X3204120D01*
G01X3218600D02*
X3228250Y134080D01*
X3236300Y144660D01*
X3239510Y157370D01*
X3236300Y170070D01*
X3228250Y180650D01*
X3213770Y187000D01*
X3199300Y184880D01*
X3184820Y176420D01*
G01X2961130Y2127730D02*
X2967560Y2134080D01*
X2972390Y2144660D01*
X2975610Y2159490D01*
X2972390Y2172180D01*
X2965960Y2180650D01*
X2954690Y2187000D01*
X2911260D01*
Y2060000D01*
X2964350D01*
X2975610Y2068460D01*
X2982040Y2081170D01*
X2985260Y2095980D01*
X2982040Y2110800D01*
X2972390Y2123500D01*
X2961130Y2127730D01*
X2911260D01*
G01X3042410Y2079050D02*
X3052060Y2068460D01*
X3063320Y2062120D01*
X3077800Y2060000D01*
X3092280Y2064230D01*
X3103540Y2072700D01*
X3111580Y2087510D01*
X3113190Y2104450D01*
X3109970Y2121380D01*
X3101930Y2131970D01*
X3090670Y2140430D01*
X3079410Y2142550D01*
X3068150Y2140430D01*
X3053670Y2131970D01*
X3058500Y2187000D01*
X3101930D01*
G01X2869210Y2465000D02*
Y2500430D01*
X2849740Y2543740D01*
G01X2888680D02*
X2869210Y2500430D01*
G01X2947950Y2465000D02*
Y2543740D01*
X2936270Y2527990D01*
G01Y2465000D02*
X2959630D01*
G01X3155220Y2988210D02*
X3151160Y2991380D01*
X3146420Y2993500D01*
X3141000D01*
X3134900Y2990320D01*
X3130160Y2985030D01*
X3126770Y2978680D01*
X3124060Y2968100D01*
X3123390Y2958570D01*
X3124740Y2949050D01*
X3126770Y2942700D01*
X3130840Y2936350D01*
X3135580Y2932120D01*
X3140320Y2930000D01*
X3145060D01*
X3149800Y2932120D01*
X3153870Y2935290D01*
X3157250Y2939520D01*
G01X3196200Y2930000D02*
X3200940Y2931060D01*
X3206360Y2934230D01*
X3209750Y2939520D01*
X3211100Y2946930D01*
X3209750Y2954340D01*
X3205680Y2960690D01*
X3199590Y2963870D01*
X3192810D01*
X3188750Y2965980D01*
X3185360Y2971270D01*
X3184010Y2978680D01*
X3186040Y2986090D01*
X3190780Y2991380D01*
X3196200Y2993500D01*
X3201620Y2991380D01*
X3206360Y2986090D01*
X3208390Y2978680D01*
X3207040Y2971270D01*
X3203650Y2965980D01*
X3199590Y2963870D01*
X3192810D01*
X3186720Y2960690D01*
X3182650Y2954340D01*
X3181300Y2946930D01*
X3182650Y2939520D01*
X3186040Y2934230D01*
X3191460Y2931060D01*
X3196200Y2930000D01*
G01X3105000Y2900000D02*
Y3010000D01*
X2875000D01*
Y2900000D01*
X3105000D01*
G01X2866260Y3217530D02*
Y3240890D01*
G01Y3229210D02*
X2945000D01*
G01Y3217530D02*
Y3240890D01*
G01X2872820Y3329370D02*
X2868880Y3323530D01*
X2866260Y3316710D01*
Y3308920D01*
X2870200Y3300160D01*
X2876760Y3293350D01*
X2884630Y3288480D01*
X2897760Y3284580D01*
X2909570Y3283610D01*
X2921380Y3285560D01*
X2929250Y3288480D01*
X2937130Y3294320D01*
X2942380Y3301130D01*
X2945000Y3307950D01*
Y3314770D01*
X2942380Y3321580D01*
X2938440Y3327420D01*
X2933190Y3332290D01*
G01X2945000Y3386690D02*
X2866260D01*
X2882010Y3375010D01*
G01X2945000D02*
Y3398370D01*
G01X2959000Y3196000D02*
X3099000D01*
Y3416000D01*
X2959000D01*
Y3196000D01*
G01X3401790Y2660220D02*
X3398620Y2656160D01*
X3396500Y2651420D01*
Y2646000D01*
X3399680Y2639900D01*
X3404970Y2635160D01*
X3411320Y2631770D01*
X3421900Y2629060D01*
X3431430Y2628390D01*
X3440950Y2629740D01*
X3447300Y2631770D01*
X3453650Y2635840D01*
X3457880Y2640580D01*
X3460000Y2645320D01*
Y2650060D01*
X3457880Y2654800D01*
X3454710Y2658870D01*
X3450480Y2662250D01*
G01X3460000Y2701200D02*
X3396500D01*
X3409200Y2693070D01*
G01X3460000D02*
Y2709330D01*
G01X3447300Y2742180D02*
X3454710Y2746240D01*
X3458940Y2751660D01*
X3460000Y2757760D01*
X3458940Y2763180D01*
X3453650Y2768600D01*
X3447300Y2771980D01*
X3440950Y2772660D01*
X3433540Y2771300D01*
X3428250Y2766560D01*
X3426130Y2761820D01*
Y2755730D01*
G01Y2761820D02*
X3422960Y2765890D01*
X3417670Y2769270D01*
X3411320Y2770630D01*
X3404970Y2769270D01*
X3399680Y2765890D01*
X3396500Y2759790D01*
X3397560Y2753690D01*
X3401790Y2747600D01*
G01X3374000Y2852000D02*
X3484000D01*
Y3082000D01*
X3374000D01*
Y2852000D01*
G01X3501770Y3218500D02*
Y3155000D01*
X3528870D01*
G01X3556300Y3167700D02*
X3560360Y3160290D01*
X3565780Y3156060D01*
X3571880Y3155000D01*
X3577300Y3156060D01*
X3582720Y3161350D01*
X3586100Y3167700D01*
X3586780Y3174050D01*
X3585420Y3181460D01*
X3580680Y3186750D01*
X3575940Y3188870D01*
X3569850D01*
G01X3575940D02*
X3580010Y3192040D01*
X3583390Y3197330D01*
X3584750Y3203680D01*
X3583390Y3210030D01*
X3580010Y3215320D01*
X3573910Y3218500D01*
X3567810Y3217440D01*
X3561720Y3213210D01*
G01X3247000Y3238000D02*
Y3128000D01*
X3477000D01*
Y3238000D01*
X3247000D01*
G01X3259500Y3230500D02*
Y3135500D01*
X3464500D01*
Y3230500D01*
X3259500D01*
G01X3477000Y3331000D02*
Y3441000D01*
X3247000D01*
Y3331000D01*
X3477000D01*
G01Y3480000D02*
Y3590000D01*
X3247000D01*
Y3480000D01*
X3477000D01*
G01X3927000Y2852000D02*
X4037000D01*
Y3082000D01*
X3927000D01*
Y2852000D01*
G01X3666770Y3168500D02*
Y3105000D01*
X3693870D01*
G01X3744330D02*
Y3168500D01*
X3719270Y3122990D01*
X3753130D01*
G01X3590000Y3090000D02*
Y2980000D01*
X3820000D01*
Y3090000D01*
X3590000D01*
G01X3602500Y3082500D02*
Y2987500D01*
X3807500D01*
Y3082500D01*
X3602500D01*
G01X3615220Y3428210D02*
X3611160Y3431380D01*
X3606420Y3433500D01*
X3601000D01*
X3594900Y3430320D01*
X3590160Y3425030D01*
X3586770Y3418680D01*
X3584060Y3408100D01*
X3583390Y3398570D01*
X3584740Y3389050D01*
X3586770Y3382700D01*
X3590840Y3376350D01*
X3595580Y3372120D01*
X3600320Y3370000D01*
X3605060D01*
X3609800Y3372120D01*
X3613870Y3375290D01*
X3617250Y3379520D01*
G01X3656200Y3370000D02*
Y3433500D01*
X3648070Y3420800D01*
G01Y3370000D02*
X3664330D01*
G01X3610220Y3573210D02*
X3606160Y3576380D01*
X3601420Y3578500D01*
X3596000D01*
X3589900Y3575320D01*
X3585160Y3570030D01*
X3581770Y3563680D01*
X3579060Y3553100D01*
X3578390Y3543570D01*
X3579740Y3534050D01*
X3581770Y3527700D01*
X3585840Y3521350D01*
X3590580Y3517120D01*
X3595320Y3515000D01*
X3600060D01*
X3604800Y3517120D01*
X3608870Y3520290D01*
X3612250Y3524520D01*
G01X3638330Y3567920D02*
X3642390Y3574270D01*
X3647140Y3577440D01*
X3652550Y3578500D01*
X3659330Y3576380D01*
X3664070Y3571090D01*
X3665420Y3564740D01*
X3664750Y3558390D01*
X3662040Y3553100D01*
X3648490Y3542520D01*
X3642390Y3535110D01*
X3638330Y3524520D01*
X3636980Y3515000D01*
X3665420D01*
G01X3956790Y2670220D02*
X3953620Y2666160D01*
X3951500Y2661420D01*
Y2656000D01*
X3954680Y2649900D01*
X3959970Y2645160D01*
X3966320Y2641770D01*
X3976900Y2639060D01*
X3986430Y2638390D01*
X3995950Y2639740D01*
X4002300Y2641770D01*
X4008650Y2645840D01*
X4012880Y2650580D01*
X4015000Y2655320D01*
Y2660060D01*
X4012880Y2664800D01*
X4009710Y2668870D01*
X4005480Y2672250D01*
G01X4015000Y2711200D02*
X3951500D01*
X3964200Y2703070D01*
G01X4015000D02*
Y2719330D01*
G01Y2775210D02*
X3951500D01*
X3997010Y2750150D01*
Y2784010D01*
G01X4210220Y3163210D02*
X4206160Y3166380D01*
X4201420Y3168500D01*
X4196000D01*
X4189900Y3165320D01*
X4185160Y3160030D01*
X4181770Y3153680D01*
X4179060Y3143100D01*
X4178390Y3133570D01*
X4179740Y3124050D01*
X4181770Y3117700D01*
X4185840Y3111350D01*
X4190580Y3107120D01*
X4195320Y3105000D01*
X4200060D01*
X4204800Y3107120D01*
X4208870Y3110290D01*
X4212250Y3114520D01*
G01X4251200Y3105000D02*
Y3168500D01*
X4243070Y3155800D01*
G01Y3105000D02*
X4259330D01*
G01X4294210Y3157920D02*
X4298270Y3164270D01*
X4303020Y3167440D01*
X4308430Y3168500D01*
X4315210Y3166380D01*
X4319950Y3161090D01*
X4321300Y3154740D01*
X4320630Y3148390D01*
X4317920Y3143100D01*
X4304370Y3132520D01*
X4298270Y3125110D01*
X4294210Y3114520D01*
X4292860Y3105000D01*
X4321300D01*
G01X4131000Y3090000D02*
Y2980000D01*
X4361000D01*
Y3090000D01*
X4131000D01*
G01X4506000Y3364130D02*
X4584740Y3339790D01*
X4506000Y3315450D01*
G01X4533560Y3324210D02*
Y3355370D01*
G01X4506000Y3261050D02*
X4584740D01*
X4568990Y3272730D01*
G01X4506000D02*
Y3249370D01*
M02*
