G04 ================== begin FILE IDENTIFICATION RECORD ==================*
G04 Layout Name:  C:/Users/Andreaa/ESE/Launchpad/allegro/LAUNCHPAD.brd*
G04 Film Name:    TOP*
G04 File Format:  Gerber RS274X*
G04 File Origin:  Cadence Allegro 17.2-S071*
G04 Origin Date:  Tue Jan 19 23:11:18 2021*
G04 *
G04 Layer:  VIA CLASS/TOP*
G04 Layer:  PIN/TOP*
G04 Layer:  ETCH/TOP*
G04 Layer:  BOARD GEOMETRY/DESIGN_OUTLINE*
G04 *
G04 Offset:    (0.0000 0.0000)*
G04 Mirror:    No*
G04 Mode:      Positive*
G04 Rotation:  0*
G04 FullContactRelief:  No*
G04 UndefLineWidth:     0.1500*
G04 ================== end FILE IDENTIFICATION RECORD ====================*
%FSLAX25Y25*MOMM*%
%IR0*IPPOS*OFA0.00000B0.00000*MIA0B0*SFA1.00000B1.00000*%
%ADD16R,1.3749X1.8999*%
%ADD25R,1.X.8001*%
%ADD43R,1.4X.7*%
%ADD26R,.7X1.5001*%
%ADD20C,.4*%
%ADD21C,.5001*%
%ADD11C,.6*%
%ADD29R,.8001X1.38*%
%ADD15R,.4501X1.38*%
%ADD27C,.9002*%
%ADD45R,.5001X.5001*%
%ADD24R,.4501X.4501*%
%ADD17R,1.3X.5499*%
%ADD28R,1.4X.2799*%
%AMMACRO38*
4,1,44,-.2199,-.12,
.2199,-.12,
.233793,-.118793,
.247265,-.115192,
.259907,-.109307,
.271335,-.101316,
.281201,-.091461,
.289207,-.080043,
.295108,-.067409,
.298726,-.053941,
.29995,-.04005,
.2999,-.04,
.2999,.04,
.298735,.053892,
.295125,.067362,
.289232,.08,
.281234,.091423,
.271373,.101284,
.25995,.109282,
.247312,.115175,
.233842,.118785,
.21995,.12,
.2199,.12,
-.2199,.12,
-.233793,.118793,
-.247265,.115192,
-.259907,.109307,
-.271335,.101316,
-.281201,.091461,
-.289207,.080043,
-.295108,.067409,
-.298726,.053941,
-.29995,.04005,
-.2999,.04,
-.2999,-.04,
-.298735,-.053892,
-.295125,-.067362,
-.289232,-.08,
-.281234,-.091423,
-.271373,-.101284,
-.25995,-.109282,
-.247312,-.115175,
-.233842,-.118785,
-.21995,-.12,
-.2199,-.12,
0.0*
%
%ADD38MACRO38*%
%AMMACRO34*
4,1,21,-.4249,0.0,
-.423042,-.021705,
-.417394,-.04275,
-.408178,-.062493,
-.395673,-.080337,
-.38026,-.095738,
-.362407,-.108228,
-.342656,-.117429,
-.321607,-.12306,
-.2999,-.1249,
.4249,-.1249,
.4249,.1249,
-.2999,.1249,
-.321607,.12306,
-.342656,.117429,
-.362407,.108228,
-.38026,.095738,
-.395673,.080337,
-.408178,.062493,
-.417394,.04275,
-.423042,.021705,
-.4249,0.0,
0.0*
%
%ADD34MACRO34*%
%AMMACRO31*
4,1,21,0.0,.4249,
-.021705,.423042,
-.04275,.417394,
-.062493,.408178,
-.080337,.395673,
-.095738,.38026,
-.108228,.362407,
-.117429,.342656,
-.12306,.321607,
-.1249,.2999,
-.1249,-.4249,
.1249,-.4249,
.1249,.2999,
.12306,.321607,
.117429,.342656,
.108228,.362407,
.095738,.38026,
.080337,.395673,
.062493,.408178,
.04275,.417394,
.021705,.423042,
0.0,.4249,
0.0*
%
%ADD31MACRO31*%
%ADD22R,.5999X1.5499*%
%ADD42R,1.4X1.1501*%
%AMMACRO41*
4,1,44,.1197,-.22,
.1202,.2198,
.119011,.233694,
.115421,.247168,
.109545,.259815,
.101563,.271249,
.091716,.281124,
.080304,.289138,
.067674,.295049,
.05421,.298677,
.040319,.299912,
.0402,.2999,
-.0397,.2999,
-.053593,.298788,
-.067067,.295195,
-.079712,.289316,
-.091145,.281331,
-.101017,.271482,
-.109028,.260068,
-.114936,.247436,
-.118561,.233971,
-.119793,.22008,
-.1197,.22,
-.1202,-.2198,
-.119011,-.233694,
-.115421,-.247168,
-.109545,-.259815,
-.101563,-.271249,
-.091716,-.281124,
-.080304,-.289138,
-.067674,-.295049,
-.05421,-.298677,
-.040319,-.299912,
-.0402,-.2999,
.0397,-.2999,
.053593,-.298788,
.067067,-.295195,
.079712,-.289316,
.091145,-.281331,
.101017,-.271482,
.109028,-.260068,
.114936,-.247436,
.118561,-.233971,
.119793,-.22008,
.1197,-.22,
0.0*
%
%ADD41MACRO41*%
%ADD30R,.7X.3*%
%ADD23R,.4X.4501*%
%ADD14R,1.475X2.1001*%
%ADD12O,1.208X2.416*%
%ADD39R,5.1501X5.4*%
%ADD36C,1.016*%
%ADD10C,3.302*%
%ADD13R,.95X.7*%
%ADD35R,2.4X2.4*%
%ADD18R,.7X.95*%
%ADD37R,1.016X1.016*%
%ADD19R,1.1999X1.8001*%
%ADD44R,.5001X.8999*%
%AMMACRO33*
4,1,21,.4249,0.0,
.423042,.021705,
.417394,.04275,
.408178,.062493,
.395673,.080337,
.38026,.095738,
.362407,.108228,
.342656,.117429,
.321607,.12306,
.2999,.1249,
-.4249,.1249,
-.4249,-.1249,
.2999,-.1249,
.321607,-.12306,
.342656,-.117429,
.362407,-.108228,
.38026,-.095738,
.395673,-.080337,
.408178,-.062493,
.417394,-.04275,
.423042,-.021705,
.4249,0.0,
0.0*
%
%ADD33MACRO33*%
%AMMACRO32*
4,1,22,0.0,-.4249,
.021705,-.423042,
.04275,-.417394,
.062493,-.408178,
.080337,-.395673,
.095738,-.38026,
.108228,-.362407,
.117429,-.342656,
.12306,-.321607,
.1249,-.2999,
.1249,.4249,
-.1249,.4249,
-.1249,-.2999,
-.12306,-.321607,
-.117429,-.342656,
-.108228,-.362407,
-.095738,-.38026,
-.080337,-.395673,
-.062493,-.408178,
-.04275,-.417394,
-.021705,-.423042,
0.0,-.42495,
0.0,-.4249,
0.0*
%
%ADD32MACRO32*%
%AMMACRO40*
4,1,44,-.1206,.2196,
-.1193,-.2202,
-.118135,-.23409,
-.114502,-.247553,
-.108587,-.260182,
-.100569,-.271591,
-.090692,-.281435,
-.079255,-.289413,
-.066607,-.295285,
-.053131,-.298871,
-.039237,-.300063,
-.0391,-.3,
.0408,-.2998,
.054689,-.298589,
.068151,-.294951,
.080777,-.28903,
.092182,-.281007,
.102021,-.271125,
.109995,-.259684,
.11586,-.247033,
.11944,-.233555,
.120625,-.219661,
.1206,-.2196,
.1193,.2202,
.118135,.23409,
.114502,.247553,
.108587,.260182,
.100569,.271591,
.090692,.281435,
.079255,.289413,
.066607,.295285,
.053131,.298871,
.039237,.300063,
.0391,.3,
-.0408,.2998,
-.054689,.298589,
-.068151,.294951,
-.080777,.28903,
-.092182,.281007,
-.102021,.271125,
-.109995,.259684,
-.11586,.247033,
-.11944,.233555,
-.120625,.219661,
-.1206,.2196,
0.0*
%
%ADD40MACRO40*%
%ADD46C,.25*%
%ADD47C,.127*%
%ADD48C,.15*%
G75*
%LPD*%
G75*
G36*
G01X-3750000Y-4000000D02*
X-2250000D01*
Y-5500000D01*
X-3750000D01*
Y-4000000D01*
G37*
G36*
G01Y-2000000D02*
X-2250000D01*
Y-3500000D01*
X-3750000D01*
Y-2000000D01*
G37*
G36*
G01Y0D02*
X-2250000D01*
Y-1500000D01*
X-3750000D01*
Y0D01*
G37*
G36*
G01Y2000000D02*
X-2250000D01*
Y500000D01*
X-3750000D01*
Y2000000D01*
G37*
G36*
G01X-1750000Y-4000000D02*
X-250000D01*
Y-5500000D01*
X-1750000D01*
Y-4000000D01*
G37*
G36*
G01Y-2000000D02*
X-250000D01*
Y-3500000D01*
X-1750000D01*
Y-2000000D01*
G37*
G36*
G01Y0D02*
X-250000D01*
Y-1500000D01*
X-1750000D01*
Y0D01*
G37*
G36*
G01Y2000000D02*
X-250000D01*
Y500000D01*
X-1750000D01*
Y2000000D01*
G37*
G36*
G01X250000Y-4000000D02*
X1750000D01*
Y-5500000D01*
X250000D01*
Y-4000000D01*
G37*
G36*
G01Y-2000000D02*
X1750000D01*
Y-3500000D01*
X250000D01*
Y-2000000D01*
G37*
G36*
G01Y0D02*
X1750000D01*
Y-1500000D01*
X250000D01*
Y0D01*
G37*
G36*
G01X260000Y2000000D02*
X1760000D01*
Y500000D01*
X260000D01*
Y2000000D01*
G37*
G36*
G01X2250000Y-4000000D02*
X3750000D01*
Y-5500000D01*
X2250000D01*
Y-4000000D01*
G37*
G36*
G01Y-2000000D02*
X3750000D01*
Y-3500000D01*
X2250000D01*
Y-2000000D01*
G37*
G36*
G01Y0D02*
X3750000D01*
Y-1500000D01*
X2250000D01*
Y0D01*
G37*
G36*
G01Y2000000D02*
X3750000D01*
Y500000D01*
X2250000D01*
Y2000000D01*
G37*
G36*
G01X4526000Y4170000D02*
Y4220000D01*
X4970000D01*
Y3950000D01*
X4706000D01*
Y3750000D01*
X4970000D01*
Y3480000D01*
X4706000D01*
Y3280000D01*
X4970000D01*
Y2780000D01*
X4480000D01*
Y2870000D01*
X4920000D01*
Y3010000D01*
X4480000D01*
Y3060000D01*
X4920000D01*
Y3230000D01*
X4656000D01*
Y3530000D01*
X4920000D01*
Y3700000D01*
X4656000D01*
Y4000000D01*
X4920000D01*
Y4170000D01*
X4526000D01*
G37*
%LPC*%
G75*
G36*
G01X-2575000Y-5250000D02*
Y-4100000D01*
X-2425000D01*
Y-5400000D01*
X-3575000D01*
Y-4100000D01*
X-3425000D01*
Y-5250000D01*
X-3375000D01*
Y-4100000D01*
X-3225000D01*
Y-5250000D01*
X-3175000D01*
Y-4100000D01*
X-3025000D01*
Y-5250000D01*
X-2975000D01*
Y-4100000D01*
X-2825000D01*
Y-5250000D01*
X-2775000D01*
Y-4100000D01*
X-2625000D01*
Y-5250000D01*
X-2575000D01*
G37*
G36*
G01Y-3250000D02*
Y-2100000D01*
X-2425000D01*
Y-3400000D01*
X-3575000D01*
Y-2100000D01*
X-3425000D01*
Y-3250000D01*
X-3375000D01*
Y-2100000D01*
X-3225000D01*
Y-3250000D01*
X-3175000D01*
Y-2100000D01*
X-3025000D01*
Y-3250000D01*
X-2975000D01*
Y-2100000D01*
X-2825000D01*
Y-3250000D01*
X-2775000D01*
Y-2100000D01*
X-2625000D01*
Y-3250000D01*
X-2575000D01*
G37*
G36*
G01Y-1250000D02*
Y-100000D01*
X-2425000D01*
Y-1400000D01*
X-3575000D01*
Y-100000D01*
X-3425000D01*
Y-1250000D01*
X-3375000D01*
Y-100000D01*
X-3225000D01*
Y-1250000D01*
X-3175000D01*
Y-100000D01*
X-3025000D01*
Y-1250000D01*
X-2975000D01*
Y-100000D01*
X-2825000D01*
Y-1250000D01*
X-2775000D01*
Y-100000D01*
X-2625000D01*
Y-1250000D01*
X-2575000D01*
G37*
G36*
G01Y750000D02*
Y1900000D01*
X-2425000D01*
Y600000D01*
X-3575000D01*
Y1900000D01*
X-3425000D01*
Y750000D01*
X-3375000D01*
Y1900000D01*
X-3225000D01*
Y750000D01*
X-3175000D01*
Y1900000D01*
X-3025000D01*
Y750000D01*
X-2975000D01*
Y1900000D01*
X-2825000D01*
Y750000D01*
X-2775000D01*
Y1900000D01*
X-2625000D01*
Y750000D01*
X-2575000D01*
G37*
G36*
G01X-575000Y-5250000D02*
Y-4100000D01*
X-425000D01*
Y-5400000D01*
X-1575000D01*
Y-4100000D01*
X-1425000D01*
Y-5250000D01*
X-1375000D01*
Y-4100000D01*
X-1225000D01*
Y-5250000D01*
X-1175000D01*
Y-4100000D01*
X-1025000D01*
Y-5250000D01*
X-975000D01*
Y-4100000D01*
X-825000D01*
Y-5250000D01*
X-775000D01*
Y-4100000D01*
X-625000D01*
Y-5250000D01*
X-575000D01*
G37*
G36*
G01Y-3250000D02*
Y-2100000D01*
X-425000D01*
Y-3400000D01*
X-1575000D01*
Y-2100000D01*
X-1425000D01*
Y-3250000D01*
X-1375000D01*
Y-2100000D01*
X-1225000D01*
Y-3250000D01*
X-1175000D01*
Y-2100000D01*
X-1025000D01*
Y-3250000D01*
X-975000D01*
Y-2100000D01*
X-825000D01*
Y-3250000D01*
X-775000D01*
Y-2100000D01*
X-625000D01*
Y-3250000D01*
X-575000D01*
G37*
G36*
G01Y-1250000D02*
Y-100000D01*
X-425000D01*
Y-1400000D01*
X-1575000D01*
Y-100000D01*
X-1425000D01*
Y-1250000D01*
X-1375000D01*
Y-100000D01*
X-1225000D01*
Y-1250000D01*
X-1175000D01*
Y-100000D01*
X-1025000D01*
Y-1250000D01*
X-975000D01*
Y-100000D01*
X-825000D01*
Y-1250000D01*
X-775000D01*
Y-100000D01*
X-625000D01*
Y-1250000D01*
X-575000D01*
G37*
G36*
G01Y750000D02*
Y1900000D01*
X-425000D01*
Y600000D01*
X-1575000D01*
Y1900000D01*
X-1425000D01*
Y750000D01*
X-1375000D01*
Y1900000D01*
X-1225000D01*
Y750000D01*
X-1175000D01*
Y1900000D01*
X-1025000D01*
Y750000D01*
X-975000D01*
Y1900000D01*
X-825000D01*
Y750000D01*
X-775000D01*
Y1900000D01*
X-625000D01*
Y750000D01*
X-575000D01*
G37*
G36*
G01X1425000Y-5250000D02*
Y-4100000D01*
X1575000D01*
Y-5400000D01*
X425000D01*
Y-4100000D01*
X575000D01*
Y-5250000D01*
X625000D01*
Y-4100000D01*
X775000D01*
Y-5250000D01*
X825000D01*
Y-4100000D01*
X975000D01*
Y-5250000D01*
X1025000D01*
Y-4100000D01*
X1175000D01*
Y-5250000D01*
X1225000D01*
Y-4100000D01*
X1375000D01*
Y-5250000D01*
X1425000D01*
G37*
G36*
G01Y-3250000D02*
Y-2100000D01*
X1575000D01*
Y-3400000D01*
X425000D01*
Y-2100000D01*
X575000D01*
Y-3250000D01*
X625000D01*
Y-2100000D01*
X775000D01*
Y-3250000D01*
X825000D01*
Y-2100000D01*
X975000D01*
Y-3250000D01*
X1025000D01*
Y-2100000D01*
X1175000D01*
Y-3250000D01*
X1225000D01*
Y-2100000D01*
X1375000D01*
Y-3250000D01*
X1425000D01*
G37*
G36*
G01Y-1250000D02*
Y-100000D01*
X1575000D01*
Y-1400000D01*
X425000D01*
Y-100000D01*
X575000D01*
Y-1250000D01*
X625000D01*
Y-100000D01*
X775000D01*
Y-1250000D01*
X825000D01*
Y-100000D01*
X975000D01*
Y-1250000D01*
X1025000D01*
Y-100000D01*
X1175000D01*
Y-1250000D01*
X1225000D01*
Y-100000D01*
X1375000D01*
Y-1250000D01*
X1425000D01*
G37*
G36*
G01X1435000Y750000D02*
Y1900000D01*
X1585000D01*
Y600000D01*
X435000D01*
Y1900000D01*
X585000D01*
Y750000D01*
X635000D01*
Y1900000D01*
X785000D01*
Y750000D01*
X835000D01*
Y1900000D01*
X985000D01*
Y750000D01*
X1035000D01*
Y1900000D01*
X1185000D01*
Y750000D01*
X1235000D01*
Y1900000D01*
X1385000D01*
Y750000D01*
X1435000D01*
G37*
G36*
G01X3425000Y-5250000D02*
Y-4100000D01*
X3575000D01*
Y-5400000D01*
X2425000D01*
Y-4100000D01*
X2575000D01*
Y-5250000D01*
X2625000D01*
Y-4100000D01*
X2775000D01*
Y-5250000D01*
X2825000D01*
Y-4100000D01*
X2975000D01*
Y-5250000D01*
X3025000D01*
Y-4100000D01*
X3175000D01*
Y-5250000D01*
X3225000D01*
Y-4100000D01*
X3375000D01*
Y-5250000D01*
X3425000D01*
G37*
G36*
G01Y-3250000D02*
Y-2100000D01*
X3575000D01*
Y-3400000D01*
X2425000D01*
Y-2100000D01*
X2575000D01*
Y-3250000D01*
X2625000D01*
Y-2100000D01*
X2775000D01*
Y-3250000D01*
X2825000D01*
Y-2100000D01*
X2975000D01*
Y-3250000D01*
X3025000D01*
Y-2100000D01*
X3175000D01*
Y-3250000D01*
X3225000D01*
Y-2100000D01*
X3375000D01*
Y-3250000D01*
X3425000D01*
G37*
G36*
G01Y-1250000D02*
Y-100000D01*
X3575000D01*
Y-1400000D01*
X2425000D01*
Y-100000D01*
X2575000D01*
Y-1250000D01*
X2625000D01*
Y-100000D01*
X2775000D01*
Y-1250000D01*
X2825000D01*
Y-100000D01*
X2975000D01*
Y-1250000D01*
X3025000D01*
Y-100000D01*
X3175000D01*
Y-1250000D01*
X3225000D01*
Y-100000D01*
X3375000D01*
Y-1250000D01*
X3425000D01*
G37*
G36*
G01Y750000D02*
Y1900000D01*
X3575000D01*
Y600000D01*
X2425000D01*
Y1900000D01*
X2575000D01*
Y750000D01*
X2625000D01*
Y1900000D01*
X2775000D01*
Y750000D01*
X2825000D01*
Y1900000D01*
X2975000D01*
Y750000D01*
X3025000D01*
Y1900000D01*
X3175000D01*
Y750000D01*
X3225000D01*
Y1900000D01*
X3375000D01*
Y750000D01*
X3425000D01*
G37*
%LPD*%
G75*
G36*
G01X-3525020Y-4150000D02*
X-3475010D01*
Y-5300010D01*
X-3325020D01*
Y-4150000D01*
X-3275010D01*
Y-5300010D01*
X-3125020D01*
Y-4150000D01*
X-3075010D01*
Y-5300010D01*
X-2925020D01*
Y-4150000D01*
X-2875010D01*
Y-5300010D01*
X-2725020D01*
Y-4150000D01*
X-2675010D01*
Y-5300010D01*
X-2525020D01*
Y-4150000D01*
X-2475010D01*
Y-5350000D01*
X-3525020D01*
Y-4150000D01*
G37*
G36*
G01Y-2150000D02*
X-3475010D01*
Y-3300010D01*
X-3325020D01*
Y-2150000D01*
X-3275010D01*
Y-3300010D01*
X-3125020D01*
Y-2150000D01*
X-3075010D01*
Y-3300010D01*
X-2925020D01*
Y-2150000D01*
X-2875010D01*
Y-3300010D01*
X-2725020D01*
Y-2150000D01*
X-2675010D01*
Y-3300010D01*
X-2525020D01*
Y-2150000D01*
X-2475010D01*
Y-3350000D01*
X-3525020D01*
Y-2150000D01*
G37*
G36*
G01Y-150000D02*
X-3475010D01*
Y-1300010D01*
X-3325020D01*
Y-150000D01*
X-3275010D01*
Y-1300010D01*
X-3125020D01*
Y-150000D01*
X-3075010D01*
Y-1300010D01*
X-2925020D01*
Y-150000D01*
X-2875010D01*
Y-1300010D01*
X-2725020D01*
Y-150000D01*
X-2675010D01*
Y-1300010D01*
X-2525020D01*
Y-150000D01*
X-2475010D01*
Y-1350000D01*
X-3525020D01*
Y-150000D01*
G37*
G36*
G01Y1850000D02*
X-3475010D01*
Y699990D01*
X-3325020D01*
Y1850000D01*
X-3275010D01*
Y699990D01*
X-3125020D01*
Y1850000D01*
X-3075010D01*
Y699990D01*
X-2925020D01*
Y1850000D01*
X-2875010D01*
Y699990D01*
X-2725020D01*
Y1850000D01*
X-2675010D01*
Y699990D01*
X-2525020D01*
Y1850000D01*
X-2475010D01*
Y650000D01*
X-3525020D01*
Y1850000D01*
G37*
G36*
G01X-1525020Y-4150000D02*
X-1475010D01*
Y-5300010D01*
X-1325020D01*
Y-4150000D01*
X-1275010D01*
Y-5300010D01*
X-1125020D01*
Y-4150000D01*
X-1075010D01*
Y-5300010D01*
X-925020D01*
Y-4150000D01*
X-875010D01*
Y-5300010D01*
X-725020D01*
Y-4150000D01*
X-675010D01*
Y-5300010D01*
X-525020D01*
Y-4150000D01*
X-475010D01*
Y-5350000D01*
X-1525020D01*
Y-4150000D01*
G37*
G36*
G01Y-2150000D02*
X-1475010D01*
Y-3300010D01*
X-1325020D01*
Y-2150000D01*
X-1275010D01*
Y-3300010D01*
X-1125020D01*
Y-2150000D01*
X-1075010D01*
Y-3300010D01*
X-925020D01*
Y-2150000D01*
X-875010D01*
Y-3300010D01*
X-725020D01*
Y-2150000D01*
X-675010D01*
Y-3300010D01*
X-525020D01*
Y-2150000D01*
X-475010D01*
Y-3350000D01*
X-1525020D01*
Y-2150000D01*
G37*
G36*
G01Y-150000D02*
X-1475010D01*
Y-1300010D01*
X-1325020D01*
Y-150000D01*
X-1275010D01*
Y-1300010D01*
X-1125020D01*
Y-150000D01*
X-1075010D01*
Y-1300010D01*
X-925020D01*
Y-150000D01*
X-875010D01*
Y-1300010D01*
X-725020D01*
Y-150000D01*
X-675010D01*
Y-1300010D01*
X-525020D01*
Y-150000D01*
X-475010D01*
Y-1350000D01*
X-1525020D01*
Y-150000D01*
G37*
G36*
G01Y1850000D02*
X-1475010D01*
Y699990D01*
X-1325020D01*
Y1850000D01*
X-1275010D01*
Y699990D01*
X-1125020D01*
Y1850000D01*
X-1075010D01*
Y699990D01*
X-925020D01*
Y1850000D01*
X-875010D01*
Y699990D01*
X-725020D01*
Y1850000D01*
X-675010D01*
Y699990D01*
X-525020D01*
Y1850000D01*
X-475010D01*
Y650000D01*
X-1525020D01*
Y1850000D01*
G37*
G36*
G01X474980Y-4150000D02*
X524990D01*
Y-5300010D01*
X674980D01*
Y-4150000D01*
X724990D01*
Y-5300010D01*
X874980D01*
Y-4150000D01*
X924990D01*
Y-5300010D01*
X1074980D01*
Y-4150000D01*
X1124990D01*
Y-5300010D01*
X1274980D01*
Y-4150000D01*
X1324990D01*
Y-5300010D01*
X1474980D01*
Y-4150000D01*
X1524990D01*
Y-5350000D01*
X474980D01*
Y-4150000D01*
G37*
G36*
G01Y-2150000D02*
X524990D01*
Y-3300010D01*
X674980D01*
Y-2150000D01*
X724990D01*
Y-3300010D01*
X874980D01*
Y-2150000D01*
X924990D01*
Y-3300010D01*
X1074980D01*
Y-2150000D01*
X1124990D01*
Y-3300010D01*
X1274980D01*
Y-2150000D01*
X1324990D01*
Y-3300010D01*
X1474980D01*
Y-2150000D01*
X1524990D01*
Y-3350000D01*
X474980D01*
Y-2150000D01*
G37*
G36*
G01Y-150000D02*
X524990D01*
Y-1300010D01*
X674980D01*
Y-150000D01*
X724990D01*
Y-1300010D01*
X874980D01*
Y-150000D01*
X924990D01*
Y-1300010D01*
X1074980D01*
Y-150000D01*
X1124990D01*
Y-1300010D01*
X1274980D01*
Y-150000D01*
X1324990D01*
Y-1300010D01*
X1474980D01*
Y-150000D01*
X1524990D01*
Y-1350000D01*
X474980D01*
Y-150000D01*
G37*
G36*
G01X484980Y1850000D02*
X534990D01*
Y699990D01*
X684980D01*
Y1850000D01*
X734990D01*
Y699990D01*
X884980D01*
Y1850000D01*
X934990D01*
Y699990D01*
X1084980D01*
Y1850000D01*
X1134990D01*
Y699990D01*
X1284980D01*
Y1850000D01*
X1334990D01*
Y699990D01*
X1484980D01*
Y1850000D01*
X1534990D01*
Y650000D01*
X484980D01*
Y1850000D01*
G37*
G36*
G01X2474980Y-4150000D02*
X2524990D01*
Y-5300010D01*
X2674980D01*
Y-4150000D01*
X2724990D01*
Y-5300010D01*
X2874980D01*
Y-4150000D01*
X2924990D01*
Y-5300010D01*
X3074980D01*
Y-4150000D01*
X3124990D01*
Y-5300010D01*
X3274980D01*
Y-4150000D01*
X3324990D01*
Y-5300010D01*
X3474980D01*
Y-4150000D01*
X3524990D01*
Y-5350000D01*
X2474980D01*
Y-4150000D01*
G37*
G36*
G01Y-2150000D02*
X2524990D01*
Y-3300010D01*
X2674980D01*
Y-2150000D01*
X2724990D01*
Y-3300010D01*
X2874980D01*
Y-2150000D01*
X2924990D01*
Y-3300010D01*
X3074980D01*
Y-2150000D01*
X3124990D01*
Y-3300010D01*
X3274980D01*
Y-2150000D01*
X3324990D01*
Y-3300010D01*
X3474980D01*
Y-2150000D01*
X3524990D01*
Y-3350000D01*
X2474980D01*
Y-2150000D01*
G37*
G36*
G01Y-150000D02*
X2524990D01*
Y-1300010D01*
X2674980D01*
Y-150000D01*
X2724990D01*
Y-1300010D01*
X2874980D01*
Y-150000D01*
X2924990D01*
Y-1300010D01*
X3074980D01*
Y-150000D01*
X3124990D01*
Y-1300010D01*
X3274980D01*
Y-150000D01*
X3324990D01*
Y-1300010D01*
X3474980D01*
Y-150000D01*
X3524990D01*
Y-1350000D01*
X2474980D01*
Y-150000D01*
G37*
G36*
G01Y1850000D02*
X2524990D01*
Y699990D01*
X2674980D01*
Y1850000D01*
X2724990D01*
Y699990D01*
X2874980D01*
Y1850000D01*
X2924990D01*
Y699990D01*
X3074980D01*
Y1850000D01*
X3124990D01*
Y699990D01*
X3274980D01*
Y1850000D01*
X3324990D01*
Y699990D01*
X3474980D01*
Y1850000D01*
X3524990D01*
Y650000D01*
X2474980D01*
Y1850000D01*
G37*
G54D10*
X-5295000Y-5610000D03*
Y4685000D03*
X4705000Y-5610000D03*
X4695000Y4685000D03*
G54D11*
X-4775000Y-3320000D03*
X-4935000Y4565000D03*
X-4842500Y4662500D03*
X-4675000Y680000D03*
X-4444000Y4146000D03*
X-4345500Y4220500D03*
X-4000000Y-5325000D03*
X-3990000Y-1310000D03*
X-4205000Y4650000D03*
X-3595000Y4230000D03*
X-3695000Y4575000D03*
X-3582500Y4662500D03*
X-2983500Y4166500D03*
X-3171500D03*
X-2985000Y4670000D03*
X-2633000Y4167000D03*
X-2515000Y4165000D03*
X-2752500Y4662500D03*
X-2655000Y4580000D03*
X-2070000Y4575000D03*
X-1787000Y4088000D03*
X-1894500Y4159500D03*
X-1925000Y4430000D03*
X-1435000Y4145000D03*
X-1465000Y5000000D03*
X-1567500Y4932500D03*
X-965000Y2940000D03*
Y3125000D03*
X-1225000Y4145000D03*
Y4345000D03*
X-841000Y3934000D03*
X-753500Y4011500D03*
X-655000Y4580000D03*
X-885500Y4700000D03*
X-750000Y4565000D03*
X-295000Y3055000D03*
X-217500Y3137500D03*
X-395000Y3045000D03*
X-525000Y3175000D03*
X-475000Y4570000D03*
X-550000Y4465000D03*
X-369970Y4476500D03*
Y4406500D03*
X70000Y2650000D03*
X-127500Y2812500D03*
X-25000Y2710000D03*
X-5000Y4322500D03*
X-175000Y4255000D03*
X190000Y4322500D03*
X200950Y2600950D03*
X480000D03*
X374980Y3034950D03*
X289980D03*
X204980D03*
X374980Y2949950D03*
X289980D03*
X204980D03*
X374980Y2864950D03*
X289980D03*
X204980D03*
X305000Y3345000D03*
X520000D03*
X225000Y3632500D03*
X392500D03*
X385000Y4322500D03*
X615000Y2920000D03*
X740000Y3040000D03*
X590000D03*
X960000Y3385000D03*
Y3565000D03*
X1073500Y3796500D03*
X953000Y3702000D03*
X1590000Y2825000D03*
X1335000Y3080000D03*
X1655000Y3185000D03*
X1516660Y3270000D03*
X1605000Y3505000D03*
X1667500Y3355000D03*
X1595000Y3270000D03*
X1477500Y3887500D03*
Y3992500D03*
X1745000Y2980000D03*
X1803500Y3136000D03*
X1910000Y3897500D03*
X2420000Y2655000D03*
X2337720Y3080140D03*
X2192720D03*
X2337720Y3545140D03*
X2192720D03*
X2337720Y3390140D03*
X2192720D03*
X2337720Y3235140D03*
X2192720D03*
X2142500Y3897500D03*
X2333500Y3933500D03*
X2235000Y4040000D03*
X2337500Y4317500D03*
X2235000Y4390000D03*
X2534000Y2651000D03*
X2665000Y2655000D03*
X2627720Y3080140D03*
X2482720D03*
X2627720Y3545140D03*
X2482720D03*
X2627720Y3390140D03*
X2482720D03*
X2627720Y3235140D03*
X2482720D03*
X2787500Y3882500D03*
X2685000Y3970000D03*
X3090000Y2780000D03*
X3150000Y2955000D03*
X3429000Y2821000D03*
X3520500Y2899500D03*
X3520000Y3535000D03*
X3524000Y3386000D03*
X3429500Y3300500D03*
Y3624500D03*
X3982000Y2828000D03*
X4079500Y2899500D03*
X4350000Y2825000D03*
G54D20*
X-3000000Y-5325000D03*
Y-3325000D03*
Y-1325000D03*
Y675000D03*
X-1000000Y-5325000D03*
Y-3325000D03*
Y-1325000D03*
Y675000D03*
X1000000Y-5325000D03*
Y-3325000D03*
Y-1325000D03*
X1010000Y675000D03*
X3000000Y-5325000D03*
Y-3325000D03*
Y-1325000D03*
Y675000D03*
G54D12*
X-4710000Y4800000D03*
X-3920000D03*
G54D30*
X-265000Y4365000D03*
Y4415000D03*
Y4465000D03*
Y4515000D03*
X-475000D03*
Y4365000D03*
Y4415000D03*
Y4465000D03*
G54D21*
X-3000000Y-4050000D03*
Y-2050000D03*
Y-50000D03*
Y1950000D03*
X-1000000Y-4050000D03*
Y-2050000D03*
Y-50000D03*
Y1950000D03*
X1000000Y-4050000D03*
Y-2050000D03*
Y-50000D03*
X1010000Y1950000D03*
X3000000Y-4050000D03*
Y-2050000D03*
Y-50000D03*
Y1950000D03*
G54D40*
X2435000Y2970000D03*
X2385000D03*
X2335000D03*
X2285000D03*
X2235000D03*
X2185000D03*
X2135000D03*
X2685000D03*
X2635000D03*
X2585000D03*
X2535000D03*
X2485000D03*
G54D13*
X-4935000Y4662500D03*
Y4797500D03*
X-4444000Y4220500D03*
Y4355500D03*
X-3695000Y4662500D03*
Y4797500D03*
X-3084000Y4166500D03*
Y4301500D03*
X-2631000Y3630500D03*
Y3765500D03*
X-2462000Y3763500D03*
Y3898500D03*
X-2655000Y4662500D03*
Y4797500D03*
X-1787000Y4159500D03*
Y4294500D03*
X-1465000Y4932500D03*
Y4797500D03*
X-841000Y4011500D03*
Y4146500D03*
Y4244500D03*
X-655000Y4500500D03*
Y4365500D03*
X-841000Y4379500D03*
X95050Y2457500D03*
Y2322500D03*
X-30000Y3497500D03*
Y3632500D03*
X190000Y4322500D03*
X-5000D03*
X190000Y4457500D03*
X-5000D03*
X470020Y2457500D03*
Y2322500D03*
X345030Y2457500D03*
Y2322500D03*
X220040Y2457500D03*
Y2322500D03*
X385000Y3497500D03*
X225000D03*
X385000Y3632500D03*
X225000D03*
X385000Y4322500D03*
Y4457500D03*
X720000Y2457500D03*
Y2322500D03*
X595010Y2457500D03*
Y2322500D03*
X953000Y3796500D03*
Y3931500D03*
Y4051500D03*
Y4186500D03*
X2420000Y2722500D03*
Y2857500D03*
X2235000Y3933500D03*
Y3798500D03*
Y4317500D03*
Y4182500D03*
X2534000Y2725500D03*
Y2860500D03*
X2685000Y3882500D03*
Y3747500D03*
X3429000Y2899500D03*
Y3034500D03*
X3982000Y2899500D03*
Y3034500D03*
G54D22*
X-3085000Y4522500D03*
X-2985000D03*
G54D31*
X155000Y2755000D03*
X425000D03*
X380000D03*
X335000D03*
X290000D03*
X245000D03*
X200000D03*
G54D32*
X155000Y3145000D03*
X200000D03*
X245000D03*
X290000D03*
X335000D03*
X380000D03*
X425000D03*
G54D14*
X-4561250Y4570000D03*
X-4068750D03*
G54D23*
X-2633000Y4111500D03*
Y4026500D03*
G54D41*
X2135000Y3650000D03*
X2185000D03*
X2235000D03*
X2285000D03*
X2335000D03*
X2385000D03*
X2435000D03*
X2485000D03*
X2535000D03*
X2585000D03*
X2635000D03*
X2685000D03*
G54D33*
X95000Y2815000D03*
Y2860000D03*
Y2905000D03*
Y2950000D03*
Y2995000D03*
Y3040000D03*
Y3085000D03*
G54D42*
X2770000Y2620000D03*
Y2780000D03*
X2990000Y2620000D03*
Y2780000D03*
G54D24*
X-2700500Y4111500D03*
X-2565500D03*
Y4026500D03*
X-2700500D03*
G54D15*
X-4380000Y4534000D03*
X-4445000D03*
X-4185000D03*
X-4250000D03*
X-4315000D03*
G54D34*
X485000Y3085000D03*
Y3040000D03*
Y2995000D03*
Y2950000D03*
Y2905000D03*
Y2860000D03*
Y2815000D03*
G54D43*
X3029000Y3231000D03*
Y3381000D03*
G54D25*
X-2460000Y4798500D03*
Y4991500D03*
X-1730000D03*
Y4798500D03*
G54D16*
X-4408750Y4800000D03*
X-4221250D03*
G54D44*
X4455000Y2825000D03*
G54D35*
X290000Y2950000D03*
G54D17*
X-3695000Y4110000D03*
Y4205000D03*
Y4300000D03*
X-3405000D03*
Y4110000D03*
G54D26*
X-2320000Y4720000D03*
X-2170000D03*
X-1870000D03*
G54D18*
X-3271500Y3905000D03*
X-3406500D03*
X-247500Y2405000D03*
X-382500D03*
X-247500Y2560000D03*
X-382500D03*
X-247500Y2715000D03*
X-382500D03*
X-217500Y3055000D03*
X-247500Y2870000D03*
X-382500D03*
X-232500Y3430000D03*
X-367500D03*
X-232500Y3275000D03*
X-367500D03*
Y3585000D03*
X-232500D03*
X-82500Y3055000D03*
X1667500Y3436680D03*
Y3265020D03*
Y3608340D03*
Y3780000D03*
X1803500Y3136000D03*
X1938500D03*
X1802500Y3436680D03*
Y3265020D03*
Y3608340D03*
Y3780000D03*
X3057500Y2955000D03*
X2922500D03*
X3294500Y3183000D03*
X3429500D03*
Y3535000D03*
X3294500D03*
X3429500Y3386000D03*
X3294500D03*
X3637500Y3035000D03*
X3772500D03*
X4178500D03*
X4313500D03*
G54D36*
X1605000Y4243500D03*
Y4116500D03*
X1478000Y4243500D03*
Y4116500D03*
X1351000Y4243500D03*
X1859000Y4116500D03*
X1732000Y4243500D03*
Y4116500D03*
X1859000Y4243500D03*
G54D45*
X4455000Y3035000D03*
G54D27*
X-2245000Y4895000D03*
X-1945000D03*
G54D46*
G01X-4842500Y4662500D02*
X-4935000D01*
G01D02*
Y4565000D01*
G01Y4797500D02*
X-4712500D01*
X-4710000Y4800000D01*
G01X-4444000Y4146000D02*
Y4220500D01*
G01D02*
X-4345500D01*
G01X-4445000Y4534000D02*
Y4356500D01*
X-4444000Y4355500D01*
G01D02*
X-4110500D01*
X-3660000Y3905000D01*
X-3406500D01*
G01X-4205000Y4650000D02*
X-4185000Y4630000D01*
Y4534000D01*
G01X-3695000Y4110000D02*
X-3661860D01*
X-3601860Y4170000D01*
X-3315000D01*
X-3211000Y4066000D01*
X-3034000D01*
X-2988700Y4111300D01*
X-2960630D01*
X-2960430Y4111500D01*
X-2700500D01*
G01X-3695000Y4205000D02*
X-3620000D01*
X-3595000Y4230000D01*
G01X-3582500Y4662500D02*
X-3695000D01*
G01D02*
Y4575000D01*
G01Y4797500D02*
X-3917500D01*
X-3920000Y4800000D01*
G01X-3271500Y3905000D02*
X-2822000D01*
X-2700500Y4026500D01*
G01X-3405000Y4110000D02*
Y3906500D01*
X-3406500Y3905000D01*
G01X-3405000Y4300000D02*
X-3085500D01*
X-3084000Y4301500D01*
G01X-2983500Y4166500D02*
X-3084000D01*
G01D02*
X-3171500D01*
G01X-3085000Y4522500D02*
X-3084000Y4521500D01*
Y4301500D01*
G01D02*
X-2263500D01*
X-1950000Y4615000D01*
X-1895000D01*
G01X-2985000Y4522500D02*
Y4670000D01*
G01X-2462000Y3898500D02*
X-2565500Y4002000D01*
Y4026500D01*
G01X-2631000Y3765500D02*
Y4024500D01*
X-2633000Y4026500D01*
G01Y4111500D02*
Y4167000D01*
G01X-2565500Y4111500D02*
Y4140000D01*
X-2540500Y4165000D01*
X-2515000D01*
G01X-2655000Y4580000D02*
Y4662500D01*
G01D02*
X-2752500D01*
G01X-2655000Y4797500D02*
X-2654000Y4798500D01*
X-2460000D01*
G01X-2170000Y4720000D02*
Y4600000D01*
X-2145000Y4575000D01*
X-2070000D01*
G01X-1787000Y4088000D02*
Y4159500D01*
G01D02*
X-1894500D01*
G01X-1545000Y4295000D02*
X-1545500Y4294500D01*
X-1787000D01*
G01D02*
X-1789500D01*
X-1925000Y4430000D01*
G01X-1870000Y4720000D02*
Y4640000D01*
X-1895000Y4615000D01*
G01X-885500Y4700000D02*
X-1565000D01*
X-1650000Y4615000D01*
X-1895000D01*
G01X-1545000Y4145000D02*
X-1435000D01*
G01X-1545000Y4295000D02*
Y4245000D01*
G01D02*
Y4195000D01*
G01X-1567500Y4932500D02*
X-1465000D01*
G01D02*
Y5000000D01*
G01X-1105000Y4145000D02*
X-1225000D01*
G01X-841000Y4146500D02*
X-861140D01*
X-909640Y4195000D01*
X-1105000D01*
G01X-841000Y4244500D02*
X-841500Y4245000D01*
X-1105000D01*
G01X-841000Y4379500D02*
X-925500Y4295000D01*
X-1105000D01*
G01Y4345000D02*
X-1225000D01*
G01X105000Y3780000D02*
X-595000D01*
X-620000Y3755000D01*
Y3275000D01*
X-525000Y3180000D01*
Y3175000D01*
G01X-841000Y3934000D02*
Y4011500D01*
G01D02*
X-753500D01*
G01X-175000Y4255000D02*
X-283500Y4146500D01*
X-841000D01*
G01X-655000Y4500500D02*
Y4580000D01*
G01X-475000Y4365000D02*
X-475500Y4365500D01*
X-655000D01*
G01D02*
X-655500Y4365000D01*
X-725000D01*
X-750000Y4390000D01*
Y4565000D01*
G01X-295000Y3055000D02*
X-217500D01*
G01D02*
Y3137500D01*
G01X-395000Y3045000D02*
X-315000Y2965000D01*
X-110000D01*
X-85000Y2990000D01*
Y3052500D01*
X-82500Y3055000D01*
G01X-475000Y4515000D02*
Y4570000D01*
G01Y4465000D02*
X-550000D01*
G01X-475000Y4415000D02*
Y4365000D01*
G01X155000Y2755000D02*
Y2675000D01*
X130000Y2650000D01*
X70000D01*
G01X95000Y2950000D02*
X204930D01*
X204980Y2949950D01*
G01X-82500Y3055000D02*
X-22500Y2995000D01*
X95000D01*
G01X105000Y3780000D02*
X71550Y3746550D01*
Y3493450D01*
X160000Y3405000D01*
X323070D01*
X360200Y3367870D01*
Y3322130D01*
X358050Y3319980D01*
Y3287670D01*
X290000Y3219620D01*
Y3145000D01*
G01X170000Y3780000D02*
X345000D01*
X385000Y3820000D01*
G01X170000Y3780000D02*
X105000D01*
G01X225000Y3632500D02*
Y3725000D01*
X170000Y3780000D01*
G01X485000Y2950000D02*
X566010D01*
X567560Y2948450D01*
X586550D01*
X615000Y2920000D01*
G01X960000Y3385000D02*
X725000D01*
X670600Y3330600D01*
Y2980990D01*
X670200Y2980590D01*
Y2897130D01*
X670000Y2896930D01*
Y2885000D01*
X645000Y2860000D01*
X485000D01*
G01Y2905000D02*
Y2860000D01*
G01X385000Y3820000D02*
Y4322500D01*
G01Y3820000D02*
X575000Y3630000D01*
X905000D01*
X960000Y3575000D01*
Y3565000D01*
G01X953000Y4186500D02*
X951000D01*
X815000Y4322500D01*
X385000D01*
G01X1073500Y3796500D02*
X953000D01*
G01D02*
Y3702000D01*
G01X1351000Y4116500D02*
X1281000Y4186500D01*
X953000D01*
G01X1590000Y2825000D02*
X1610000D01*
X1836560Y2598440D01*
X2303440D01*
X2335000Y2630000D01*
Y2835000D01*
X2360000Y2860000D01*
X2417500D01*
X2420000Y2857500D01*
G01X2610000Y2610000D02*
X2550000Y2550000D01*
X1625000D01*
X1505000Y2670000D01*
Y2910000D01*
X1335000Y3080000D01*
G01X1745000Y2980000D02*
X1639860Y3085140D01*
Y3090500D01*
G01X1802500Y3780000D02*
Y3715000D01*
X1777500Y3690000D01*
X1390000D01*
X1365000Y3665000D01*
Y3350550D01*
X1461460Y3254090D01*
Y3247130D01*
X1618090Y3090500D01*
X1639860D01*
G01X1802500Y3265020D02*
Y3253140D01*
X1639860Y3090500D01*
G01X1655000Y3185000D02*
X1667500Y3197500D01*
Y3265020D01*
G01X1802500Y3436680D02*
Y3497500D01*
X1775000Y3525000D01*
X1690000D01*
X1665000Y3550000D01*
Y3605840D01*
X1667500Y3608340D01*
G01D02*
X1436660D01*
X1411660Y3583340D01*
Y3375000D01*
X1516660Y3270000D01*
G01X1605000Y3505000D02*
X1667500Y3442500D01*
Y3436680D01*
G01D02*
Y3355000D01*
G01Y3265020D02*
X1614980D01*
X1610000Y3270000D01*
X1595000D01*
G01X1667500Y3780000D02*
X1560000Y3887500D01*
X1477500D01*
G01Y3992500D02*
X1353500Y4116500D01*
X1351000D01*
G01X1802500Y3608340D02*
X1886660D01*
X1911660Y3583340D01*
Y3385000D01*
X1998700Y3297960D01*
Y3210000D01*
X2023700Y3185000D01*
X2070000D01*
G01Y3135000D02*
X2069000Y3136000D01*
X1938500D01*
G01D02*
X1939980Y3137480D01*
Y3240020D01*
X1914980Y3265020D01*
X1802500D01*
G01X1910000Y3897500D02*
X1827500D01*
X1802500Y3872500D01*
Y3780000D01*
G01X2420000Y2722500D02*
Y2655000D01*
G01Y2857500D02*
Y2864640D01*
X2485000Y2929640D01*
Y2970000D01*
G01X2235000Y3798500D02*
Y3650000D01*
G01X2142500Y3897500D02*
Y3827500D01*
X2160000Y3810000D01*
X2223500D01*
X2235000Y3798500D01*
G01X2685000Y3747500D02*
X2567500D01*
X2525000Y3790000D01*
X2243500D01*
X2235000Y3798500D01*
G01Y4040000D02*
Y3933500D01*
G01D02*
X2333500D01*
G01X2235000Y4182500D02*
X2105000D01*
X2080000Y4157500D01*
Y3830000D01*
X2185000Y3725000D01*
Y3650000D01*
G01X2337500Y4317500D02*
X2235000D01*
G01D02*
Y4390000D01*
G01X2610000Y2610000D02*
X2625000Y2595000D01*
X2631850D01*
X2691850Y2535000D01*
X3120000D01*
X3145000Y2560000D01*
Y2756930D01*
X3145200Y2757130D01*
Y2802870D01*
X3145000Y2803070D01*
Y2845000D01*
X3120000Y2870000D01*
X2945000D01*
X2920000Y2895000D01*
Y2952500D01*
G01X2534000Y2860500D02*
Y2856000D01*
X2610000Y2780000D01*
Y2678070D01*
X2609800Y2677870D01*
Y2632130D01*
X2610000Y2631930D01*
Y2610000D01*
G01X2534000Y2725500D02*
Y2651000D01*
G01X2770000Y2620000D02*
X2700000D01*
X2665000Y2655000D01*
G01X2535000Y2970000D02*
X2534000Y2969000D01*
Y2860500D01*
G01X2685000Y2970000D02*
Y2940000D01*
X2710000Y2915000D01*
X2882500D01*
X2920000Y2952500D01*
G01X2750000Y3135000D02*
X2933000D01*
X3029000Y3231000D01*
G01X2750000Y3185000D02*
X2833000D01*
X3029000Y3381000D01*
G01X3429000Y3034500D02*
X2750500D01*
X2750000Y3035000D01*
G01X3294500Y3183000D02*
X3121640D01*
X3023640Y3085000D01*
X2750000D01*
G01X2685000Y3650000D02*
Y3747500D01*
G01X2787500Y3882500D02*
X2685000D01*
G01D02*
Y3970000D01*
G01X2990000Y2780000D02*
X3090000D01*
G01X2922500Y2955000D02*
X2920000Y2952500D01*
G01X3057500Y2955000D02*
X3150000D01*
G01X3294500Y3386000D02*
X3139500Y3231000D01*
X3029000D01*
G01X3294500Y3535000D02*
X3294000Y3535500D01*
X3183500D01*
X3029000Y3381000D01*
G01X3429000Y2821000D02*
Y2899500D01*
G01D02*
X3520500D01*
G01X3637500Y3035000D02*
X3429500D01*
X3429000Y3034500D01*
G01D02*
Y3182500D01*
X3429500Y3183000D01*
G01X3520000Y3535000D02*
X3429500D01*
G01X3524000Y3386000D02*
X3429500D01*
G01Y3535000D02*
Y3624500D01*
G01Y3386000D02*
Y3300500D01*
G01X3982000Y3034500D02*
X3773000D01*
X3772500Y3035000D01*
G01X3982000Y2828000D02*
Y2899500D01*
G01D02*
X4079500D01*
G01X4178500Y3035000D02*
X4178000Y3034500D01*
X3982000D01*
G01X4313500Y3035000D02*
X4455000D01*
G01Y2825000D02*
X4350000D01*
G01X4455000Y3035000D02*
X4490000D01*
G54D19*
X-3215000Y4910000D03*
X-2855000D03*
G54D37*
X1351000Y4116500D03*
G54D28*
X-1545000Y4145000D03*
Y4195000D03*
Y4245000D03*
Y4295000D03*
Y4345000D03*
X-1105000Y4295000D03*
Y4245000D03*
Y4195000D03*
Y4145000D03*
Y4345000D03*
G54D47*
G01X-4775000Y-3320000D02*
X-4845000Y-3250000D01*
Y850000D01*
G01D02*
X-4675000Y680000D01*
G01X-367500Y3430000D02*
Y3354250D01*
X-380200Y3341550D01*
X-410400D01*
X-421550Y3330400D01*
Y3168440D01*
X-429600Y3160390D01*
Y3159470D01*
X-489470Y3099600D01*
X-490390D01*
X-519990Y3070000D01*
X-4832300D01*
X-4845000Y3057300D01*
Y850000D01*
G01X-4505000Y-1005000D02*
Y-4820000D01*
X-4000000Y-5325000D01*
G01X-367500Y3275000D02*
Y3182500D01*
X-505000Y3045000D01*
X-509060D01*
X-509460Y3044600D01*
X-4357700D01*
X-4505000Y2897300D01*
Y-1005000D01*
G01X-3990000Y-1310000D02*
X-4200000D01*
X-4505000Y-1005000D01*
G01X-2595000Y2355000D02*
X-3580000D01*
X-4040000Y1895000D01*
Y360000D01*
X-3740000Y60000D01*
X-3110000D01*
X-3000000Y-50000D01*
G01Y-4050000D02*
X-2915000Y-3965000D01*
X-2295000D01*
X-2030000Y-3700000D01*
Y-1670000D01*
G01X-3000000Y-2050000D02*
X-2890000Y-1940000D01*
X-2300000D01*
X-2030000Y-1670000D01*
G01X-3000000Y1950000D02*
X-2595000Y2355000D01*
G01X-3000000Y1975000D02*
Y1950000D01*
G01X-382500Y2715000D02*
X-455000D01*
X-755000Y3015000D01*
X-1935000D01*
X-2595000Y2355000D01*
G01X-2631000Y3630500D02*
X-2449500D01*
X-2180000Y3900000D01*
Y4260000D01*
X-1930000Y4510000D01*
X-1595000D01*
X-1535000Y4570000D01*
X-860000D01*
X-475000Y4955000D01*
X2250000D01*
X2975000Y4230000D01*
Y3590930D01*
X2819070Y3435000D01*
X2750000D01*
G01Y3335000D02*
X2810000D01*
X3050000Y3575000D01*
Y4240000D01*
X2525000Y4765000D01*
X2520930D01*
X2275930Y5010000D01*
X-495940D01*
X-740940Y4765000D01*
X-745000D01*
X-875000Y4635000D01*
X-1555000D01*
X-1610000Y4580000D01*
X-1940000D01*
X-2451940Y4068060D01*
X-2660900D01*
X-2700500Y4028460D01*
Y4026500D01*
G01X-2462000Y3763500D02*
X-2381500D01*
X-2240000Y3905000D01*
Y4240000D01*
X-1935000Y4545000D01*
X-1600000D01*
X-1545000Y4600000D01*
X-870010D01*
X-485410Y4984600D01*
X2265400D01*
X3015000Y4235000D01*
Y3595000D01*
X2805000Y3385000D01*
X2750000D01*
G01X-2030000Y-1670000D02*
Y2145000D01*
X-1185950Y2989050D01*
X-864050D01*
X-435000Y2560000D01*
X-382500D01*
G01X-1465000Y4797500D02*
X-1466000Y4798500D01*
X-1730000D01*
G01X-1000000Y-4050000D02*
X-870000Y-3920000D01*
X-245000D01*
X45000Y-3630000D01*
Y-1615000D01*
G01X-1000000Y-2050000D02*
X-850000Y-1900000D01*
X-240000D01*
X45000Y-1615000D01*
G01X95050Y2322500D02*
Y2220050D01*
X-95000Y2030000D01*
Y210000D01*
X-260000Y45000D01*
X-905000D01*
X-1000000Y-50000D01*
G01Y1950000D02*
X-614070D01*
G01X-247500Y2405000D02*
X-322500Y2330000D01*
X-940000D01*
X-965000Y2355000D01*
Y2940000D01*
G01Y3125000D02*
X-500000D01*
X-455000Y3170000D01*
Y3572300D01*
X-442300Y3585000D01*
X-367500D01*
G01X-614070Y1950000D02*
X-241570Y2322500D01*
X95050D01*
G01X200000Y2755000D02*
Y2718070D01*
X250000Y2668070D01*
Y2565000D01*
X221950Y2536950D01*
X138570D01*
X113170Y2511550D01*
X39650D01*
X28500Y2500400D01*
Y2438500D01*
X-5000Y2405000D01*
X-247500D01*
G01X-382500D02*
Y2464800D01*
X-369800Y2477500D01*
X-170000D01*
X-45000Y2602500D01*
G01X-247500Y2715000D02*
X-145000D01*
X45000Y2905000D01*
X95000D01*
G01Y2860000D02*
X39990D01*
X-190000Y2630010D01*
Y2575000D01*
X-205000Y2560000D01*
X-247500D01*
G01X-232500Y3275000D02*
Y3212500D01*
X-260000Y3185000D01*
X-329070D01*
X-500000Y3014070D01*
Y2895000D01*
X-475000Y2870000D01*
X-382500D01*
G01X-247500D02*
X-185000D01*
X-127500Y2812500D01*
G01X-232500Y3430000D02*
X-158980D01*
X-91480Y3497500D01*
X-30000D01*
G01X-232500Y3275000D02*
X150000D01*
X200000Y3225000D01*
Y3145000D01*
G01X-232500Y3585000D02*
X-182500Y3635000D01*
X-32500D01*
X-30000Y3632500D01*
G01X385000Y4457500D02*
X305000Y4377500D01*
Y4290000D01*
X245000Y4230000D01*
X-80000D01*
X-215000Y4365000D01*
X-265000D01*
G01X190000Y4457500D02*
X137500D01*
X112500Y4432500D01*
Y4330550D01*
X50400Y4268450D01*
X-68450D01*
X-215000Y4415000D01*
X-265000D01*
G01Y4465000D02*
X-12500D01*
X-5000Y4457500D01*
G01X45000Y-1615000D02*
Y1985000D01*
X220040Y2160040D01*
Y2322500D01*
G01X95050Y2457500D02*
X149100Y2511550D01*
X232480D01*
X275400Y2554470D01*
Y2687670D01*
X245000Y2718070D01*
Y2755000D01*
G01X-45000Y2602500D02*
X-25000Y2622500D01*
Y2710000D01*
G01X200950Y2600950D02*
X-43450D01*
X-45000Y2602500D01*
G01X-30000Y3497500D02*
X-17500D01*
X245000Y3235000D01*
Y3145000D01*
G01X-30000Y3632500D02*
X27300D01*
X40000Y3619800D01*
Y3475930D01*
X170930Y3345000D01*
X305000D01*
G01X-5000Y4457500D02*
X57500D01*
X415000Y4815000D01*
X2343810D01*
X2930000Y4228810D01*
Y3600000D01*
X2815000Y3485000D01*
X2750000D01*
G01X345030Y2322500D02*
X578760Y2088770D01*
G01X2025000Y-1595000D02*
Y1905000D01*
X1810000Y2120000D01*
X615000D01*
X470020Y2264980D01*
Y2322500D01*
G01X720000Y2457500D02*
Y2510000D01*
X693050Y2536950D01*
X463050D01*
X415000Y2585000D01*
Y2663070D01*
X456540Y2704610D01*
X456550Y2706540D01*
X534010Y2784000D01*
Y2801980D01*
X521310Y2814680D01*
X485000Y2815000D01*
G01X595010Y2457500D02*
Y2479990D01*
X563450Y2511550D01*
X438450D01*
X385790Y2564210D01*
Y2678860D01*
X425000Y2718070D01*
Y2755000D01*
G01X470020Y2457500D02*
X454480D01*
X360390Y2551590D01*
Y2690380D01*
X380790Y2710780D01*
Y2754210D01*
X380000Y2755000D01*
G01X345030Y2457500D02*
Y2520000D01*
X334990Y2530040D01*
Y2699600D01*
X335000Y2740000D01*
Y2755000D01*
G01X220040Y2457500D02*
X305000Y2542460D01*
Y2695000D01*
X290000Y2710000D01*
Y2755000D01*
G01X740000Y3040000D02*
X745000Y3035000D01*
Y2635000D01*
X710950Y2600950D01*
X480000D01*
G01X485000Y2995000D02*
X565630D01*
X580630Y2980000D01*
X624990D01*
X639050Y2994060D01*
Y3315950D01*
X610000Y3345000D01*
X520000D01*
G01X397500Y3485000D02*
X415000Y3467500D01*
Y3393620D01*
X417150Y3391470D01*
Y3262150D01*
X380000Y3225000D01*
Y3145000D01*
G01X335000D02*
Y3220000D01*
X391750Y3276750D01*
Y3380940D01*
X332690Y3440000D01*
X237700D01*
X225000Y3452700D01*
Y3497500D01*
G01X485000Y3085000D02*
Y3170000D01*
X467950Y3187050D01*
Y3407940D01*
X494210Y3434200D01*
X1060800D01*
X1830400Y2664600D01*
X1835400D01*
X1840000Y2660000D01*
X2270000D01*
X2285000Y2675000D01*
Y2970000D01*
G01X2235000D02*
Y2707700D01*
X2217300Y2690000D01*
X1840930D01*
X1071330Y3459600D01*
X464600D01*
X442550Y3437550D01*
Y3251620D01*
X425000Y3234070D01*
Y3145000D01*
G01X590000Y3040000D02*
X485000D01*
G01X385000Y3497500D02*
X397500Y3485000D01*
G01D02*
X1086860D01*
X1846460Y2725400D01*
X2167700D01*
X2185000Y2742700D01*
Y2970000D01*
G01X225000Y3497500D02*
X289800D01*
X302500Y3510200D01*
Y3692300D01*
X315200Y3705000D01*
X425000D01*
X615000Y3515000D01*
X1104700D01*
X1834700Y2785000D01*
X2122300D01*
X2135000Y2797700D01*
Y2970000D01*
G01X2750000Y3585000D02*
X2810000D01*
X2860000Y3635000D01*
Y4226950D01*
X2384450Y4702500D01*
X630000D01*
X385000Y4457500D01*
G01X2750000Y3535000D02*
X2810000D01*
X2895000Y3620000D01*
Y4227880D01*
X2352880Y4770000D01*
X585000D01*
X272500Y4457500D01*
X190000D01*
G01X1010000Y1950000D02*
X717530D01*
G01D02*
X578760Y2088770D01*
G01X1000000Y-50000D02*
X1115000Y65000D01*
X1745000D01*
X1890000Y210000D01*
Y1925000D01*
X1726230Y2088770D01*
X578760D01*
G01X595010Y2322500D02*
Y2244990D01*
X665000Y2175000D01*
X2775000D01*
G01X4160000Y-1485000D02*
Y1965000D01*
X3802500Y2322500D01*
X720000D01*
G01X2025000Y-1595000D02*
Y-3685000D01*
X1755000Y-3955000D01*
X1095000D01*
X1000000Y-4050000D01*
G01Y-2050000D02*
X1145000Y-1905000D01*
X1715000D01*
X2025000Y-1595000D01*
G01X1000000Y-1325000D02*
X995000Y-1330000D01*
G01X1305000Y3950000D02*
Y3350630D01*
X1825630Y2830000D01*
X1945000D01*
X2015000Y2900000D01*
Y3072300D01*
X2027700Y3085000D01*
X2070000D01*
G01X953000Y4051500D02*
Y3931500D01*
G01X1305000Y3950000D02*
X1203500Y4051500D01*
X953000D01*
G01X1859000Y4243500D02*
X1934600Y4167900D01*
Y3996100D01*
X1881950Y3943450D01*
X1311550D01*
X1305000Y3950000D01*
G01X1351000Y4243500D02*
Y4451000D01*
X1365000Y4465000D01*
X2010000D01*
X2045000Y4430000D01*
Y3795000D01*
X2135000Y3705000D01*
Y3650000D01*
G01X2070000Y3585000D02*
X2025000D01*
X2020000Y3590000D01*
Y3784070D01*
X2019600Y3784470D01*
Y4400400D01*
X1990000Y4430000D01*
X1492700D01*
X1480000Y4417300D01*
Y4245500D01*
X1478000Y4243500D01*
G01X2070000Y3535000D02*
X2002700D01*
X1990000Y3547700D01*
Y4370000D01*
X1975000Y4385000D01*
Y4387300D01*
X1962300Y4400000D01*
X1617700D01*
X1605000Y4387300D01*
Y4243500D01*
G01X2070000Y3485000D02*
X1972700D01*
X1960000Y3497700D01*
Y4354300D01*
X1947300Y4367000D01*
X1744700D01*
X1732000Y4354300D01*
Y4243500D01*
G01X2070000Y3085000D02*
X2069000Y3084000D01*
G01X3000000Y1950000D02*
X2775000Y2175000D01*
G01D02*
X3710000D01*
X3930000Y1955000D01*
Y270000D01*
X3740000Y80000D01*
X3130000D01*
X3000000Y-50000D01*
G01X2585000Y2970000D02*
Y2920000D01*
X2725000Y2780000D01*
X2770000D01*
G01X2635000Y2970000D02*
Y2920950D01*
X2699390Y2856560D01*
X2847900D01*
X2880000Y2824460D01*
Y2632700D01*
X2892700Y2620000D01*
X2990000D01*
G01X4160000Y-1485000D02*
Y-3555000D01*
X3750000Y-3965000D01*
X3085000D01*
X3000000Y-4050000D01*
G01Y-2050000D02*
X3150000Y-1900000D01*
X3745000D01*
X4160000Y-1485000D01*
G54D38*
X2070000Y3035000D03*
Y3085000D03*
Y3135000D03*
Y3185000D03*
Y3235000D03*
Y3285000D03*
Y3335000D03*
Y3385000D03*
Y3435000D03*
Y3485000D03*
Y3535000D03*
Y3585000D03*
X2750000Y3185000D03*
Y3135000D03*
Y3085000D03*
Y3035000D03*
Y3535000D03*
Y3485000D03*
Y3435000D03*
Y3385000D03*
Y3335000D03*
Y3285000D03*
Y3235000D03*
Y3585000D03*
G54D29*
X-370000Y4440000D03*
G54D48*
G01X5000000Y-6005000D02*
Y5040000D01*
X-5600000D01*
Y-6005000D01*
X5000000D01*
G54D39*
X2410000Y3310000D03*
M02*
