G04 ================== begin FILE IDENTIFICATION RECORD ==================*
G04 Layout Name:  C:/Users/Andreaa/ESE/Launchpad/allegro/LAUNCHPAD.brd*
G04 Film Name:    TOP*
G04 File Format:  Gerber RS274X*
G04 File Origin:  Cadence Allegro 17.2-S071*
G04 Origin Date:  Mon Dec 21 22:32:40 2020*
G04 *
G04 Layer:  VIA CLASS/TOP*
G04 Layer:  PIN/TOP*
G04 Layer:  ETCH/TOP*
G04 Layer:  BOARD GEOMETRY/DESIGN_OUTLINE*
G04 *
G04 Offset:    (0.0000 0.0000)*
G04 Mirror:    No*
G04 Mode:      Positive*
G04 Rotation:  0*
G04 FullContactRelief:  No*
G04 UndefLineWidth:     0.0000*
G04 ================== end FILE IDENTIFICATION RECORD ====================*
%FSLAX25Y25*MOMM*%
%IR0*IPPOS*OFA0.00000B0.00000*MIA0B0*SFA1.00000B1.00000*%
%ADD14R,1.3749X1.8999*%
%ADD24R,1.X.8001*%
%ADD42R,1.4X.7*%
%ADD25R,.7X1.5001*%
%ADD19C,.4*%
%ADD20C,.5001*%
%ADD10C,.6*%
%ADD28R,.8001X1.38*%
%ADD15R,.4501X1.38*%
%ADD26C,.9002*%
%ADD44R,.5001X.5001*%
%ADD23R,.4501X.4501*%
%ADD16R,1.3X.5499*%
%ADD27R,1.4X.2799*%
%AMMACRO37*
4,1,44,-.2199,-.12,
.2199,-.12,
.233793,-.118793,
.247265,-.115192,
.259907,-.109307,
.271335,-.101316,
.281201,-.091461,
.289207,-.080043,
.295108,-.067409,
.298726,-.053941,
.29995,-.04005,
.2999,-.04,
.2999,.04,
.298735,.053892,
.295125,.067362,
.289232,.08,
.281234,.091423,
.271373,.101284,
.25995,.109282,
.247312,.115175,
.233842,.118785,
.21995,.12,
.2199,.12,
-.2199,.12,
-.233793,.118793,
-.247265,.115192,
-.259907,.109307,
-.271335,.101316,
-.281201,.091461,
-.289207,.080043,
-.295108,.067409,
-.298726,.053941,
-.29995,.04005,
-.2999,.04,
-.2999,-.04,
-.298735,-.053892,
-.295125,-.067362,
-.289232,-.08,
-.281234,-.091423,
-.271373,-.101284,
-.25995,-.109282,
-.247312,-.115175,
-.233842,-.118785,
-.21995,-.12,
-.2199,-.12,
0.0*
%
%ADD37MACRO37*%
%AMMACRO34*
4,1,21,-.4249,0.0,
-.423042,-.021705,
-.417394,-.04275,
-.408178,-.062493,
-.395673,-.080337,
-.38026,-.095738,
-.362407,-.108228,
-.342656,-.117429,
-.321607,-.12306,
-.2999,-.1249,
.4249,-.1249,
.4249,.1249,
-.2999,.1249,
-.321607,.12306,
-.342656,.117429,
-.362407,.108228,
-.38026,.095738,
-.395673,.080337,
-.408178,.062493,
-.417394,.04275,
-.423042,.021705,
-.4249,0.0,
0.0*
%
%ADD34MACRO34*%
%AMMACRO30*
4,1,21,0.0,.4249,
-.021705,.423042,
-.04275,.417394,
-.062493,.408178,
-.080337,.395673,
-.095738,.38026,
-.108228,.362407,
-.117429,.342656,
-.12306,.321607,
-.1249,.2999,
-.1249,-.4249,
.1249,-.4249,
.1249,.2999,
.12306,.321607,
.117429,.342656,
.108228,.362407,
.095738,.38026,
.080337,.395673,
.062493,.408178,
.04275,.417394,
.021705,.423042,
0.0,.4249,
0.0*
%
%ADD30MACRO30*%
%ADD21R,.5999X1.5499*%
%ADD41R,1.4X1.1501*%
%AMMACRO40*
4,1,44,.1197,-.22,
.1202,.2198,
.119011,.233694,
.115421,.247168,
.109545,.259815,
.101563,.271249,
.091716,.281124,
.080304,.289138,
.067674,.295049,
.05421,.298677,
.040319,.299912,
.0402,.2999,
-.0397,.2999,
-.053593,.298788,
-.067067,.295195,
-.079712,.289316,
-.091145,.281331,
-.101017,.271482,
-.109028,.260068,
-.114936,.247436,
-.118561,.233971,
-.119793,.22008,
-.1197,.22,
-.1202,-.2198,
-.119011,-.233694,
-.115421,-.247168,
-.109545,-.259815,
-.101563,-.271249,
-.091716,-.281124,
-.080304,-.289138,
-.067674,-.295049,
-.05421,-.298677,
-.040319,-.299912,
-.0402,-.2999,
.0397,-.2999,
.053593,-.298788,
.067067,-.295195,
.079712,-.289316,
.091145,-.281331,
.101017,-.271482,
.109028,-.260068,
.114936,-.247436,
.118561,-.233971,
.119793,-.22008,
.1197,-.22,
0.0*
%
%ADD40MACRO40*%
%ADD29R,.7X.3*%
%ADD22R,.4X.4501*%
%ADD13R,1.475X2.1001*%
%ADD12O,1.208X2.416*%
%ADD38R,5.1501X5.4*%
%ADD35C,1.016*%
%ADD11R,.95X.7*%
%ADD32R,2.4X2.4*%
%ADD17R,.7X.95*%
%ADD36R,1.016X1.016*%
%ADD18R,1.1999X1.8001*%
%ADD43R,.5001X.8999*%
%AMMACRO33*
4,1,22,0.0,-.4249,
.021705,-.423042,
.04275,-.417394,
.062493,-.408178,
.080337,-.395673,
.095738,-.38026,
.108228,-.362407,
.117429,-.342656,
.12306,-.321607,
.1249,-.2999,
.1249,.4249,
-.1249,.4249,
-.1249,-.2999,
-.12306,-.321607,
-.117429,-.342656,
-.108228,-.362407,
-.095738,-.38026,
-.080337,-.395673,
-.062493,-.408178,
-.04275,-.417394,
-.021705,-.423042,
0.0,-.42495,
0.0,-.4249,
0.0*
%
%ADD33MACRO33*%
%AMMACRO31*
4,1,21,.4249,0.0,
.423042,.021705,
.417394,.04275,
.408178,.062493,
.395673,.080337,
.38026,.095738,
.362407,.108228,
.342656,.117429,
.321607,.12306,
.2999,.1249,
-.4249,.1249,
-.4249,-.1249,
.2999,-.1249,
.321607,-.12306,
.342656,-.117429,
.362407,-.108228,
.38026,-.095738,
.395673,-.080337,
.408178,-.062493,
.417394,-.04275,
.423042,-.021705,
.4249,0.0,
0.0*
%
%ADD31MACRO31*%
%AMMACRO39*
4,1,44,-.1206,.2196,
-.1193,-.2202,
-.118135,-.23409,
-.114502,-.247553,
-.108587,-.260182,
-.100569,-.271591,
-.090692,-.281435,
-.079255,-.289413,
-.066607,-.295285,
-.053131,-.298871,
-.039237,-.300063,
-.0391,-.3,
.0408,-.2998,
.054689,-.298589,
.068151,-.294951,
.080777,-.28903,
.092182,-.281007,
.102021,-.271125,
.109995,-.259684,
.11586,-.247033,
.11944,-.233555,
.120625,-.219661,
.1206,-.2196,
.1193,.2202,
.118135,.23409,
.114502,.247553,
.108587,.260182,
.100569,.271591,
.090692,.281435,
.079255,.289413,
.066607,.295285,
.053131,.298871,
.039237,.300063,
.0391,.3,
-.0408,.2998,
-.054689,.298589,
-.068151,.294951,
-.080777,.28903,
-.092182,.281007,
-.102021,.271125,
-.109995,.259684,
-.11586,.247033,
-.11944,.233555,
-.120625,.219661,
-.1206,.2196,
0.0*
%
%ADD39MACRO39*%
%ADD45C,.25*%
%ADD46C,.127*%
G75*
%LPD*%
G75*
G36*
G01X-3750000Y-4000000D02*
X-2250000D01*
Y-5500000D01*
X-3750000D01*
Y-4000000D01*
G37*
G36*
G01Y-2000000D02*
X-2250000D01*
Y-3500000D01*
X-3750000D01*
Y-2000000D01*
G37*
G36*
G01Y0D02*
X-2250000D01*
Y-1500000D01*
X-3750000D01*
Y0D01*
G37*
G36*
G01Y2000000D02*
X-2250000D01*
Y500000D01*
X-3750000D01*
Y2000000D01*
G37*
G36*
G01X-1750000Y-4000000D02*
X-250000D01*
Y-5500000D01*
X-1750000D01*
Y-4000000D01*
G37*
G36*
G01Y-2000000D02*
X-250000D01*
Y-3500000D01*
X-1750000D01*
Y-2000000D01*
G37*
G36*
G01Y0D02*
X-250000D01*
Y-1500000D01*
X-1750000D01*
Y0D01*
G37*
G36*
G01Y2000000D02*
X-250000D01*
Y500000D01*
X-1750000D01*
Y2000000D01*
G37*
G36*
G01X250000Y-4000000D02*
X1750000D01*
Y-5500000D01*
X250000D01*
Y-4000000D01*
G37*
G36*
G01Y-2000000D02*
X1750000D01*
Y-3500000D01*
X250000D01*
Y-2000000D01*
G37*
G36*
G01Y0D02*
X1750000D01*
Y-1500000D01*
X250000D01*
Y0D01*
G37*
G36*
G01X260000Y2000000D02*
X1760000D01*
Y500000D01*
X260000D01*
Y2000000D01*
G37*
G36*
G01X2250000Y-4000000D02*
X3750000D01*
Y-5500000D01*
X2250000D01*
Y-4000000D01*
G37*
G36*
G01Y-2000000D02*
X3750000D01*
Y-3500000D01*
X2250000D01*
Y-2000000D01*
G37*
G36*
G01Y0D02*
X3750000D01*
Y-1500000D01*
X2250000D01*
Y0D01*
G37*
G36*
G01Y2000000D02*
X3750000D01*
Y500000D01*
X2250000D01*
Y2000000D01*
G37*
G36*
G01X4526000Y4170000D02*
Y4220000D01*
X4970000D01*
Y3950000D01*
X4706000D01*
Y3750000D01*
X4970000D01*
Y3480000D01*
X4706000D01*
Y3280000D01*
X4970000D01*
Y2780000D01*
X4480000D01*
Y2870000D01*
X4920000D01*
Y3010000D01*
X4480000D01*
Y3060000D01*
X4920000D01*
Y3230000D01*
X4656000D01*
Y3530000D01*
X4920000D01*
Y3700000D01*
X4656000D01*
Y4000000D01*
X4920000D01*
Y4170000D01*
X4526000D01*
G37*
%LPC*%
G75*
G36*
G01X-2575000Y-5250000D02*
Y-4100000D01*
X-2425000D01*
Y-5400000D01*
X-3575000D01*
Y-4100000D01*
X-3425000D01*
Y-5250000D01*
X-3375000D01*
Y-4100000D01*
X-3225000D01*
Y-5250000D01*
X-3175000D01*
Y-4100000D01*
X-3025000D01*
Y-5250000D01*
X-2975000D01*
Y-4100000D01*
X-2825000D01*
Y-5250000D01*
X-2775000D01*
Y-4100000D01*
X-2625000D01*
Y-5250000D01*
X-2575000D01*
G37*
G36*
G01Y-3250000D02*
Y-2100000D01*
X-2425000D01*
Y-3400000D01*
X-3575000D01*
Y-2100000D01*
X-3425000D01*
Y-3250000D01*
X-3375000D01*
Y-2100000D01*
X-3225000D01*
Y-3250000D01*
X-3175000D01*
Y-2100000D01*
X-3025000D01*
Y-3250000D01*
X-2975000D01*
Y-2100000D01*
X-2825000D01*
Y-3250000D01*
X-2775000D01*
Y-2100000D01*
X-2625000D01*
Y-3250000D01*
X-2575000D01*
G37*
G36*
G01Y-1250000D02*
Y-100000D01*
X-2425000D01*
Y-1400000D01*
X-3575000D01*
Y-100000D01*
X-3425000D01*
Y-1250000D01*
X-3375000D01*
Y-100000D01*
X-3225000D01*
Y-1250000D01*
X-3175000D01*
Y-100000D01*
X-3025000D01*
Y-1250000D01*
X-2975000D01*
Y-100000D01*
X-2825000D01*
Y-1250000D01*
X-2775000D01*
Y-100000D01*
X-2625000D01*
Y-1250000D01*
X-2575000D01*
G37*
G36*
G01Y750000D02*
Y1900000D01*
X-2425000D01*
Y600000D01*
X-3575000D01*
Y1900000D01*
X-3425000D01*
Y750000D01*
X-3375000D01*
Y1900000D01*
X-3225000D01*
Y750000D01*
X-3175000D01*
Y1900000D01*
X-3025000D01*
Y750000D01*
X-2975000D01*
Y1900000D01*
X-2825000D01*
Y750000D01*
X-2775000D01*
Y1900000D01*
X-2625000D01*
Y750000D01*
X-2575000D01*
G37*
G36*
G01X-575000Y-5250000D02*
Y-4100000D01*
X-425000D01*
Y-5400000D01*
X-1575000D01*
Y-4100000D01*
X-1425000D01*
Y-5250000D01*
X-1375000D01*
Y-4100000D01*
X-1225000D01*
Y-5250000D01*
X-1175000D01*
Y-4100000D01*
X-1025000D01*
Y-5250000D01*
X-975000D01*
Y-4100000D01*
X-825000D01*
Y-5250000D01*
X-775000D01*
Y-4100000D01*
X-625000D01*
Y-5250000D01*
X-575000D01*
G37*
G36*
G01Y-3250000D02*
Y-2100000D01*
X-425000D01*
Y-3400000D01*
X-1575000D01*
Y-2100000D01*
X-1425000D01*
Y-3250000D01*
X-1375000D01*
Y-2100000D01*
X-1225000D01*
Y-3250000D01*
X-1175000D01*
Y-2100000D01*
X-1025000D01*
Y-3250000D01*
X-975000D01*
Y-2100000D01*
X-825000D01*
Y-3250000D01*
X-775000D01*
Y-2100000D01*
X-625000D01*
Y-3250000D01*
X-575000D01*
G37*
G36*
G01Y-1250000D02*
Y-100000D01*
X-425000D01*
Y-1400000D01*
X-1575000D01*
Y-100000D01*
X-1425000D01*
Y-1250000D01*
X-1375000D01*
Y-100000D01*
X-1225000D01*
Y-1250000D01*
X-1175000D01*
Y-100000D01*
X-1025000D01*
Y-1250000D01*
X-975000D01*
Y-100000D01*
X-825000D01*
Y-1250000D01*
X-775000D01*
Y-100000D01*
X-625000D01*
Y-1250000D01*
X-575000D01*
G37*
G36*
G01Y750000D02*
Y1900000D01*
X-425000D01*
Y600000D01*
X-1575000D01*
Y1900000D01*
X-1425000D01*
Y750000D01*
X-1375000D01*
Y1900000D01*
X-1225000D01*
Y750000D01*
X-1175000D01*
Y1900000D01*
X-1025000D01*
Y750000D01*
X-975000D01*
Y1900000D01*
X-825000D01*
Y750000D01*
X-775000D01*
Y1900000D01*
X-625000D01*
Y750000D01*
X-575000D01*
G37*
G36*
G01X1425000Y-5250000D02*
Y-4100000D01*
X1575000D01*
Y-5400000D01*
X425000D01*
Y-4100000D01*
X575000D01*
Y-5250000D01*
X625000D01*
Y-4100000D01*
X775000D01*
Y-5250000D01*
X825000D01*
Y-4100000D01*
X975000D01*
Y-5250000D01*
X1025000D01*
Y-4100000D01*
X1175000D01*
Y-5250000D01*
X1225000D01*
Y-4100000D01*
X1375000D01*
Y-5250000D01*
X1425000D01*
G37*
G36*
G01Y-3250000D02*
Y-2100000D01*
X1575000D01*
Y-3400000D01*
X425000D01*
Y-2100000D01*
X575000D01*
Y-3250000D01*
X625000D01*
Y-2100000D01*
X775000D01*
Y-3250000D01*
X825000D01*
Y-2100000D01*
X975000D01*
Y-3250000D01*
X1025000D01*
Y-2100000D01*
X1175000D01*
Y-3250000D01*
X1225000D01*
Y-2100000D01*
X1375000D01*
Y-3250000D01*
X1425000D01*
G37*
G36*
G01Y-1250000D02*
Y-100000D01*
X1575000D01*
Y-1400000D01*
X425000D01*
Y-100000D01*
X575000D01*
Y-1250000D01*
X625000D01*
Y-100000D01*
X775000D01*
Y-1250000D01*
X825000D01*
Y-100000D01*
X975000D01*
Y-1250000D01*
X1025000D01*
Y-100000D01*
X1175000D01*
Y-1250000D01*
X1225000D01*
Y-100000D01*
X1375000D01*
Y-1250000D01*
X1425000D01*
G37*
G36*
G01X1435000Y750000D02*
Y1900000D01*
X1585000D01*
Y600000D01*
X435000D01*
Y1900000D01*
X585000D01*
Y750000D01*
X635000D01*
Y1900000D01*
X785000D01*
Y750000D01*
X835000D01*
Y1900000D01*
X985000D01*
Y750000D01*
X1035000D01*
Y1900000D01*
X1185000D01*
Y750000D01*
X1235000D01*
Y1900000D01*
X1385000D01*
Y750000D01*
X1435000D01*
G37*
G36*
G01X3425000Y-5250000D02*
Y-4100000D01*
X3575000D01*
Y-5400000D01*
X2425000D01*
Y-4100000D01*
X2575000D01*
Y-5250000D01*
X2625000D01*
Y-4100000D01*
X2775000D01*
Y-5250000D01*
X2825000D01*
Y-4100000D01*
X2975000D01*
Y-5250000D01*
X3025000D01*
Y-4100000D01*
X3175000D01*
Y-5250000D01*
X3225000D01*
Y-4100000D01*
X3375000D01*
Y-5250000D01*
X3425000D01*
G37*
G36*
G01Y-3250000D02*
Y-2100000D01*
X3575000D01*
Y-3400000D01*
X2425000D01*
Y-2100000D01*
X2575000D01*
Y-3250000D01*
X2625000D01*
Y-2100000D01*
X2775000D01*
Y-3250000D01*
X2825000D01*
Y-2100000D01*
X2975000D01*
Y-3250000D01*
X3025000D01*
Y-2100000D01*
X3175000D01*
Y-3250000D01*
X3225000D01*
Y-2100000D01*
X3375000D01*
Y-3250000D01*
X3425000D01*
G37*
G36*
G01Y-1250000D02*
Y-100000D01*
X3575000D01*
Y-1400000D01*
X2425000D01*
Y-100000D01*
X2575000D01*
Y-1250000D01*
X2625000D01*
Y-100000D01*
X2775000D01*
Y-1250000D01*
X2825000D01*
Y-100000D01*
X2975000D01*
Y-1250000D01*
X3025000D01*
Y-100000D01*
X3175000D01*
Y-1250000D01*
X3225000D01*
Y-100000D01*
X3375000D01*
Y-1250000D01*
X3425000D01*
G37*
G36*
G01Y750000D02*
Y1900000D01*
X3575000D01*
Y600000D01*
X2425000D01*
Y1900000D01*
X2575000D01*
Y750000D01*
X2625000D01*
Y1900000D01*
X2775000D01*
Y750000D01*
X2825000D01*
Y1900000D01*
X2975000D01*
Y750000D01*
X3025000D01*
Y1900000D01*
X3175000D01*
Y750000D01*
X3225000D01*
Y1900000D01*
X3375000D01*
Y750000D01*
X3425000D01*
G37*
%LPD*%
G75*
G36*
G01X-3525020Y-4150000D02*
X-3475010D01*
Y-5300010D01*
X-3325020D01*
Y-4150000D01*
X-3275010D01*
Y-5300010D01*
X-3125020D01*
Y-4150000D01*
X-3075010D01*
Y-5300010D01*
X-2925020D01*
Y-4150000D01*
X-2875010D01*
Y-5300010D01*
X-2725020D01*
Y-4150000D01*
X-2675010D01*
Y-5300010D01*
X-2525020D01*
Y-4150000D01*
X-2475010D01*
Y-5350000D01*
X-3525020D01*
Y-4150000D01*
G37*
G36*
G01Y-2150000D02*
X-3475010D01*
Y-3300010D01*
X-3325020D01*
Y-2150000D01*
X-3275010D01*
Y-3300010D01*
X-3125020D01*
Y-2150000D01*
X-3075010D01*
Y-3300010D01*
X-2925020D01*
Y-2150000D01*
X-2875010D01*
Y-3300010D01*
X-2725020D01*
Y-2150000D01*
X-2675010D01*
Y-3300010D01*
X-2525020D01*
Y-2150000D01*
X-2475010D01*
Y-3350000D01*
X-3525020D01*
Y-2150000D01*
G37*
G36*
G01Y-150000D02*
X-3475010D01*
Y-1300010D01*
X-3325020D01*
Y-150000D01*
X-3275010D01*
Y-1300010D01*
X-3125020D01*
Y-150000D01*
X-3075010D01*
Y-1300010D01*
X-2925020D01*
Y-150000D01*
X-2875010D01*
Y-1300010D01*
X-2725020D01*
Y-150000D01*
X-2675010D01*
Y-1300010D01*
X-2525020D01*
Y-150000D01*
X-2475010D01*
Y-1350000D01*
X-3525020D01*
Y-150000D01*
G37*
G36*
G01Y1850000D02*
X-3475010D01*
Y699990D01*
X-3325020D01*
Y1850000D01*
X-3275010D01*
Y699990D01*
X-3125020D01*
Y1850000D01*
X-3075010D01*
Y699990D01*
X-2925020D01*
Y1850000D01*
X-2875010D01*
Y699990D01*
X-2725020D01*
Y1850000D01*
X-2675010D01*
Y699990D01*
X-2525020D01*
Y1850000D01*
X-2475010D01*
Y650000D01*
X-3525020D01*
Y1850000D01*
G37*
G36*
G01X-1525020Y-4150000D02*
X-1475010D01*
Y-5300010D01*
X-1325020D01*
Y-4150000D01*
X-1275010D01*
Y-5300010D01*
X-1125020D01*
Y-4150000D01*
X-1075010D01*
Y-5300010D01*
X-925020D01*
Y-4150000D01*
X-875010D01*
Y-5300010D01*
X-725020D01*
Y-4150000D01*
X-675010D01*
Y-5300010D01*
X-525020D01*
Y-4150000D01*
X-475010D01*
Y-5350000D01*
X-1525020D01*
Y-4150000D01*
G37*
G36*
G01Y-2150000D02*
X-1475010D01*
Y-3300010D01*
X-1325020D01*
Y-2150000D01*
X-1275010D01*
Y-3300010D01*
X-1125020D01*
Y-2150000D01*
X-1075010D01*
Y-3300010D01*
X-925020D01*
Y-2150000D01*
X-875010D01*
Y-3300010D01*
X-725020D01*
Y-2150000D01*
X-675010D01*
Y-3300010D01*
X-525020D01*
Y-2150000D01*
X-475010D01*
Y-3350000D01*
X-1525020D01*
Y-2150000D01*
G37*
G36*
G01Y-150000D02*
X-1475010D01*
Y-1300010D01*
X-1325020D01*
Y-150000D01*
X-1275010D01*
Y-1300010D01*
X-1125020D01*
Y-150000D01*
X-1075010D01*
Y-1300010D01*
X-925020D01*
Y-150000D01*
X-875010D01*
Y-1300010D01*
X-725020D01*
Y-150000D01*
X-675010D01*
Y-1300010D01*
X-525020D01*
Y-150000D01*
X-475010D01*
Y-1350000D01*
X-1525020D01*
Y-150000D01*
G37*
G36*
G01Y1850000D02*
X-1475010D01*
Y699990D01*
X-1325020D01*
Y1850000D01*
X-1275010D01*
Y699990D01*
X-1125020D01*
Y1850000D01*
X-1075010D01*
Y699990D01*
X-925020D01*
Y1850000D01*
X-875010D01*
Y699990D01*
X-725020D01*
Y1850000D01*
X-675010D01*
Y699990D01*
X-525020D01*
Y1850000D01*
X-475010D01*
Y650000D01*
X-1525020D01*
Y1850000D01*
G37*
G36*
G01X474980Y-4150000D02*
X524990D01*
Y-5300010D01*
X674980D01*
Y-4150000D01*
X724990D01*
Y-5300010D01*
X874980D01*
Y-4150000D01*
X924990D01*
Y-5300010D01*
X1074980D01*
Y-4150000D01*
X1124990D01*
Y-5300010D01*
X1274980D01*
Y-4150000D01*
X1324990D01*
Y-5300010D01*
X1474980D01*
Y-4150000D01*
X1524990D01*
Y-5350000D01*
X474980D01*
Y-4150000D01*
G37*
G36*
G01Y-2150000D02*
X524990D01*
Y-3300010D01*
X674980D01*
Y-2150000D01*
X724990D01*
Y-3300010D01*
X874980D01*
Y-2150000D01*
X924990D01*
Y-3300010D01*
X1074980D01*
Y-2150000D01*
X1124990D01*
Y-3300010D01*
X1274980D01*
Y-2150000D01*
X1324990D01*
Y-3300010D01*
X1474980D01*
Y-2150000D01*
X1524990D01*
Y-3350000D01*
X474980D01*
Y-2150000D01*
G37*
G36*
G01Y-150000D02*
X524990D01*
Y-1300010D01*
X674980D01*
Y-150000D01*
X724990D01*
Y-1300010D01*
X874980D01*
Y-150000D01*
X924990D01*
Y-1300010D01*
X1074980D01*
Y-150000D01*
X1124990D01*
Y-1300010D01*
X1274980D01*
Y-150000D01*
X1324990D01*
Y-1300010D01*
X1474980D01*
Y-150000D01*
X1524990D01*
Y-1350000D01*
X474980D01*
Y-150000D01*
G37*
G36*
G01X484980Y1850000D02*
X534990D01*
Y699990D01*
X684980D01*
Y1850000D01*
X734990D01*
Y699990D01*
X884980D01*
Y1850000D01*
X934990D01*
Y699990D01*
X1084980D01*
Y1850000D01*
X1134990D01*
Y699990D01*
X1284980D01*
Y1850000D01*
X1334990D01*
Y699990D01*
X1484980D01*
Y1850000D01*
X1534990D01*
Y650000D01*
X484980D01*
Y1850000D01*
G37*
G36*
G01X2474980Y-4150000D02*
X2524990D01*
Y-5300010D01*
X2674980D01*
Y-4150000D01*
X2724990D01*
Y-5300010D01*
X2874980D01*
Y-4150000D01*
X2924990D01*
Y-5300010D01*
X3074980D01*
Y-4150000D01*
X3124990D01*
Y-5300010D01*
X3274980D01*
Y-4150000D01*
X3324990D01*
Y-5300010D01*
X3474980D01*
Y-4150000D01*
X3524990D01*
Y-5350000D01*
X2474980D01*
Y-4150000D01*
G37*
G36*
G01Y-2150000D02*
X2524990D01*
Y-3300010D01*
X2674980D01*
Y-2150000D01*
X2724990D01*
Y-3300010D01*
X2874980D01*
Y-2150000D01*
X2924990D01*
Y-3300010D01*
X3074980D01*
Y-2150000D01*
X3124990D01*
Y-3300010D01*
X3274980D01*
Y-2150000D01*
X3324990D01*
Y-3300010D01*
X3474980D01*
Y-2150000D01*
X3524990D01*
Y-3350000D01*
X2474980D01*
Y-2150000D01*
G37*
G36*
G01Y-150000D02*
X2524990D01*
Y-1300010D01*
X2674980D01*
Y-150000D01*
X2724990D01*
Y-1300010D01*
X2874980D01*
Y-150000D01*
X2924990D01*
Y-1300010D01*
X3074980D01*
Y-150000D01*
X3124990D01*
Y-1300010D01*
X3274980D01*
Y-150000D01*
X3324990D01*
Y-1300010D01*
X3474980D01*
Y-150000D01*
X3524990D01*
Y-1350000D01*
X2474980D01*
Y-150000D01*
G37*
G36*
G01Y1850000D02*
X2524990D01*
Y699990D01*
X2674980D01*
Y1850000D01*
X2724990D01*
Y699990D01*
X2874980D01*
Y1850000D01*
X2924990D01*
Y699990D01*
X3074980D01*
Y1850000D01*
X3124990D01*
Y699990D01*
X3274980D01*
Y1850000D01*
X3324990D01*
Y699990D01*
X3474980D01*
Y1850000D01*
X3524990D01*
Y650000D01*
X2474980D01*
Y1850000D01*
G37*
G54D10*
X-4775000Y-3320000D03*
X-4675000Y680000D03*
X-4935000Y4565000D03*
X-4842500Y4662500D03*
X-4444000Y4146000D03*
X-4345500Y4220500D03*
X-4000000Y-5325000D03*
X-3990000Y-1310000D03*
X-4205000Y4650000D03*
X-3595000Y4230000D03*
X-3695000Y4575000D03*
X-3582500Y4662500D03*
X-3171500Y4166500D03*
X-2983500D03*
X-2985000Y4670000D03*
X-2633000Y4167000D03*
X-2515000Y4165000D03*
X-2752500Y4662500D03*
X-2655000Y4580000D03*
X-2070000Y4575000D03*
X-1787000Y4088000D03*
X-1894500Y4159500D03*
X-1925000Y4430000D03*
X-1435000Y4145000D03*
X-1465000Y5000000D03*
X-1567500Y4932500D03*
X-1225000Y4345000D03*
Y4145000D03*
X-841000Y3934000D03*
X-753500Y4011500D03*
X-655000Y4580000D03*
X-550000Y4465000D03*
X-885500Y4700000D03*
X-750000Y4565000D03*
X-290000Y2955000D03*
X-185000Y3250000D03*
X-175000Y4255000D03*
X-475000Y4570000D03*
X-369970Y4476500D03*
Y4406500D03*
X185000Y2635000D03*
X70000Y2650000D03*
X204980Y2864950D03*
X180000Y3240000D03*
X204980Y3034950D03*
Y2949950D03*
X-85000Y2995000D03*
X-82500Y3142500D03*
X50000Y3295000D03*
X-5000Y4322500D03*
X190000D03*
X374980Y2864950D03*
X289980D03*
X555000Y2745000D03*
X615000Y2920000D03*
X374980Y3034950D03*
X289980D03*
X374980Y2949950D03*
X289980D03*
X540000Y3330000D03*
Y3550000D03*
X385000Y4322500D03*
X635000Y2635000D03*
X665000Y3065000D03*
X695000Y3240000D03*
X953000Y3702000D03*
X1073500Y3796500D03*
X1547500Y2867500D03*
X1702500Y3022500D03*
X1656000Y3147500D03*
X1938500Y2951000D03*
Y3136000D03*
X1803500D03*
Y2951000D03*
X1943500Y3961500D03*
X2059000Y4069000D03*
X2425000Y2860000D03*
X2420000Y2655000D03*
X2482720Y3235140D03*
X2337720D03*
X2192720D03*
X2482720Y3080140D03*
X2337720D03*
X2192720D03*
X2482720Y3545140D03*
X2337720D03*
X2192720D03*
X2482720Y3390140D03*
X2337720D03*
X2192720D03*
X2240000Y3805000D03*
X2333500Y3933500D03*
X2235000Y4040000D03*
X2534000Y2651000D03*
X2665000Y2655000D03*
X2627720Y3235140D03*
Y3080140D03*
Y3545140D03*
Y3390140D03*
X2685000Y3882500D03*
X3090000Y2780000D03*
X3150000Y2955000D03*
X3429000Y2821000D03*
X3520500Y2899500D03*
X3520000Y3535000D03*
X3429500Y3624500D03*
X3524000Y3386000D03*
X3429500Y3300500D03*
X3982000Y2828000D03*
X4350000Y2825000D03*
X4079500Y2899500D03*
G54D11*
X-4935000Y4662500D03*
Y4797500D03*
X-4444000Y4220500D03*
Y4355500D03*
X-3695000Y4662500D03*
Y4797500D03*
X-3084000Y4166500D03*
Y4301500D03*
X-2631000Y3630500D03*
Y3765500D03*
X-2462000Y3763500D03*
Y3898500D03*
X-2655000Y4662500D03*
Y4797500D03*
X-1787000Y4159500D03*
Y4294500D03*
X-1465000Y4932500D03*
Y4797500D03*
X-841000Y4011500D03*
Y4244500D03*
Y4379500D03*
Y4146500D03*
X-655000Y4365500D03*
Y4500500D03*
X220040Y2457500D03*
Y2322500D03*
X95050Y2457500D03*
Y2322500D03*
X190000Y4322500D03*
X-5000D03*
X190000Y4457500D03*
X-5000D03*
X595010Y2457500D03*
Y2322500D03*
X470020Y2457500D03*
Y2322500D03*
X345030Y2457500D03*
Y2322500D03*
X385000Y4322500D03*
Y4457500D03*
X720000Y2457500D03*
Y2322500D03*
X895000Y2727500D03*
Y2862500D03*
X953000Y3796500D03*
Y3931500D03*
Y4051500D03*
Y4186500D03*
X1095000Y2727500D03*
Y2862500D03*
X1656000Y3147500D03*
Y3282500D03*
X2059000Y3961500D03*
Y3826500D03*
X2420000Y2722500D03*
Y2857500D03*
X2235000Y3933500D03*
Y3798500D03*
X2534000Y2725500D03*
Y2860500D03*
X2685000Y3882500D03*
Y3747500D03*
X2555000Y3882500D03*
Y3747500D03*
X3429000Y2899500D03*
Y3034500D03*
X3982000Y2899500D03*
Y3034500D03*
G54D20*
X-3000000Y-4050000D03*
Y-2050000D03*
Y-50000D03*
Y1950000D03*
X-1000000Y-4050000D03*
Y-2050000D03*
Y-50000D03*
Y1950000D03*
X1000000Y-4050000D03*
Y-2050000D03*
Y-50000D03*
X1010000Y1950000D03*
X3000000Y-4050000D03*
Y-2050000D03*
Y-50000D03*
Y1950000D03*
G54D12*
X-4710000Y4800000D03*
X-3920000D03*
G54D21*
X-3085000Y4522500D03*
X-2985000D03*
G54D30*
X200000Y2755000D03*
X155000D03*
X425000D03*
X380000D03*
X335000D03*
X290000D03*
X245000D03*
G54D31*
X95000Y2815000D03*
Y2860000D03*
Y2905000D03*
Y2950000D03*
Y2995000D03*
Y3040000D03*
Y3085000D03*
G54D13*
X-4561250Y4570000D03*
X-4068750D03*
G54D22*
X-2633000Y4111500D03*
Y4026500D03*
G54D40*
X2135000Y3650000D03*
X2185000D03*
X2235000D03*
X2285000D03*
X2335000D03*
X2385000D03*
X2435000D03*
X2485000D03*
X2535000D03*
X2585000D03*
X2635000D03*
X2685000D03*
G54D32*
X290000Y2950000D03*
G54D41*
X2770000Y2620000D03*
Y2780000D03*
X2990000Y2620000D03*
Y2780000D03*
G54D23*
X-2700500Y4111500D03*
X-2565500D03*
Y4026500D03*
X-2700500D03*
G54D14*
X-4408750Y4800000D03*
X-4221250D03*
G54D33*
X155000Y3145000D03*
X200000D03*
X245000D03*
X290000D03*
X335000D03*
X380000D03*
X425000D03*
G54D15*
X-4315000Y4534000D03*
X-4380000D03*
X-4445000D03*
X-4185000D03*
X-4250000D03*
G54D42*
X3029000Y3231000D03*
Y3381000D03*
G54D24*
X-2460000Y4798500D03*
Y4991500D03*
X-1730000D03*
Y4798500D03*
G54D43*
X4455000Y2825000D03*
G54D34*
X485000Y2860000D03*
Y2815000D03*
Y3085000D03*
Y3040000D03*
Y2995000D03*
Y2950000D03*
Y2905000D03*
G54D16*
X-3695000Y4110000D03*
Y4205000D03*
Y4300000D03*
X-3405000D03*
Y4110000D03*
G54D25*
X-2320000Y4720000D03*
X-2170000D03*
X-1870000D03*
G54D17*
X-3271500Y3905000D03*
X-3406500D03*
X-637500Y2845000D03*
X-772500D03*
X-632500Y2655000D03*
X-767500D03*
X-257500Y2680000D03*
Y2805000D03*
X-217500Y2995000D03*
X-122500Y2680000D03*
Y2805000D03*
X-82500Y2995000D03*
X342500Y3600000D03*
X477500D03*
X402500Y3330000D03*
X537500D03*
X887500Y3065000D03*
X752500D03*
X942500Y3240000D03*
X807500D03*
X1803500Y3136000D03*
X1938500D03*
X1803500Y2951000D03*
X1938500D03*
Y3282000D03*
X1803500D03*
X3057500Y2955000D03*
X2922500D03*
X3637500Y3035000D03*
X3294500Y3183000D03*
X3429500D03*
Y3386000D03*
X3294500D03*
X3429500Y3535000D03*
X3294500D03*
X3772500Y3035000D03*
X4178500D03*
X4313500D03*
G54D35*
X1191000Y4178500D03*
X1318000Y4051500D03*
Y4178500D03*
X1191000Y4051500D03*
X1445000D03*
Y4178500D03*
X1572000Y4051500D03*
Y4178500D03*
X1699000Y4051500D03*
G54D44*
X4455000Y3035000D03*
G54D26*
X-2245000Y4895000D03*
X-1945000D03*
G54D45*
G01X-4935000Y4662500D02*
Y4565000D01*
G01Y4662500D02*
X-4842500D01*
G01X-4935000Y4797500D02*
X-4712500D01*
X-4710000Y4800000D01*
G01X-4444000Y4220500D02*
Y4146000D01*
G01Y4220500D02*
X-4345500D01*
G01X-3406500Y3905000D02*
X-3660000D01*
X-4110500Y4355500D01*
X-4444000D01*
G01D02*
X-4445000Y4356500D01*
Y4534000D01*
G01X-4205000Y4650000D02*
X-4185000Y4630000D01*
Y4534000D01*
G01X-2700500Y4111500D02*
X-2960430D01*
X-2960630Y4111300D01*
X-2988700D01*
X-3034000Y4066000D01*
X-3211000D01*
X-3315000Y4170000D01*
X-3601860D01*
X-3661860Y4110000D01*
X-3695000D01*
G01Y4205000D02*
X-3620000D01*
X-3595000Y4230000D01*
G01X-3695000Y4662500D02*
Y4575000D01*
G01Y4662500D02*
X-3582500D01*
G01X-3920000Y4800000D02*
X-3917500Y4797500D01*
X-3695000D01*
G01X-2700500Y4026500D02*
X-2822000Y3905000D01*
X-3271500D01*
G01X-3406500D02*
X-3405000Y3906500D01*
Y4110000D01*
G01X-3084000Y4301500D02*
X-3085500Y4300000D01*
X-3405000D01*
G01X-3084000Y4166500D02*
X-2983500D01*
G01X-3084000D02*
X-3171500D01*
G01X-3084000Y4301500D02*
Y4521500D01*
X-3085000Y4522500D01*
G01X-1895000Y4615000D02*
X-1950000D01*
X-2263500Y4301500D01*
X-3084000D01*
G01X-2985000Y4522500D02*
Y4670000D01*
G01X-2462000Y3898500D02*
X-2565500Y4002000D01*
Y4026500D01*
G01X-2633000D02*
X-2631000Y4024500D01*
Y3765500D01*
G01X-2633000Y4111500D02*
Y4167000D01*
G01X-2565500Y4111500D02*
Y4140000D01*
X-2540500Y4165000D01*
X-2515000D01*
G01X-2655000Y4662500D02*
X-2752500D01*
G01X-2655000D02*
Y4580000D01*
G01X-2460000Y4798500D02*
X-2654000D01*
X-2655000Y4797500D01*
G01X-2170000Y4720000D02*
Y4600000D01*
X-2145000Y4575000D01*
X-2070000D01*
G01X-1787000Y4159500D02*
Y4088000D01*
G01Y4159500D02*
X-1894500D01*
G01X-1787000Y4294500D02*
X-1545500D01*
X-1545000Y4295000D01*
G01X-1925000Y4430000D02*
X-1789500Y4294500D01*
X-1787000D01*
G01X-1870000Y4720000D02*
Y4640000D01*
X-1895000Y4615000D01*
G01X-885500Y4700000D02*
X-1565000D01*
X-1650000Y4615000D01*
X-1895000D01*
G01X-1545000Y4145000D02*
X-1435000D01*
G01X-1545000Y4295000D02*
Y4245000D01*
G01D02*
Y4195000D01*
G01X-1465000Y4932500D02*
Y5000000D01*
G01Y4932500D02*
X-1567500D01*
G01X-1105000Y4345000D02*
X-1225000D01*
G01X-1105000Y4145000D02*
X-1225000D01*
G01X-1105000Y4195000D02*
X-909640D01*
X-861140Y4146500D01*
X-841000D01*
G01X-1105000Y4245000D02*
X-841500D01*
X-841000Y4244500D01*
G01X-1105000Y4295000D02*
X-925500D01*
X-841000Y4379500D01*
G01Y4011500D02*
Y3934000D01*
G01Y4011500D02*
X-753500D01*
G01X-175000Y4255000D02*
X-283500Y4146500D01*
X-841000D01*
G01X-655000Y4365500D02*
X-475500D01*
X-475000Y4365000D01*
G01X-750000Y4565000D02*
Y4390000D01*
X-725000Y4365000D01*
X-655500D01*
X-655000Y4365500D01*
G01Y4500500D02*
Y4580000D01*
G01X-475000Y4465000D02*
X-550000D01*
G01X-290000Y2955000D02*
Y2965000D01*
X-260000Y2995000D01*
X-217500D01*
G01X-185000Y3250000D02*
X145000Y3580000D01*
G01X-475000Y4415000D02*
Y4365000D01*
G01Y4515000D02*
Y4570000D01*
G01X155000Y2755000D02*
Y2735000D01*
X70000Y2650000D01*
G01X95000Y2950000D02*
X204930D01*
X204980Y2949950D01*
G01X-82500Y2995000D02*
X95000D01*
G01X-82500D02*
Y3142500D01*
G01X145000Y3580000D02*
X385000Y3820000D01*
Y3895000D01*
G01X290000Y3145000D02*
Y3435000D01*
X145000Y3580000D01*
G01X485000Y2860000D02*
X530630D01*
X555000Y2835630D01*
Y2745000D01*
G01X485000Y2905000D02*
Y2860000D01*
G01Y2950000D02*
X585000D01*
X615000Y2920000D01*
G01X537500Y3330000D02*
X540000D01*
G01X477500Y3600000D02*
Y3802500D01*
X385000Y3895000D01*
G01X540000Y3550000D02*
X527500D01*
X477500Y3600000D01*
G01X385000Y4322500D02*
Y3895000D01*
G01X815000Y4322500D02*
X385000D01*
G01X953000Y3796500D02*
X1073500D01*
G01X953000D02*
Y3702000D01*
G01X1699000Y4178500D02*
Y4183500D01*
X1560000Y4322500D01*
X815000D01*
G01X953000Y4186500D02*
X951000D01*
X815000Y4322500D01*
G01X2625000Y2595000D02*
X1820000D01*
X1547500Y2867500D01*
G01X1702500Y3022500D02*
X1728700Y3048700D01*
Y3207200D01*
X1803500Y3282000D01*
G01X1656000Y3282500D02*
X1803000D01*
X1803500Y3282000D01*
G01X1699000Y4178500D02*
X2259000D01*
X2555000Y3882500D01*
G01X1938500Y3282000D02*
X2035500Y3185000D01*
X2070000D01*
G01X1938500Y3136000D02*
X2069000D01*
X2070000Y3135000D01*
G01X1938500Y2951000D02*
Y3136000D01*
G01X2059000Y3961500D02*
Y4069000D01*
G01Y3961500D02*
X1943500D01*
G01X2485000Y2970000D02*
Y2929640D01*
X2420000Y2864640D01*
Y2857500D01*
G01Y2722500D02*
Y2655000D01*
G01X2235000Y3798500D02*
Y3650000D01*
G01Y3798500D02*
X2504000D01*
X2555000Y3747500D01*
G01X2235000Y3933500D02*
Y4040000D01*
G01Y3933500D02*
X2333500D01*
G01X2534000Y2860500D02*
Y2969000D01*
X2535000Y2970000D01*
G01X2920000Y2952500D02*
Y2895000D01*
X2945000Y2870000D01*
X3120000D01*
X3145000Y2845000D01*
Y2803070D01*
X3145200Y2802870D01*
Y2757130D01*
X3145000Y2756930D01*
Y2560000D01*
X3120000Y2535000D01*
X2691850D01*
X2631850Y2595000D01*
X2625000D01*
G01X2534000Y2860500D02*
Y2856000D01*
X2610000Y2780000D01*
Y2678070D01*
X2609800Y2677870D01*
Y2632130D01*
X2610000Y2631930D01*
Y2610000D01*
X2625000Y2595000D01*
G01X2534000Y2725500D02*
Y2651000D01*
G01X2770000Y2620000D02*
X2700000D01*
X2665000Y2655000D01*
G01X2685000Y2970000D02*
Y2940000D01*
X2710000Y2915000D01*
X2882500D01*
X2920000Y2952500D01*
G01X2750000Y3135000D02*
X2933000D01*
X3029000Y3231000D01*
G01X2750000Y3185000D02*
X2833000D01*
X3029000Y3381000D01*
G01X3429000Y3034500D02*
X2750500D01*
X2750000Y3035000D01*
G01Y3085000D02*
X3023640D01*
X3121640Y3183000D01*
X3294500D01*
G01X2685000Y3747500D02*
Y3650000D01*
G01X2555000Y3747500D02*
X2685000D01*
G01X2990000Y2780000D02*
X3090000D01*
G01X2922500Y2955000D02*
X2920000Y2952500D01*
G01X3057500Y2955000D02*
X3150000D01*
G01X3029000Y3231000D02*
X3139500D01*
X3294500Y3386000D01*
G01Y3535000D02*
X3294000Y3535500D01*
X3183500D01*
X3029000Y3381000D01*
G01X3429000Y2899500D02*
Y2821000D01*
G01Y2899500D02*
X3520500D01*
G01X3637500Y3035000D02*
X3429500D01*
X3429000Y3034500D01*
G01D02*
Y3182500D01*
X3429500Y3183000D01*
G01Y3535000D02*
X3520000D01*
G01X3429500D02*
Y3624500D01*
G01Y3386000D02*
X3524000D01*
G01X3429500D02*
Y3300500D01*
G01X3982000Y2899500D02*
Y2828000D01*
G01Y2899500D02*
X4079500D01*
G01X3982000Y3034500D02*
X4178000D01*
X4178500Y3035000D01*
G01X3982000Y3034500D02*
X3773000D01*
X3772500Y3035000D01*
G01X4455000Y2825000D02*
X4350000D01*
G01X4313500Y3035000D02*
X4455000D01*
G01D02*
X4490000D01*
G54D18*
X-3215000Y4910000D03*
X-2855000D03*
G54D36*
X1699000Y4178500D03*
G54D27*
X-1545000Y4145000D03*
Y4195000D03*
Y4245000D03*
Y4295000D03*
Y4345000D03*
X-1105000D03*
Y4295000D03*
Y4245000D03*
Y4195000D03*
Y4145000D03*
G54D46*
G01X-4845000Y850000D02*
Y-3250000D01*
X-4775000Y-3320000D01*
G01X-4675000Y680000D02*
X-4845000Y850000D01*
G01D02*
Y1825000D01*
X-3825000Y2845000D01*
X-772500D01*
G01X-4000000Y-5325000D02*
X-4505000Y-4820000D01*
Y-1005000D01*
G01D02*
Y1765000D01*
X-3615000Y2655000D01*
X-767500D01*
G01X-4505000Y-1005000D02*
X-4295000D01*
X-3990000Y-1310000D01*
G01X-3000000Y-50000D02*
X-3265000Y215000D01*
X-3535000D01*
X-4040000Y720000D01*
Y1895000D01*
X-3580000Y2355000D01*
X-2595000D01*
G01X-3000000Y-4050000D02*
X-2715000Y-3765000D01*
X-2440000D01*
X-2030000Y-3355000D01*
Y-1420000D01*
G01X-3000000Y-2050000D02*
X-2725000Y-1775000D01*
X-2385000D01*
X-2030000Y-1420000D01*
G01X-3000000Y1950000D02*
Y1975000D01*
G01Y1950000D02*
X-2595000Y2355000D01*
G01D02*
X-795000D01*
X-345000Y2805000D01*
X-257500D01*
G01X2750000Y3435000D02*
X2819070D01*
X2975000Y3590930D01*
Y3820000D01*
X2085000Y4710000D01*
X-720000D01*
X-860000Y4570000D01*
X-1535000D01*
X-1595000Y4510000D01*
X-1930000D01*
X-2180000Y4260000D01*
Y3900000D01*
X-2449500Y3630500D01*
X-2631000D01*
G01X-2462000Y3763500D02*
X-2381500D01*
X-2240000Y3905000D01*
Y4240000D01*
X-1935000Y4545000D01*
X-1600000D01*
X-1545000Y4600000D01*
X-870010D01*
X-730410Y4739600D01*
X2100400D01*
X3015000Y3825000D01*
Y3595000D01*
X2805000Y3385000D01*
X2750000D01*
G01X-2700500Y4026500D02*
Y4028460D01*
X-2660900Y4068060D01*
X-2451940D01*
X-1940000Y4580000D01*
X-1610000D01*
X-1555000Y4635000D01*
X-875000D01*
X-745000Y4765000D01*
X2115000D01*
X3050000Y3830000D01*
Y3575000D01*
X2810000Y3335000D01*
X2750000D01*
G01X-2030000Y-1420000D02*
Y1830000D01*
X-1650000Y2210000D01*
X-845000D01*
X-375000Y2680000D01*
X-257500D01*
G01X-1730000Y4798500D02*
X-1466000D01*
X-1465000Y4797500D01*
G01X-1000000Y-4050000D02*
X-735000Y-3785000D01*
X-360000D01*
X45000Y-3380000D01*
Y-1325000D01*
G01X-1000000Y-2050000D02*
X-755000Y-1805000D01*
X-435000D01*
X45000Y-1325000D01*
G01X-1000000Y-50000D02*
X-755000Y195000D01*
X-475000D01*
X-95000Y575000D01*
Y2030000D01*
X95050Y2220050D01*
Y2322500D01*
G01D02*
X-627500D01*
X-1000000Y1950000D01*
G01X50000Y3295000D02*
X-70000D01*
X-520000Y2845000D01*
X-637500D01*
G01X180000Y3240000D02*
X-81950D01*
X-632500Y2689450D01*
Y2655000D01*
G01X385000Y4457500D02*
X305000Y4377500D01*
Y4290000D01*
X245000Y4230000D01*
X-80000D01*
X-215000Y4365000D01*
X-265000D01*
G01X190000Y4457500D02*
X137500D01*
X112500Y4432500D01*
Y4330550D01*
X50400Y4268450D01*
X-68450D01*
X-215000Y4415000D01*
X-265000D01*
G01Y4465000D02*
X-12500D01*
X-5000Y4457500D01*
G01X45000Y-1325000D02*
Y1985000D01*
X220040Y2160040D01*
Y2322500D01*
G01X290000Y2755000D02*
Y2550000D01*
X220040Y2480040D01*
Y2457500D01*
G01X245000Y2755000D02*
Y2610000D01*
X95050Y2460050D01*
Y2457500D01*
G01X95000Y2905000D02*
X-40000D01*
X-122500Y2822500D01*
Y2805000D01*
G01X185000Y2635000D02*
Y2703070D01*
X199990Y2718060D01*
X200000Y2755000D01*
G01X95000Y2860000D02*
X12700D01*
X-40000Y2807300D01*
Y2700000D01*
X-60000Y2680000D01*
X-122500D01*
G01X200000Y3145000D02*
Y3220000D01*
X180000Y3240000D01*
G01X245000Y3145000D02*
Y3282300D01*
X232300Y3295000D01*
X50000D01*
G01X190000Y4457500D02*
X272500D01*
X340000Y4525000D01*
X2187880D01*
X2895000Y3817880D01*
Y3620000D01*
X2810000Y3535000D01*
X2750000D01*
G01Y3485000D02*
X2815000D01*
X2930000Y3600000D01*
Y3818810D01*
X2178810Y4570000D01*
X170000D01*
X57500Y4457500D01*
X-5000D01*
G01X345030Y2322500D02*
X578760Y2088770D01*
G01D02*
X717530Y1950000D01*
G01X1000000Y-50000D02*
X1230000Y180000D01*
X1480000D01*
X1890000Y590000D01*
Y1925000D01*
X1726230Y2088770D01*
X578760D01*
G01X2025000Y-1385000D02*
Y1905000D01*
X1810000Y2120000D01*
X615000D01*
X470020Y2264980D01*
Y2322500D01*
G01X2775000Y2175000D02*
X665000D01*
X595010Y2244990D01*
Y2322500D01*
G01X425000Y2755000D02*
Y2655000D01*
X595010Y2484990D01*
Y2457500D01*
G01X380000Y2755000D02*
Y2635000D01*
X470020Y2544980D01*
Y2457500D01*
G01X335000Y2755000D02*
Y2535000D01*
X345030Y2524970D01*
Y2457500D01*
G01X485000Y2815000D02*
Y2705000D01*
X720000Y2470000D01*
Y2457500D01*
G01X485000Y2995000D02*
X817500D01*
X887500Y3065000D01*
G01X380000Y3145000D02*
Y3307500D01*
X402500Y3330000D01*
G01X335000Y3145000D02*
Y3410000D01*
G01X2285000Y2970000D02*
Y2652700D01*
X2272300Y2640000D01*
X1845000D01*
X1145000Y3340000D01*
X695000D01*
X485000Y3130000D01*
Y3085000D01*
G01X2235000Y2970000D02*
Y2702700D01*
X2222300Y2690000D01*
X1835000D01*
X1115000Y3410000D01*
X726950D01*
X571950Y3255000D01*
X437700D01*
X425000Y3242300D01*
Y3145000D01*
G01X485000Y3040000D02*
X498460Y3053460D01*
X558460D01*
X655000Y3150000D01*
X880000D01*
X942500Y3212500D01*
G01X2185000Y2970000D02*
Y2772700D01*
X2172300Y2760000D01*
X1805000D01*
X1125000Y3440000D01*
X465000D01*
X402500Y3377500D01*
Y3330000D01*
G01X335000Y3410000D02*
Y3592500D01*
X342500Y3600000D01*
G01X335000Y3410000D02*
X405000Y3480000D01*
X1125000D01*
X1800000Y2805000D01*
X1970000D01*
X2135000Y2970000D01*
G01X385000Y4457500D02*
X2219450D01*
X2860000Y3816950D01*
Y3695000D01*
X2750000Y3585000D01*
G01X717530Y1950000D02*
X1010000D01*
G01X4160000Y-1245000D02*
Y1965000D01*
X3802500Y2322500D01*
X720000D01*
G01X887500Y3065000D02*
Y2870000D01*
X895000Y2862500D01*
G01X1095000Y2727500D02*
X895000D01*
G01D02*
Y2647700D01*
X882300Y2635000D01*
X635000D01*
G01X752500Y3065000D02*
X665000D01*
G01X807500Y3240000D02*
X695000D01*
G01X1095000Y2862500D02*
Y3060000D01*
X942500Y3212500D01*
G01D02*
Y3240000D01*
G01X953000Y4051500D02*
Y3931500D01*
G01Y4051500D02*
X1191000D01*
G01X1000000Y-4050000D02*
X1340000Y-3710000D01*
X1620000D01*
X2025000Y-3305000D01*
Y-1385000D01*
G01X1000000Y-2050000D02*
X1195000Y-1855000D01*
X1555000D01*
X2025000Y-1385000D01*
G01X1000000Y-1325000D02*
X995000Y-1330000D01*
G01X2070000Y3085000D02*
X2025950D01*
X2020950Y3080000D01*
Y2924000D01*
X1966950Y2870000D01*
X1775050D01*
X1191000Y3454050D01*
Y4051500D01*
G01X1318000D02*
X1984500Y3385000D01*
X2070000D01*
G01X1572000Y4051500D02*
X1603500D01*
X1629150Y4025850D01*
Y4022560D01*
X2066710Y3585000D01*
X2070000D01*
G01Y3435000D02*
X2055750D01*
X1445000Y4045750D01*
Y4051500D01*
G01X2135000Y3650000D02*
X2134500Y3649500D01*
X2101500D01*
X1699500Y4051500D01*
X1699000D01*
G01X2070000Y3085000D02*
X2069000Y3084000D01*
G01X2185000Y3650000D02*
Y3723000D01*
X2081500Y3826500D01*
X2059000D01*
G01X3000000Y1950000D02*
X2775000Y2175000D01*
G01X3000000Y-50000D02*
X3275000Y225000D01*
X3555000D01*
X3930000Y600000D01*
Y1955000D01*
X3710000Y2175000D01*
X2775000D01*
G01X2635000Y2970000D02*
Y2920950D01*
X2699390Y2856560D01*
X2847900D01*
X2880000Y2824460D01*
Y2632700D01*
X2892700Y2620000D01*
X2990000D01*
G01X2585000Y2970000D02*
Y2920000D01*
X2725000Y2780000D01*
X2770000D01*
G01X3000000Y-4050000D02*
X3260000Y-3790000D01*
X3625000D01*
X4160000Y-3255000D01*
Y-1245000D01*
G01X3000000Y-2050000D02*
X3335000Y-1715000D01*
X3690000D01*
X4160000Y-1245000D01*
G54D37*
X2070000Y3035000D03*
Y3085000D03*
Y3135000D03*
Y3185000D03*
Y3235000D03*
Y3285000D03*
Y3335000D03*
Y3385000D03*
Y3435000D03*
Y3485000D03*
Y3535000D03*
Y3585000D03*
X2750000Y3235000D03*
Y3185000D03*
Y3135000D03*
Y3085000D03*
Y3035000D03*
Y3585000D03*
Y3535000D03*
Y3485000D03*
Y3435000D03*
Y3385000D03*
Y3335000D03*
Y3285000D03*
G54D28*
X-370000Y4440000D03*
G54D19*
X-3000000Y-5325000D03*
Y-3325000D03*
Y-1325000D03*
Y675000D03*
X-1000000Y-5325000D03*
Y-3325000D03*
Y-1325000D03*
Y675000D03*
X1000000Y-5325000D03*
Y-3325000D03*
Y-1325000D03*
X1010000Y675000D03*
X3000000Y-5325000D03*
Y-3325000D03*
Y-1325000D03*
Y675000D03*
G54D38*
X2410000Y3310000D03*
G54D29*
X-265000Y4365000D03*
X-475000D03*
X-265000Y4415000D03*
Y4465000D03*
Y4515000D03*
X-475000D03*
Y4415000D03*
Y4465000D03*
G54D39*
X2485000Y2970000D03*
X2435000D03*
X2385000D03*
X2335000D03*
X2285000D03*
X2235000D03*
X2185000D03*
X2135000D03*
X2685000D03*
X2635000D03*
X2585000D03*
X2535000D03*
M02*
