G04 ================== begin FILE IDENTIFICATION RECORD ==================*
G04 Layout Name:  Tesis_minimum_size_v2.brd*
G04 Film Name:    SILK_BOT*
G04 File Format:  Gerber RS274X*
G04 File Origin:  Cadence Allegro 17.2-P019*
G04 Origin Date:  Fri Nov 16 17:11:54 2018*
G04 *
G04 Layer:  REF DES/SILKSCREEN_BOTTOM*
G04 Layer:  PACKAGE GEOMETRY/SILKSCREEN_BOTTOM*
G04 Layer:  BOARD GEOMETRY/SILKSCREEN_BOTTOM*
G04 *
G04 Offset:    (0.0000 0.0000)*
G04 Mirror:    No*
G04 Mode:      Positive*
G04 Rotation:  0*
G04 FullContactRelief:  No*
G04 UndefLineWidth:     0.0100*
G04 ================== end FILE IDENTIFICATION RECORD ====================*
%FSLAX25Y25*MOMM*%
%IR0*IPPOS*OFA0.00000B0.00000*MIA0B0*SFA1.00000B1.00000*%
%ADD10C,.01*%
G75*
%LPD*%
G75*
G54D10*
G01X-1349610Y-3027740D02*
Y-3084170D01*
X-1345720Y-3095980D01*
X-1337930Y-3103860D01*
X-1328190Y-3106480D01*
X-1318450Y-3103860D01*
X-1310660Y-3095980D01*
X-1306770Y-3084170D01*
Y-3027740D01*
G01X-1267950Y-3073670D02*
X-1261130Y-3064480D01*
X-1255290Y-3059240D01*
X-1247500Y-3056610D01*
X-1240690Y-3059240D01*
X-1235820Y-3064480D01*
X-1231920Y-3072360D01*
X-1230950Y-3081550D01*
X-1231920Y-3089420D01*
X-1235820Y-3097300D01*
X-1241660Y-3103860D01*
X-1248480Y-3106480D01*
X-1256270Y-3103860D01*
X-1263080Y-3095980D01*
X-1266980Y-3084170D01*
X-1267950Y-3071050D01*
X-1266000Y-3053990D01*
X-1263080Y-3044800D01*
X-1258210Y-3035610D01*
X-1251400Y-3029050D01*
X-1244580Y-3027740D01*
X-1237770Y-3030360D01*
X-1232900Y-3036930D01*
G01X33240Y-2425710D02*
X-23190D01*
X-35000Y-2421820D01*
X-42880Y-2414030D01*
X-45500Y-2404290D01*
X-42880Y-2394550D01*
X-35000Y-2386760D01*
X-23190Y-2382870D01*
X33240D01*
G01X-45500Y-2327500D02*
X-28440Y-2325550D01*
X-14010Y-2322630D01*
X-880Y-2318730D01*
X13550Y-2313870D01*
X33240Y-2306080D01*
Y-2345020D01*
M02*
