G04 ================== begin FILE IDENTIFICATION RECORD ==================*
G04 Layout Name:  Tesis_minimum_size_v2.brd*
G04 Film Name:    SILK_TOP*
G04 File Format:  Gerber RS274X*
G04 File Origin:  Cadence Allegro 17.2-P019*
G04 Origin Date:  Fri Nov 16 17:11:54 2018*
G04 *
G04 Layer:  REF DES/SILKSCREEN_TOP*
G04 Layer:  PACKAGE GEOMETRY/SILKSCREEN_TOP*
G04 Layer:  BOARD GEOMETRY/SILKSCREEN_TOP*
G04 *
G04 Offset:    (0.0000 0.0000)*
G04 Mirror:    No*
G04 Mode:      Positive*
G04 Rotation:  0*
G04 FullContactRelief:  No*
G04 UndefLineWidth:     0.0100*
G04 ================== end FILE IDENTIFICATION RECORD ====================*
%FSLAX25Y25*MOMM*%
%IR0*IPPOS*OFA0.00000B0.00000*MIA0B0*SFA1.00000B1.00000*%
%ADD10C,.01*%
G75*
%LPD*%
G75*
G54D10*
G01X-1444670Y-3010000D02*
G03I-13830J0D01*
G01X-1352870Y-2887320D02*
X-1358710Y-2883380D01*
X-1365530Y-2880760D01*
X-1373320D01*
X-1382080Y-2884700D01*
X-1388890Y-2891260D01*
X-1393760Y-2899130D01*
X-1397660Y-2912260D01*
X-1398630Y-2924070D01*
X-1396680Y-2935880D01*
X-1393760Y-2943750D01*
X-1387920Y-2951630D01*
X-1381110Y-2956880D01*
X-1374290Y-2959500D01*
X-1367470D01*
X-1360660Y-2956880D01*
X-1354820Y-2952940D01*
X-1349950Y-2947690D01*
G01X-1314050Y-2893880D02*
X-1308210Y-2886010D01*
X-1301390Y-2882070D01*
X-1293600Y-2880760D01*
X-1283870Y-2883380D01*
X-1277050Y-2889950D01*
X-1275100Y-2897820D01*
X-1276080Y-2905700D01*
X-1279970Y-2912260D01*
X-1299440Y-2925380D01*
X-1308210Y-2934570D01*
X-1314050Y-2947690D01*
X-1316000Y-2959500D01*
X-1275100D01*
G01X-1216810D02*
Y-2880760D01*
X-1228490Y-2896510D01*
G01Y-2959500D02*
X-1205130D01*
G01X-1243250Y-2949500D02*
Y-2894500D01*
X-1437750D01*
Y-2949500D01*
X-1243250D01*
G01X-1418820Y-2651630D02*
X-1414880Y-2645790D01*
X-1412260Y-2638970D01*
Y-2631180D01*
X-1416200Y-2622420D01*
X-1422760Y-2615610D01*
X-1430630Y-2610740D01*
X-1443760Y-2606840D01*
X-1455570Y-2605870D01*
X-1467380Y-2607820D01*
X-1475250Y-2610740D01*
X-1483130Y-2616580D01*
X-1488380Y-2623390D01*
X-1491000Y-2630210D01*
Y-2637030D01*
X-1488380Y-2643840D01*
X-1484440Y-2649680D01*
X-1479190Y-2654550D01*
G01X-1491000Y-2708950D02*
X-1489690Y-2701160D01*
X-1484440Y-2694350D01*
X-1476570Y-2688500D01*
X-1467380Y-2684610D01*
X-1456880Y-2682660D01*
X-1446380D01*
X-1435880Y-2684610D01*
X-1426690Y-2688500D01*
X-1418820Y-2694350D01*
X-1413570Y-2701160D01*
X-1412260Y-2708950D01*
X-1413570Y-2716740D01*
X-1418820Y-2723550D01*
X-1426690Y-2729400D01*
X-1435880Y-2733290D01*
X-1446380Y-2735240D01*
X-1456880D01*
X-1467380Y-2733290D01*
X-1476570Y-2729400D01*
X-1484440Y-2723550D01*
X-1489690Y-2716740D01*
X-1491000Y-2708950D01*
G01Y-2765300D02*
X-1412260D01*
X-1491000Y-2810080D01*
X-1412260D01*
G01X-1425380Y-2847930D02*
X-1417510Y-2853770D01*
X-1413570Y-2860590D01*
X-1412260Y-2868380D01*
X-1414880Y-2878110D01*
X-1421450Y-2884930D01*
X-1429320Y-2886880D01*
X-1437200Y-2885900D01*
X-1443760Y-2882010D01*
X-1456880Y-2862540D01*
X-1466070Y-2853770D01*
X-1479190Y-2847930D01*
X-1491000Y-2845980D01*
Y-2886880D01*
G01X-1482000Y-2863500D02*
X-1272000D01*
Y-2607500D01*
X-1482000D01*
Y-2863500D01*
G01X-1211500Y-3148000D02*
Y-2999000D01*
X-1360500D01*
Y-3148000D01*
X-1211500D01*
G01X-1300370Y-2096000D02*
G03I-77130J0D01*
G01X-1304130Y-1911000D02*
G03I-75370J0D01*
G01X-437500Y-3130000D02*
Y-2880000D01*
X-757500D01*
Y-3130000D01*
X-437500D01*
G01X-934000Y-2881260D02*
X-1012740D01*
Y-2856920D01*
X-1008800Y-2849130D01*
X-1003550Y-2844260D01*
X-993050Y-2842320D01*
X-982560Y-2844260D01*
X-976000Y-2850110D01*
X-972060Y-2856920D01*
Y-2881260D01*
G01Y-2856920D02*
X-934000Y-2842320D01*
G01Y-2771370D02*
X-1012740D01*
X-956310Y-2807390D01*
Y-2758710D01*
G01X-944000Y-2730750D02*
X-999000D01*
Y-2925250D01*
X-944000D01*
Y-2730750D01*
G01X-1049000Y-2880760D02*
X-1127740D01*
Y-2856420D01*
X-1123800Y-2848630D01*
X-1118550Y-2843760D01*
X-1108050Y-2841820D01*
X-1097560Y-2843760D01*
X-1091000Y-2849610D01*
X-1087060Y-2856420D01*
Y-2880760D01*
G01Y-2856420D02*
X-1049000Y-2841820D01*
G01X-1064750Y-2803970D02*
X-1055560Y-2798130D01*
X-1050310Y-2790340D01*
X-1049000Y-2781580D01*
X-1050310Y-2773790D01*
X-1056870Y-2766000D01*
X-1064750Y-2761130D01*
X-1072620Y-2760160D01*
X-1081810Y-2762100D01*
X-1088370Y-2768920D01*
X-1091000Y-2775730D01*
Y-2784500D01*
G01Y-2775730D02*
X-1094930Y-2769890D01*
X-1101490Y-2765020D01*
X-1109370Y-2763080D01*
X-1117240Y-2765020D01*
X-1123800Y-2769890D01*
X-1127740Y-2778660D01*
X-1126430Y-2787420D01*
X-1121180Y-2796180D01*
G01X-1059000Y-2730250D02*
X-1114000D01*
Y-2924750D01*
X-1059000D01*
Y-2730250D01*
G01X-1172500Y-2504750D02*
X-1227500D01*
Y-2699250D01*
X-1172500D01*
Y-2504750D01*
G01X-933370Y-1965320D02*
X-939210Y-1961380D01*
X-946030Y-1958760D01*
X-953820D01*
X-962580Y-1962700D01*
X-969390Y-1969260D01*
X-974260Y-1977130D01*
X-978160Y-1990260D01*
X-979130Y-2002070D01*
X-977180Y-2013880D01*
X-974260Y-2021750D01*
X-968420Y-2029630D01*
X-961610Y-2034880D01*
X-954790Y-2037500D01*
X-947970D01*
X-941160Y-2034880D01*
X-935320Y-2030940D01*
X-930450Y-2025690D01*
G01X-876050Y-2037500D02*
X-883840Y-2036190D01*
X-890650Y-2030940D01*
X-896500Y-2023070D01*
X-900390Y-2013880D01*
X-902340Y-2003380D01*
Y-1992880D01*
X-900390Y-1982380D01*
X-896500Y-1973190D01*
X-890650Y-1965320D01*
X-883840Y-1960070D01*
X-876050Y-1958760D01*
X-868260Y-1960070D01*
X-861450Y-1965320D01*
X-855600Y-1973190D01*
X-851710Y-1982380D01*
X-849760Y-1992880D01*
Y-2003380D01*
X-851710Y-2013880D01*
X-855600Y-2023070D01*
X-861450Y-2030940D01*
X-868260Y-2036190D01*
X-876050Y-2037500D01*
G01X-819700D02*
Y-1958760D01*
X-774920Y-2037500D01*
Y-1958760D01*
G01X-718570Y-2037500D02*
Y-1958760D01*
X-730250Y-1974510D01*
G01Y-2037500D02*
X-706890D01*
G01X-533000Y-2174000D02*
Y-1831000D01*
X-1168000D01*
Y-2174000D01*
X-533000D01*
G01X-1030290Y-2564000D02*
Y-2485260D01*
X-993290D01*
G01X-1006920Y-2523320D02*
X-1030290D01*
G01X-952520Y-2485260D02*
Y-2564000D01*
X-913580D01*
G01X-854310D02*
Y-2485260D01*
X-865990Y-2501010D01*
G01Y-2564000D02*
X-842630D01*
G01X-805000Y-2578500D02*
Y-2493500D01*
X-1094000D01*
Y-2578500D01*
X-805000D01*
G01X-1162500Y-2655260D02*
X-1241240D01*
Y-2630920D01*
X-1237300Y-2623130D01*
X-1232050Y-2618260D01*
X-1221550Y-2616320D01*
X-1211060Y-2618260D01*
X-1204500Y-2624110D01*
X-1200560Y-2630920D01*
Y-2655260D01*
G01Y-2630920D02*
X-1162500Y-2616320D01*
G01X-1174310Y-2578470D02*
X-1167750Y-2572630D01*
X-1163810Y-2565810D01*
X-1162500Y-2557050D01*
X-1165120Y-2548290D01*
X-1170370Y-2541470D01*
X-1179560Y-2536600D01*
X-1190060Y-2535630D01*
X-1200560Y-2537580D01*
X-1207120Y-2542450D01*
X-1212370Y-2549260D01*
X-1213680Y-2556080D01*
X-1212370Y-2562890D01*
X-1207120Y-2571650D01*
X-1241240Y-2568730D01*
Y-2542450D01*
G01X-735260Y-2560000D02*
Y-2481260D01*
X-710920D01*
X-703130Y-2485200D01*
X-698260Y-2490450D01*
X-696320Y-2500950D01*
X-698260Y-2511440D01*
X-704110Y-2518000D01*
X-710920Y-2521940D01*
X-735260D01*
G01X-710920D02*
X-696320Y-2560000D01*
G01X-637050D02*
Y-2481260D01*
X-648730Y-2497010D01*
G01Y-2560000D02*
X-625370D01*
G01X-584750Y-2550000D02*
Y-2495000D01*
X-779250D01*
Y-2550000D01*
X-584750D01*
G01X-805870Y-2403820D02*
X-811710Y-2399880D01*
X-818530Y-2397260D01*
X-826320D01*
X-835080Y-2401200D01*
X-841890Y-2407760D01*
X-846760Y-2415630D01*
X-850660Y-2428760D01*
X-851630Y-2440570D01*
X-849680Y-2452380D01*
X-846760Y-2460250D01*
X-840920Y-2468130D01*
X-834110Y-2473380D01*
X-827290Y-2476000D01*
X-820470D01*
X-813660Y-2473380D01*
X-807820Y-2469440D01*
X-802950Y-2464190D01*
G01X-748550Y-2476000D02*
Y-2397260D01*
X-760230Y-2413010D01*
G01Y-2476000D02*
X-736870D01*
G01X-691230Y-2460250D02*
X-685390Y-2469440D01*
X-677600Y-2474690D01*
X-668840Y-2476000D01*
X-661050Y-2474690D01*
X-653260Y-2468130D01*
X-648390Y-2460250D01*
X-647420Y-2452380D01*
X-649360Y-2443190D01*
X-656180Y-2436630D01*
X-662990Y-2434000D01*
X-671760D01*
G01X-662990D02*
X-657150Y-2430070D01*
X-652280Y-2423510D01*
X-650340Y-2415630D01*
X-652280Y-2407760D01*
X-657150Y-2401200D01*
X-665920Y-2397260D01*
X-674680Y-2398570D01*
X-683440Y-2403820D01*
G01X-696250Y-2466000D02*
Y-2411000D01*
X-890750D01*
Y-2466000D01*
X-696250D01*
G01X-629790Y-3044000D02*
Y-3008570D01*
X-649260Y-2965260D01*
G01X-610320D02*
X-629790Y-3008570D01*
G01X-569550Y-2978380D02*
X-563710Y-2970510D01*
X-556890Y-2966570D01*
X-549100Y-2965260D01*
X-539370Y-2967880D01*
X-532550Y-2974450D01*
X-530600Y-2982320D01*
X-531580Y-2990200D01*
X-535470Y-2996760D01*
X-554940Y-3009880D01*
X-563710Y-3019070D01*
X-569550Y-3032190D01*
X-571500Y-3044000D01*
X-530600D01*
G01X-70870Y-3054820D02*
X-76710Y-3050880D01*
X-83530Y-3048260D01*
X-91320D01*
X-100080Y-3052200D01*
X-106890Y-3058760D01*
X-111760Y-3066630D01*
X-115660Y-3079760D01*
X-116630Y-3091570D01*
X-114680Y-3103380D01*
X-111760Y-3111250D01*
X-105920Y-3119130D01*
X-99110Y-3124380D01*
X-92290Y-3127000D01*
X-85470D01*
X-78660Y-3124380D01*
X-72820Y-3120440D01*
X-67950Y-3115190D01*
G01X-13550Y-3127000D02*
Y-3048260D01*
X-25230Y-3064010D01*
G01Y-3127000D02*
X-1870D01*
G01X65190Y-3048260D02*
X57400Y-3050880D01*
X51560Y-3057450D01*
X47660Y-3065320D01*
X44740Y-3075820D01*
X43770Y-3087630D01*
X44740Y-3099440D01*
X47660Y-3109940D01*
X51560Y-3117820D01*
X57400Y-3124380D01*
X65190Y-3127000D01*
X72980Y-3124380D01*
X78820Y-3117820D01*
X82720Y-3109940D01*
X85640Y-3099440D01*
X86610Y-3087630D01*
X85640Y-3075820D01*
X82720Y-3065320D01*
X78820Y-3057450D01*
X72980Y-3050880D01*
X65190Y-3048260D01*
G01X38750Y-3117000D02*
Y-3062000D01*
X-155750D01*
Y-3117000D01*
X38750D01*
G01X-154870Y-2971820D02*
X-160710Y-2967880D01*
X-167530Y-2965260D01*
X-175320D01*
X-184080Y-2969200D01*
X-190890Y-2975760D01*
X-195760Y-2983630D01*
X-199660Y-2996760D01*
X-200630Y-3008570D01*
X-198680Y-3020380D01*
X-195760Y-3028250D01*
X-189920Y-3036130D01*
X-183110Y-3041380D01*
X-176290Y-3044000D01*
X-169470D01*
X-162660Y-3041380D01*
X-156820Y-3037440D01*
X-151950Y-3032190D01*
G01X-97550Y-3044000D02*
Y-2965260D01*
X-109230Y-2981010D01*
G01Y-3044000D02*
X-85870D01*
G01X-18810D02*
X-11990Y-3042690D01*
X-4210Y-3038750D01*
X660Y-3032190D01*
X2610Y-3023000D01*
X660Y-3013820D01*
X-5180Y-3005940D01*
X-13940Y-3002000D01*
X-23680D01*
X-29520Y-2999380D01*
X-34390Y-2992820D01*
X-36340Y-2983630D01*
X-33410Y-2974450D01*
X-26600Y-2967880D01*
X-18810Y-2965260D01*
X-11020Y-2967880D01*
X-4210Y-2974450D01*
X-1280Y-2983630D01*
X-3230Y-2992820D01*
X-8100Y-2999380D01*
X-13940Y-3002000D01*
X-23680D01*
X-32440Y-3005940D01*
X-38280Y-3013820D01*
X-40230Y-3023000D01*
X-38280Y-3032190D01*
X-33410Y-3038750D01*
X-25630Y-3042690D01*
X-18810Y-3044000D01*
G01X-45250Y-3034000D02*
Y-2979000D01*
X-239750D01*
Y-3034000D01*
X-45250D01*
G01X-63740Y-2686000D02*
X-7310D01*
X4500Y-2684000D01*
X12380Y-2680000D01*
X15000Y-2675000D01*
X12380Y-2670000D01*
X4500Y-2666000D01*
X-7310Y-2664000D01*
X-63740D01*
G01X15000Y-2624680D02*
X-63740D01*
X-47990Y-2630680D01*
G01X15000D02*
Y-2618680D01*
G01X-184000Y-2477500D02*
Y-2822500D01*
X130500D01*
X161000Y-2792000D01*
Y-2477500D01*
X-184000D01*
G01X-325740Y-2339240D02*
Y-2260500D01*
X-364680D01*
G01X-402530Y-2276250D02*
X-408370Y-2267060D01*
X-416160Y-2261810D01*
X-424920Y-2260500D01*
X-432710Y-2261810D01*
X-440500Y-2268370D01*
X-445370Y-2276250D01*
X-446340Y-2284120D01*
X-444400Y-2293310D01*
X-437580Y-2299870D01*
X-430770Y-2302500D01*
X-422000D01*
G01X-430770D02*
X-436610Y-2306430D01*
X-441480Y-2312990D01*
X-443420Y-2320870D01*
X-441480Y-2328740D01*
X-436610Y-2335300D01*
X-427840Y-2339240D01*
X-419080Y-2337930D01*
X-410320Y-2332680D01*
G01X-525000Y-2250500D02*
Y-2335500D01*
X-236000D01*
Y-2250500D01*
X-525000D01*
G01X52680Y-2200130D02*
X56620Y-2194290D01*
X59240Y-2187470D01*
Y-2179680D01*
X55300Y-2170920D01*
X48740Y-2164110D01*
X40870Y-2159240D01*
X27740Y-2155340D01*
X15930Y-2154370D01*
X4120Y-2156320D01*
X-3750Y-2159240D01*
X-11630Y-2165080D01*
X-16880Y-2171890D01*
X-19500Y-2178710D01*
Y-2185530D01*
X-16880Y-2192340D01*
X-12940Y-2198180D01*
X-7690Y-2203050D01*
G01X-19500Y-2257450D02*
X-18190Y-2264270D01*
X-14250Y-2272050D01*
X-7690Y-2276920D01*
X1500Y-2278870D01*
X10680Y-2276920D01*
X18560Y-2271080D01*
X22500Y-2262320D01*
Y-2252580D01*
X25120Y-2246740D01*
X31680Y-2241870D01*
X40870Y-2239920D01*
X50050Y-2242850D01*
X56620Y-2249660D01*
X59240Y-2257450D01*
X56620Y-2265240D01*
X50050Y-2272050D01*
X40870Y-2274980D01*
X31680Y-2273030D01*
X25120Y-2268160D01*
X22500Y-2262320D01*
Y-2252580D01*
X18560Y-2243820D01*
X10680Y-2237980D01*
X1500Y-2236030D01*
X-7690Y-2237980D01*
X-14250Y-2242850D01*
X-18190Y-2250630D01*
X-19500Y-2257450D01*
G01X-9500Y-2309750D02*
X45500D01*
Y-2115250D01*
X-9500D01*
Y-2309750D01*
G01X-375630Y-2223180D02*
X-369790Y-2227120D01*
X-362970Y-2229740D01*
X-355180D01*
X-346420Y-2225800D01*
X-339610Y-2219240D01*
X-334740Y-2211370D01*
X-330840Y-2198240D01*
X-329870Y-2186430D01*
X-331820Y-2174620D01*
X-334740Y-2166750D01*
X-340580Y-2158870D01*
X-347390Y-2153620D01*
X-354210Y-2151000D01*
X-361030D01*
X-367840Y-2153620D01*
X-373680Y-2157560D01*
X-378550Y-2162810D01*
G01X-416400Y-2160180D02*
X-423210Y-2153620D01*
X-431000Y-2151000D01*
X-438790Y-2153620D01*
X-445610Y-2161500D01*
X-450480Y-2173310D01*
X-452420Y-2185120D01*
Y-2199560D01*
X-450480Y-2211370D01*
X-445610Y-2221870D01*
X-439770Y-2227120D01*
X-432950Y-2229740D01*
X-425160Y-2227120D01*
X-419320Y-2221870D01*
X-415420Y-2213990D01*
X-413480Y-2203490D01*
X-415420Y-2194310D01*
X-420290Y-2185120D01*
X-426130Y-2179870D01*
X-432950Y-2178560D01*
X-440740Y-2181180D01*
X-446580Y-2187740D01*
X-452420Y-2199560D01*
G01X-485250Y-2161000D02*
Y-2216000D01*
X-290750D01*
Y-2161000D01*
X-485250D01*
G01X-462370Y-2425820D02*
X-468210Y-2421880D01*
X-475030Y-2419260D01*
X-482820D01*
X-491580Y-2423200D01*
X-498390Y-2429760D01*
X-503260Y-2437630D01*
X-507160Y-2450760D01*
X-508130Y-2462570D01*
X-506180Y-2474380D01*
X-503260Y-2482250D01*
X-497420Y-2490130D01*
X-490610Y-2495380D01*
X-483790Y-2498000D01*
X-476970D01*
X-470160Y-2495380D01*
X-464320Y-2491440D01*
X-459450Y-2486190D01*
G01X-423550Y-2432380D02*
X-417710Y-2424510D01*
X-410890Y-2420570D01*
X-403100Y-2419260D01*
X-393370Y-2421880D01*
X-386550Y-2428450D01*
X-384600Y-2436320D01*
X-385580Y-2444200D01*
X-389470Y-2450760D01*
X-408940Y-2463880D01*
X-417710Y-2473070D01*
X-423550Y-2486190D01*
X-425500Y-2498000D01*
X-384600D01*
G01X-326310Y-2419260D02*
X-334100Y-2421880D01*
X-339940Y-2428450D01*
X-343840Y-2436320D01*
X-346760Y-2446820D01*
X-347730Y-2458630D01*
X-346760Y-2470440D01*
X-343840Y-2480940D01*
X-339940Y-2488820D01*
X-334100Y-2495380D01*
X-326310Y-2498000D01*
X-318520Y-2495380D01*
X-312680Y-2488820D01*
X-308780Y-2480940D01*
X-305860Y-2470440D01*
X-304890Y-2458630D01*
X-305860Y-2446820D01*
X-308780Y-2436320D01*
X-312680Y-2428450D01*
X-318520Y-2421880D01*
X-326310Y-2419260D01*
G01X-352750Y-2488000D02*
Y-2433000D01*
X-547250D01*
Y-2488000D01*
X-352750D01*
G01X-464370Y-2499320D02*
X-470210Y-2495380D01*
X-477030Y-2492760D01*
X-484820D01*
X-493580Y-2496700D01*
X-500390Y-2503260D01*
X-505260Y-2511130D01*
X-509160Y-2524260D01*
X-510130Y-2536070D01*
X-508180Y-2547880D01*
X-505260Y-2555750D01*
X-499420Y-2563630D01*
X-492610Y-2568880D01*
X-485790Y-2571500D01*
X-478970D01*
X-472160Y-2568880D01*
X-466320Y-2564940D01*
X-461450Y-2559690D01*
G01X-407050Y-2571500D02*
Y-2492760D01*
X-418730Y-2508510D01*
G01Y-2571500D02*
X-395370D01*
G01X-344860Y-2562320D02*
X-338050Y-2568880D01*
X-330260Y-2571500D01*
X-322470Y-2568880D01*
X-315650Y-2561000D01*
X-310780Y-2549190D01*
X-308840Y-2537380D01*
Y-2522940D01*
X-310780Y-2511130D01*
X-315650Y-2500630D01*
X-321490Y-2495380D01*
X-328310Y-2492760D01*
X-336100Y-2495380D01*
X-341940Y-2500630D01*
X-345840Y-2508510D01*
X-347780Y-2519010D01*
X-345840Y-2528190D01*
X-340970Y-2537380D01*
X-335130Y-2542630D01*
X-328310Y-2543940D01*
X-320520Y-2541320D01*
X-314680Y-2534760D01*
X-308840Y-2522940D01*
G01X-354750Y-2561500D02*
Y-2506500D01*
X-549250D01*
Y-2561500D01*
X-354750D01*
G01X95760Y-1741240D02*
Y-1662500D01*
X56820D01*
G01X-21920D02*
X17020D01*
Y-1741240D01*
X-21920D01*
G01X-6340Y-1703180D02*
X17020D01*
G01X-59770Y-1662500D02*
Y-1741240D01*
X-79240D01*
X-87030Y-1737300D01*
X-92870Y-1732050D01*
X-97740Y-1724180D01*
X-101640Y-1714990D01*
X-102610Y-1701870D01*
X-101640Y-1688750D01*
X-97740Y-1679560D01*
X-92870Y-1671680D01*
X-87030Y-1666440D01*
X-79240Y-1662500D01*
X-59770D01*
G01X-141430Y-1728120D02*
X-147270Y-1735990D01*
X-154090Y-1739930D01*
X-161880Y-1741240D01*
X-171610Y-1738620D01*
X-178430Y-1732050D01*
X-180380Y-1724180D01*
X-179400Y-1716300D01*
X-175510Y-1709740D01*
X-156040Y-1696620D01*
X-147270Y-1687430D01*
X-141430Y-1674310D01*
X-139480Y-1662500D01*
X-180380D01*
G01X-187000Y-1658000D02*
Y-1743000D01*
X102000D01*
Y-1658000D01*
X-187000D01*
G01X-217740Y-1742240D02*
Y-1663500D01*
X-256680D01*
G01X-335420D02*
X-296480D01*
Y-1742240D01*
X-335420D01*
G01X-319840Y-1704180D02*
X-296480D01*
G01X-373270Y-1663500D02*
Y-1742240D01*
X-392740D01*
X-400530Y-1738300D01*
X-406370Y-1733050D01*
X-411240Y-1725180D01*
X-415140Y-1715990D01*
X-416110Y-1702870D01*
X-415140Y-1689750D01*
X-411240Y-1680560D01*
X-406370Y-1672680D01*
X-400530Y-1667440D01*
X-392740Y-1663500D01*
X-373270D01*
G01X-473430D02*
Y-1742240D01*
X-461750Y-1726490D01*
G01Y-1663500D02*
X-485110D01*
G01X-500500Y-1659000D02*
Y-1744000D01*
X-211500D01*
Y-1659000D01*
X-500500D01*
G01X-441760Y-1830000D02*
Y-1751260D01*
X-417420D01*
X-409630Y-1755200D01*
X-404760Y-1760450D01*
X-402820Y-1770950D01*
X-404760Y-1781440D01*
X-410610Y-1788000D01*
X-417420Y-1791940D01*
X-441760D01*
G01X-417420D02*
X-402820Y-1830000D01*
G01X-362050Y-1797190D02*
X-355230Y-1788000D01*
X-349390Y-1782760D01*
X-341600Y-1780130D01*
X-334790Y-1782760D01*
X-329920Y-1788000D01*
X-326020Y-1795880D01*
X-325050Y-1805070D01*
X-326020Y-1812940D01*
X-329920Y-1820820D01*
X-335760Y-1827380D01*
X-342580Y-1830000D01*
X-350370Y-1827380D01*
X-357180Y-1819500D01*
X-361080Y-1807690D01*
X-362050Y-1794570D01*
X-360100Y-1777510D01*
X-357180Y-1768320D01*
X-352310Y-1759130D01*
X-345500Y-1752570D01*
X-338680Y-1751260D01*
X-331870Y-1753880D01*
X-327000Y-1760450D01*
G01X-291250Y-1820000D02*
Y-1765000D01*
X-485750D01*
Y-1820000D01*
X-291250D01*
G01X-132760Y-1830500D02*
Y-1751760D01*
X-108420D01*
X-100630Y-1755700D01*
X-95760Y-1760950D01*
X-93820Y-1771450D01*
X-95760Y-1781940D01*
X-101610Y-1788500D01*
X-108420Y-1792440D01*
X-132760D01*
G01X-108420D02*
X-93820Y-1830500D01*
G01X-36500D02*
X-34550Y-1813440D01*
X-31630Y-1799010D01*
X-27730Y-1785880D01*
X-22870Y-1771450D01*
X-15080Y-1751760D01*
X-54020D01*
G01X17750Y-1820500D02*
Y-1765500D01*
X-176750D01*
Y-1820500D01*
X17750D01*
G01X475740Y-2796460D02*
Y-2875200D01*
X514680D01*
G01X573950D02*
Y-2796460D01*
X562270Y-2812210D01*
G01Y-2875200D02*
X585630D01*
G01X626250Y-2865000D02*
Y-2810000D01*
X431750D01*
Y-2865000D01*
X626250D01*
G01X355740Y-2712960D02*
Y-2791700D01*
X394680D01*
G01X435450Y-2726080D02*
X441290Y-2718210D01*
X448110Y-2714270D01*
X455900Y-2712960D01*
X465630Y-2715580D01*
X472450Y-2722150D01*
X474400Y-2730020D01*
X473420Y-2737900D01*
X469530Y-2744460D01*
X450060Y-2757580D01*
X441290Y-2766770D01*
X435450Y-2779890D01*
X433500Y-2791700D01*
X474400D01*
G01X506250Y-2781500D02*
Y-2726500D01*
X311750D01*
Y-2781500D01*
X506250D01*
G01X706680Y-2756130D02*
X710620Y-2750290D01*
X713240Y-2743470D01*
Y-2735680D01*
X709300Y-2726920D01*
X702740Y-2720110D01*
X694870Y-2715240D01*
X681740Y-2711340D01*
X669930Y-2710370D01*
X658120Y-2712320D01*
X650250Y-2715240D01*
X642370Y-2721080D01*
X637120Y-2727890D01*
X634500Y-2734710D01*
Y-2741530D01*
X637120Y-2748340D01*
X641060Y-2754180D01*
X646310Y-2759050D01*
G01X667310Y-2794950D02*
X676500Y-2801770D01*
X681740Y-2807610D01*
X684370Y-2815400D01*
X681740Y-2822210D01*
X676500Y-2827080D01*
X668620Y-2830980D01*
X659430Y-2831950D01*
X651560Y-2830980D01*
X643680Y-2827080D01*
X637120Y-2821240D01*
X634500Y-2814420D01*
X637120Y-2806630D01*
X645000Y-2799820D01*
X656810Y-2795920D01*
X669930Y-2794950D01*
X686990Y-2796900D01*
X696180Y-2799820D01*
X705370Y-2804690D01*
X711930Y-2811500D01*
X713240Y-2818320D01*
X710620Y-2825130D01*
X704050Y-2830000D01*
G01X644500Y-2865750D02*
X699500D01*
Y-2671250D01*
X644500D01*
Y-2865750D01*
G01X313320Y-2913370D02*
X309380Y-2919210D01*
X306760Y-2926030D01*
Y-2933820D01*
X310700Y-2942580D01*
X317260Y-2949390D01*
X325130Y-2954260D01*
X338260Y-2958160D01*
X350070Y-2959130D01*
X361880Y-2957180D01*
X369750Y-2954260D01*
X377630Y-2948420D01*
X382880Y-2941610D01*
X385500Y-2934790D01*
Y-2927970D01*
X382880Y-2921160D01*
X378940Y-2915320D01*
X373690Y-2910450D01*
G01Y-2877470D02*
X380250Y-2871630D01*
X384190Y-2864810D01*
X385500Y-2856050D01*
X382880Y-2847290D01*
X377630Y-2840470D01*
X368440Y-2835600D01*
X357940Y-2834630D01*
X347440Y-2836580D01*
X340880Y-2841450D01*
X335630Y-2848260D01*
X334320Y-2855080D01*
X335630Y-2861890D01*
X340880Y-2870650D01*
X306760Y-2867730D01*
Y-2841450D01*
G01X375500Y-2803750D02*
X320500D01*
Y-2998250D01*
X375500D01*
Y-2803750D01*
G01X136820Y-3068370D02*
X132880Y-3074210D01*
X130260Y-3081030D01*
Y-3088820D01*
X134200Y-3097580D01*
X140760Y-3104390D01*
X148630Y-3109260D01*
X161760Y-3113160D01*
X173570Y-3114130D01*
X185380Y-3112180D01*
X193250Y-3109260D01*
X201130Y-3103420D01*
X206380Y-3096610D01*
X209000Y-3089790D01*
Y-3082970D01*
X206380Y-3076160D01*
X202440Y-3070320D01*
X197190Y-3065450D01*
G01X209000Y-3011050D02*
X130260D01*
X146010Y-3022730D01*
G01X209000D02*
Y-2999370D01*
G01Y-2932310D02*
X130260D01*
X146010Y-2943990D01*
G01X209000D02*
Y-2920630D01*
G01X199000Y-2958750D02*
X144000D01*
Y-3153250D01*
X199000D01*
Y-2958750D01*
G01X625240Y-2087500D02*
Y-2008760D01*
X649580D01*
X657370Y-2012700D01*
X662240Y-2017950D01*
X664180Y-2028450D01*
X662240Y-2038940D01*
X656390Y-2045500D01*
X649580Y-2049440D01*
X625240D01*
G01X649580D02*
X664180Y-2087500D01*
G01X706900Y-2078320D02*
X713710Y-2084880D01*
X721500Y-2087500D01*
X729290Y-2084880D01*
X736110Y-2077000D01*
X740980Y-2065190D01*
X742920Y-2053380D01*
Y-2038940D01*
X740980Y-2027130D01*
X736110Y-2016630D01*
X730270Y-2011380D01*
X723450Y-2008760D01*
X715660Y-2011380D01*
X709820Y-2016630D01*
X705920Y-2024510D01*
X703980Y-2035010D01*
X705920Y-2044190D01*
X710790Y-2053380D01*
X716630Y-2058630D01*
X723450Y-2059940D01*
X731240Y-2057320D01*
X737080Y-2050760D01*
X742920Y-2038940D01*
G01X775750Y-2077500D02*
Y-2022500D01*
X581250D01*
Y-2077500D01*
X775750D01*
G01X646790Y-2409000D02*
Y-2444430D01*
X666260Y-2487740D01*
G01X627320D02*
X646790Y-2444430D01*
G01X568050Y-2409000D02*
Y-2487740D01*
X579730Y-2471990D01*
G01Y-2409000D02*
X556370D01*
G01X435000Y-2349500D02*
Y-2529500D01*
X785000D01*
Y-2349500D01*
X435000D01*
G01X155680Y-2199630D02*
X159620Y-2193790D01*
X162240Y-2186970D01*
Y-2179180D01*
X158300Y-2170420D01*
X151740Y-2163610D01*
X143870Y-2158740D01*
X130740Y-2154840D01*
X118930Y-2153870D01*
X107120Y-2155820D01*
X99250Y-2158740D01*
X91370Y-2164580D01*
X86120Y-2171390D01*
X83500Y-2178210D01*
Y-2185030D01*
X86120Y-2191840D01*
X90060Y-2197680D01*
X95310Y-2202550D01*
G01X83500Y-2256950D02*
X162240D01*
X146490Y-2245270D01*
G01X83500D02*
Y-2268630D01*
G01Y-2333740D02*
X100560Y-2335690D01*
X114990Y-2338610D01*
X128120Y-2342510D01*
X142550Y-2347370D01*
X162240Y-2355160D01*
Y-2316220D01*
G01X93500Y-2309250D02*
X148500D01*
Y-2114750D01*
X93500D01*
Y-2309250D01*
G01X519370Y-2340180D02*
X525210Y-2344120D01*
X532030Y-2346740D01*
X539820D01*
X548580Y-2342800D01*
X555390Y-2336240D01*
X560260Y-2328370D01*
X564160Y-2315240D01*
X565130Y-2303430D01*
X563180Y-2291620D01*
X560260Y-2283750D01*
X554420Y-2275870D01*
X547610Y-2270620D01*
X540790Y-2268000D01*
X533970D01*
X527160Y-2270620D01*
X521320Y-2274560D01*
X516450Y-2279810D01*
G01X450370Y-2268000D02*
Y-2346740D01*
X486390Y-2290310D01*
X437710D01*
G01X409750Y-2278000D02*
Y-2333000D01*
X604250D01*
Y-2278000D01*
X409750D01*
G01X703630Y-2271320D02*
X697790Y-2267380D01*
X690970Y-2264760D01*
X683180D01*
X674420Y-2268700D01*
X667610Y-2275260D01*
X662740Y-2283130D01*
X658840Y-2296260D01*
X657870Y-2308070D01*
X659820Y-2319880D01*
X662740Y-2327750D01*
X668580Y-2335630D01*
X675390Y-2340880D01*
X682210Y-2343500D01*
X689030D01*
X695840Y-2340880D01*
X701680Y-2336940D01*
X706550Y-2331690D01*
G01X739530Y-2327750D02*
X745370Y-2336940D01*
X753160Y-2342190D01*
X761920Y-2343500D01*
X769710Y-2342190D01*
X777500Y-2335630D01*
X782370Y-2327750D01*
X783340Y-2319880D01*
X781400Y-2310690D01*
X774580Y-2304130D01*
X767770Y-2301500D01*
X759000D01*
G01X767770D02*
X773610Y-2297570D01*
X778480Y-2291010D01*
X780420Y-2283130D01*
X778480Y-2275260D01*
X773610Y-2268700D01*
X764840Y-2264760D01*
X756080Y-2266070D01*
X747320Y-2271320D01*
G01X813250Y-2333500D02*
Y-2278500D01*
X618750D01*
Y-2333500D01*
X813250D01*
G01X562740Y-1791000D02*
X554950Y-1784440D01*
X546180Y-1780500D01*
X538400D01*
X530610Y-1784440D01*
X524760Y-1791000D01*
X521840Y-1800190D01*
X523790Y-1809370D01*
X528660Y-1817240D01*
X537420Y-1822500D01*
X549110Y-1825120D01*
X555920Y-1830370D01*
X558840Y-1839550D01*
X556890Y-1848740D01*
X552030Y-1855300D01*
X545210Y-1859240D01*
X538400D01*
X531580Y-1856620D01*
X525740Y-1850050D01*
G01X492760Y-1859240D02*
X479130Y-1780500D01*
X463550Y-1859240D01*
X447970Y-1780500D01*
X434340Y-1859240D01*
G01X403310Y-1846120D02*
X397470Y-1853990D01*
X390650Y-1857930D01*
X382860Y-1859240D01*
X373130Y-1856620D01*
X366310Y-1850050D01*
X364360Y-1842180D01*
X365340Y-1834300D01*
X369230Y-1827740D01*
X388700Y-1814620D01*
X397470Y-1805430D01*
X403310Y-1792310D01*
X405260Y-1780500D01*
X364360D01*
G01X225000Y-1655000D02*
Y-1965000D01*
X775000D01*
Y-1655000D01*
X225000D01*
G01X833870Y-2872180D02*
X839710Y-2876120D01*
X846530Y-2878740D01*
X854320D01*
X863080Y-2874800D01*
X869890Y-2868240D01*
X874760Y-2860370D01*
X878660Y-2847240D01*
X879630Y-2835430D01*
X877680Y-2823620D01*
X874760Y-2815750D01*
X868920Y-2807870D01*
X862110Y-2802620D01*
X855290Y-2800000D01*
X848470D01*
X841660Y-2802620D01*
X835820Y-2806560D01*
X830950Y-2811810D01*
G01X778500Y-2800000D02*
X776550Y-2817060D01*
X773630Y-2831490D01*
X769730Y-2844620D01*
X764870Y-2859050D01*
X757080Y-2878740D01*
X796020D01*
G01X724250Y-2810000D02*
Y-2865000D01*
X918750D01*
Y-2810000D01*
X724250D01*
G01X1010500Y-2508370D02*
X1089240Y-2532710D01*
X1010500Y-2557050D01*
G01X1038060Y-2548290D02*
Y-2517130D01*
G01X1010500Y-2611450D02*
X1089240D01*
X1073490Y-2599770D01*
G01X1010500D02*
Y-2623130D01*
M02*
