G04 ================== begin FILE IDENTIFICATION RECORD ==================*
G04 Layout Name:  Tesis_minimum_size_v2.brd*
G04 Film Name:    SM_BOT*
G04 File Format:  Gerber RS274X*
G04 File Origin:  Cadence Allegro 17.2-P019*
G04 Origin Date:  Fri Nov 16 17:11:54 2018*
G04 *
G04 Layer:  VIA CLASS/SOLDERMASK_BOTTOM*
G04 Layer:  PIN/SOLDERMASK_BOTTOM*
G04 Layer:  PACKAGE GEOMETRY/SOLDERMASK_BOTTOM*
G04 Layer:  BOARD GEOMETRY/SOLDERMASK_BOTTOM*
G04 *
G04 Offset:    (0.0000 0.0000)*
G04 Mirror:    No*
G04 Mode:      Positive*
G04 Rotation:  0*
G04 FullContactRelief:  No*
G04 UndefLineWidth:     0.0100*
G04 ================== end FILE IDENTIFICATION RECORD ====================*
%FSLAX25Y25*MOMM*%
%IR0*IPPOS*OFA0.00000B0.00000*MIA0B0*SFA1.00000B1.00000*%
%ADD11C,.65*%
%ADD10C,1.*%
%ADD13R,3.05X2.65*%
%ADD12R,3.05X3.65*%
%LPD*%
G75*
G54D10*
X-1377000Y-2798000D03*
Y-2671000D03*
Y-2098000D03*
X-1379500Y-1912500D03*
G54D11*
X-1404000Y-2922000D03*
X-739500Y-2644500D03*
X-707500Y-2922000D03*
X-1084000Y-2993500D03*
X-856500Y-2725000D03*
X-971500Y-2995500D03*
X-879500Y-3067000D03*
X-857000Y-2438500D03*
X-723500Y-2135500D03*
X-850500Y-2210500D03*
X-977500Y-2297000D03*
X-742500Y-2522500D03*
X-1200000Y-2006000D03*
X-723500Y-1797000D03*
X-852000Y-1799000D03*
X-1104500Y-1797000D03*
X1000Y-3086500D03*
X-76000Y-3006500D03*
X-127000Y-3094500D03*
X-206000Y-3008500D03*
X-112500Y-2748000D03*
X-491000Y-3085000D03*
X-111000Y-2657000D03*
X-12000Y-2750500D03*
X-9000Y-2660000D03*
X-405500Y-2654000D03*
X-475000Y-2293000D03*
X-367500Y-2386000D03*
X-324500Y-2188500D03*
X-511500Y-2456500D03*
X-12000Y-2559000D03*
X18000Y-2161000D03*
X-112500Y-2557500D03*
X-515500Y-2537000D03*
X-393000Y-1996260D03*
X-338500Y-2052500D03*
X-414000Y-2107580D03*
X-325000Y-1791000D03*
X-16500Y-1793000D03*
X-596500Y-1884000D03*
X255500Y-2897500D03*
X418500Y-2964500D03*
X171500Y-3119500D03*
X348000Y-2964500D03*
Y-3025000D03*
X672000Y-2705000D03*
X607000D03*
X95000Y-2749500D03*
Y-2658500D03*
X196000Y-2278000D03*
X652500Y-2306000D03*
X570500Y-2305500D03*
X120000Y-2159000D03*
X672000Y-2630000D03*
X90500Y-2560500D03*
X290000Y-2097000D03*
X205000Y-1809000D03*
X55500Y-1701500D03*
X752500Y-2705000D03*
X954500Y-3045500D03*
G54D12*
X-1335500Y-2433500D03*
G54D13*
X804500D03*
M02*
