G04 ================== begin FILE IDENTIFICATION RECORD ==================*
G04 Layout Name:  C:/TEMP/FULLADDER/allegro/FULLADDER.brd*
G04 Film Name:    BOTTOM*
G04 File Format:  Gerber RS274X*
G04 File Origin:  Cadence Allegro 17.2-P019*
G04 Origin Date:  Mon Oct 08 16:29:21 2018*
G04 *
G04 Layer:  ETCH/BOTTOM*
G04 Layer:  PIN/BOTTOM*
G04 Layer:  VIA CLASS/BOTTOM*
G04 *
G04 Offset:    (0.00 0.00)*
G04 Mirror:    No*
G04 Mode:      Positive*
G04 Rotation:  0*
G04 FullContactRelief:  No*
G04 UndefLineWidth:     0.00*
G04 ================== end FILE IDENTIFICATION RECORD ====================*
%FSLAX31Y31*MOMM*%
%IR0*IPPOS*OFA0.00000B0.00000*MIA0B0*SFA1.00000B1.00000*%
%ADD12C,.6096*%
%ADD11C,1.524*%
%ADD10R,1.524X1.524*%
%ADD13C,.127*%
G75*
%LPD*%
G75*
G54D10*
X1905Y2413D03*
X2108Y2870D03*
X2362Y2413D03*
Y2692D03*
G54D11*
X1905Y2489D03*
X1956Y2134D03*
X1930D03*
X1981Y2413D03*
X1956D03*
X1930D03*
X1981Y2489D03*
X1956D03*
X1930D03*
X2057Y2413D03*
X2032D03*
X2007D03*
X2057Y2489D03*
X2032D03*
X2007D03*
X2108Y2718D03*
Y2743D03*
Y2769D03*
Y2794D03*
Y2819D03*
Y2845D03*
X2210Y2337D03*
Y2413D03*
X2184Y2718D03*
Y2743D03*
Y2769D03*
Y2794D03*
Y2819D03*
Y2845D03*
Y2870D03*
X2235Y2337D03*
X2261D03*
X2286D03*
X2235Y2413D03*
X2261D03*
X2286D03*
X2311Y2337D03*
X2337D03*
X2362D03*
X2311Y2413D03*
X2337D03*
X2362Y2540D03*
Y2565D03*
Y2591D03*
Y2616D03*
Y2642D03*
Y2667D03*
X2438Y2540D03*
Y2565D03*
Y2591D03*
Y2616D03*
Y2642D03*
Y2667D03*
Y2692D03*
X2515Y2286D03*
X2540D03*
X2565Y2438D03*
Y2464D03*
Y2489D03*
G54D12*
X2362Y2496D03*
G54D13*
G01X1905Y2413D02*
X1915D01*
Y2819D01*
X2108D01*
G01X1956Y2413D02*
Y2273D01*
X1930D01*
Y2134D01*
G01X2032Y2413D02*
Y2134D01*
X1956D01*
G01X2108Y2743D02*
X2082D01*
Y2463D01*
X1930D01*
Y2413D01*
G01X1981D02*
Y2443D01*
X2184D01*
Y2718D01*
G01X2057Y2489D02*
Y2794D01*
X2108D01*
G01X2032Y2489D02*
Y2804D01*
X2138D01*
Y2734D01*
X2196D01*
Y2794D01*
X2184D01*
G01X2108Y2718D02*
Y2727D01*
X2210D01*
Y2413D01*
G01X2108Y2870D02*
X2158D01*
Y2743D01*
X2184D01*
G01X2210Y2413D02*
Y2403D01*
X2350D01*
G01X2286Y2591D02*
Y2819D01*
X2184D01*
G01Y2870D02*
X2400D01*
Y2692D01*
G01X2286Y2413D02*
Y2591D01*
G01X2362D02*
X2286D01*
G01X2350Y2403D02*
Y2311D01*
X2540D01*
Y2286D01*
G01X2362Y2337D02*
X2353D01*
Y2496D01*
X2362D01*
G01X2362Y2540D02*
X2350D01*
Y2403D01*
G01X2362Y2565D02*
X2337D01*
Y2413D01*
G01X2362D02*
X2450D01*
Y2489D01*
G01X2362Y2496D02*
X2400D01*
Y2692D01*
G01X2438Y2565D02*
X2450D01*
Y2489D01*
G01X2438Y2692D02*
X2400D01*
G01X2450Y2489D02*
X2565D01*
M02*
